<svg width="164" height="94" viewBox="0 0 164 94" fill="none" xmlns="http://www.w3.org/2000/svg">
<path d="M0.292893 85.2929C-0.0976311 85.6834 -0.0976311 86.3166 0.292893 86.7071L6.65685 93.0711C7.04738 93.4616 7.68054 93.4616 8.07107 93.0711C8.46159 92.6805 8.46159 92.0474 8.07107 91.6569L2.41421 86L8.07107 80.3431C8.46159 79.9526 8.46159 79.3195 8.07107 78.9289C7.68054 78.5384 7.04738 78.5384 6.65685 78.9289L0.292893 85.2929ZM1 87H4.925V85H1V87ZM12.775 87H20.625V85H12.775V87ZM28.475 87H36.325V85H28.475V87ZM44.175 87H52.025V85H44.175V87ZM59.875 87H67.725V85H59.875V87ZM75.575 87H83.425V85H75.575V87ZM91.275 87H99.125V85H91.275V87ZM106.975 87H114.825V85H106.975V87ZM122.675 87H130.525V85H122.675V87ZM138.375 87H146.225V85H138.375V87ZM154.075 87H158V85H154.075V87ZM158 87C161.314 87 164 84.3137 164 81H162C162 83.2091 160.209 85 158 85V87ZM164 81V76.95H162V81H164ZM164 68.85V60.75H162V68.85H164ZM164 52.65V44.55H162V52.65H164ZM164 36.45V28.35H162V36.45H164ZM164 20.25V12.15H162V20.25H164ZM164 4.05V0H162V4.05H164Z" fill="#CBFA11"/>
</svg>
