<svg width="390" height="1240" viewBox="0 0 390 1240" fill="none" xmlns="http://www.w3.org/2000/svg">
<g opacity="0.1">
<path d="M-455 1.06018C-21.3672 1.06018 412.266 1.06018 845.898 1.06018C845.423 413.6 845.423 826.14 845.898 1238.68C412.279 1239.11 -21.3536 1239.11 -455 1238.68V1.06018Z" stroke="#4A3AFF" stroke-width="1.17273" stroke-miterlimit="10"/>
<path d="M-455 1179.76C-342.656 1179.76 -213.931 1196.21 -104.338 1170.26C-55.7251 1158.75 -12.6539 1144.65 38.2818 1143.57C88.4433 1142.48 135.162 1151.05 183.795 1161.94C287.317 1185.2 382.322 1178.42 487.372 1169.31C608.191 1158.8 725.629 1180.55 845.959 1179.78" stroke="#4A3AFF" stroke-width="1.17273" stroke-miterlimit="10"/>
<path d="M-455 1120.81H-267.883C-207.636 1120.81 -164.646 1125.3 -116.807 1086.17C-80.1335 1056.2 -52.5059 1012.94 -0.00137298 1007.47C55.6612 1001.66 112.261 1039.63 158.185 1063.98C207.979 1090.4 258.019 1120.46 316.554 1120.69C371.565 1120.89 426.758 1101.31 479.67 1089.21C538.369 1075.76 592.89 1071.9 652.567 1083.84C717.459 1096.85 779.132 1117.28 845.898 1120.81" stroke="#4A3AFF" stroke-width="1.17273" stroke-miterlimit="10"/>
<path d="M-455 1061.81H-267.883C-199.343 1061.81 -162.71 1065.69 -129.908 1000.77C-110.063 961.504 -92.9693 879.397 -39.9146 868.058C17.6631 855.749 92.9665 934.135 131.474 964.257C179.496 1001.84 236.768 1060.24 303.637 1061.17C359.584 1062.04 420.748 1026.77 471.765 1008.08C533.622 985.423 584.007 978.057 648.268 999.185C714.79 1021.03 774.996 1053.46 845.898 1061.68" stroke="#4A3AFF" stroke-width="1.17273" stroke-miterlimit="10"/>
<path d="M-455 1002.94H-267.883C-242.252 1002.94 -207.554 1008.87 -183.655 999.317C-153.868 987.396 -144.761 956.209 -136.489 928.626C-123.714 885.983 -119.069 777.786 -62.7135 763.21C-2.24257 747.587 80.8642 849.62 116.458 882.514C161.75 924.381 225.114 1004.63 296.302 1002.5C355.795 1000.73 415.288 959.853 467.446 936.322C529.628 908.274 580.095 898.621 645.701 925.137C713.201 952.429 771.553 993.56 845.898 1002.92" stroke="#4A3AFF" stroke-width="1.17273" stroke-miterlimit="10"/>
<path d="M-455 944.017H-267.883C-242.333 944.017 -207.84 949.832 -183.859 940.761C-153.481 929.228 -142.601 896.858 -132.557 869.372C-116.746 826.186 -104.379 714.578 -47.3513 700.622C14.1383 685.6 96.0022 787.013 132.187 820.604C177.805 862.976 240.884 943.629 312.744 940.528C369.792 938.086 428.103 907.053 480.832 888.445C542.994 866.504 592.544 857.529 656.743 880.091C720.596 902.537 777.359 934.597 845.857 943.94" stroke="#4A3AFF" stroke-width="1.17273" stroke-miterlimit="10"/>
<path d="M-455 885.07H-267.883C-241.172 885.07 -208.206 890.226 -182.82 881.698C-149.406 870.494 -132.353 836.903 -117.011 808.604C-92.2766 762.956 -61.328 648.11 0.935774 635.938C65.2778 623.377 143.087 719.072 182.267 754.718C233.203 801.238 288.906 868.575 363.904 874.061C415.349 877.802 472.05 865.939 523.394 861.287C578.547 856.306 632.253 852.545 687.284 861.152C740.584 869.486 791.743 882.124 845.98 885.051" stroke="#4A3AFF" stroke-width="1.17273" stroke-miterlimit="10"/>
<path d="M-455 826.145H-267.883C-239.99 826.145 -208.145 830.506 -181.373 822.598C-143.925 811.549 -119.965 776.718 -98.6334 747.468C-62.5506 698.041 -13.4689 582.711 56.6593 570.383C122.774 558.753 198.994 650.998 240.028 687.729C295.038 736.905 346.667 793.368 422.907 806.607C473.843 815.445 522.436 826.688 572.597 838.705C623.533 850.878 669.803 857.701 722.002 847.971C763.749 840.217 803.173 829.479 845.939 826.184" stroke="#4A3AFF" stroke-width="1.17273" stroke-miterlimit="10"/>
<path d="M-455 767.18H-267.883C-239.562 767.18 -208.186 771.153 -180.884 763.594C-141.012 752.545 -112.345 716.415 -87.1626 687.146C-43.3375 636.401 19.5376 519.307 94.3723 506.882C161.119 495.853 236.768 586.257 278.8 623.298C335.991 673.694 386.254 724.091 462.597 741.4C516.589 753.67 557.541 779.721 605.38 805.035C648.41 827.791 699.692 847.678 746.187 820.833C783.675 799.375 798.039 773.712 845.898 767.18" stroke="#4A3AFF" stroke-width="1.17273" stroke-miterlimit="10"/>
<path d="M-455 708.274H-267.883C-239.359 708.274 -208.492 711.996 -181.149 704.03C-142.744 692.845 -112.977 658.518 -87.0201 631.226C-41.5039 583.33 24.2439 475.404 96.3485 462.747C159.509 451.698 238.276 537.857 280.145 571.603C337.519 617.832 389.84 665.244 463.391 682.65C517.831 695.559 560.251 720.195 609.353 744.948C651.609 766.269 705.947 787.862 751.158 760.454C787.566 738.396 797.448 714.244 845.878 708.294" stroke="#4A3AFF" stroke-width="1.17273" stroke-miterlimit="10"/>
<path d="M-455 649.335H-267.883C-191.275 649.335 -151.994 643.035 -90.6262 594.364C-41.8298 555.597 18.3559 482.619 84.939 473.781C145.94 465.698 217.881 522.239 266.27 549.976C324.602 583.645 379.327 617.372 447.112 627.625C503.244 636.135 555.096 651.389 609.475 666.508C655.093 679.165 710.715 694.284 757.331 677.266C789.747 665.442 808.267 651.951 845.898 649.335" stroke="#4A3AFF" stroke-width="1.17273" stroke-miterlimit="10"/>
<path d="M-455 590.408C-340.415 590.408 -201.972 611.73 -95.5161 565.21C-42.0132 541.814 9.85971 508.902 70.1472 505.122C130.435 501.342 191.252 523.265 247.994 539.488C307.08 556.371 364.128 573.079 426.147 573.506C487.392 573.913 548.189 578.914 609.231 582.79C687.875 587.791 767.09 588.276 845.919 590.311" stroke="#4A3AFF" stroke-width="1.17273" stroke-miterlimit="10"/>
<path d="M-455 531.466C-337.848 531.466 -215.561 541.061 -99.1223 528.403C12.6306 516.27 121.389 513.866 233.997 517.917C360.216 522.472 483.582 513.885 609.353 504.446C655.093 501.015 727.911 484.578 771.288 504.446C799.424 517.316 810.691 528.539 845.919 531.447" stroke="#4A3AFF" stroke-width="1.17273" stroke-miterlimit="10"/>
<path d="M-455 472.556C-226.706 472.556 2.1379 477.188 230.208 466.876C358.016 461.061 482.054 455.246 608.966 438.809C651.059 433.382 732.515 414.251 771.96 437.123C780.843 442.279 782.942 450.381 790.582 456.119C809.225 470.055 821.449 471.47 845.898 472.556" stroke="#4A3AFF" stroke-width="1.17273" stroke-miterlimit="10"/>
<path d="M-455 413.591C-229.457 413.591 -3.48541 417.468 221.915 409.288C277.191 407.253 332.589 407.137 387.803 405.005C459.276 402.252 529.262 380.814 598.636 365.967C641.605 356.76 725.873 331.31 765.705 360.946C798.813 385.486 794.963 409.85 845.898 413.63" stroke="#4A3AFF" stroke-width="1.17273" stroke-miterlimit="10"/>
<path d="M-455 354.672C-233.532 354.672 -11.8389 357.444 209.568 352.365C260.504 351.202 312.581 353.741 363.272 349.632C438.514 343.565 512.106 309.741 583.07 287.044C629.931 272.06 714.056 236.88 757.046 277.352C791.886 310.129 788.341 346.162 846 354.691" stroke="#4A3AFF" stroke-width="1.17273" stroke-miterlimit="10"/>
<path d="M-455 295.722C-236.995 295.722 -18.9903 296.904 199.015 295.16C245.875 294.792 295.446 299.037 342.164 293.881C420.829 285.236 497.844 239.898 569.643 210.649C620.579 189.948 702.83 147.44 749.304 196.771C785.977 235.673 782.942 283.065 846 295.625" stroke="#4A3AFF" stroke-width="1.17273" stroke-miterlimit="10"/>
<path d="M-455 236.798H195.449C241.189 236.798 289.639 241.198 335.176 236.178C415.063 227.378 492.934 177.699 564.753 146.201C616.769 123.387 697.635 79.6775 745.473 130.985C782.942 171.186 781.719 223.656 845.919 236.779" stroke="#4A3AFF" stroke-width="1.17273" stroke-miterlimit="10"/>
<path d="M-455 177.933H195.449C241.393 177.933 289.497 181.926 335.278 177.216C409.603 169.579 481.606 130.851 550.267 105.014C605.767 84.1379 674.795 52.6789 728.46 92.8991C771.246 124.959 787.057 166.962 845.939 177.895" stroke="#4A3AFF" stroke-width="1.17273" stroke-miterlimit="10"/>
<path d="M-455 118.929H195.449C241.699 118.929 288.621 121.178 334.809 118.755C400.007 115.343 463.167 92.1415 525.737 75.9372C583.274 61.0508 642.155 47.8121 699.957 68.6684C750.893 86.9856 789.604 114.568 845.898 118.929" stroke="#4A3AFF" stroke-width="1.17273" stroke-miterlimit="10"/>
<path d="M-455 59.9879H195.449C299.113 59.9879 399.192 57.0998 502.164 45.7994C558.437 39.6161 616.26 37.2126 672.574 43.1826C730.783 49.3465 786.915 60.6276 845.857 60.0461" stroke="#4A3AFF" stroke-width="1.17273" stroke-miterlimit="10"/>
<path d="M412.23 1.09784C412.964 52.8511 427.185 100.107 435.538 150.659C444.524 204.932 442.547 255.716 459.03 309.272C475.329 361.994 495.704 413.36 501.123 468.486C505.707 516.014 511.473 562.32 520.438 609.48C528.588 652.898 546.497 706.609 538.775 750.977C528.853 808.235 468.341 843.629 428.509 881.814C376.535 931.707 376.453 973.206 385.723 1039.75C394.994 1106.29 409.154 1171.55 412.21 1238.66" stroke="#4A3AFF" stroke-width="1.17273" stroke-miterlimit="10"/>
<path d="M350.297 1.09784C349.319 59.2476 352.069 117.397 353.17 175.547C354.249 231.913 353.17 279.364 374.726 332.551C393.796 379.904 416.798 424.176 423.033 475.212C428.078 518.119 438.06 560.369 452.8 601.203C466.715 640.105 487.436 685.869 481.568 728.008C472.807 791.449 404.391 843.455 364.416 890.362C316.272 946.864 307.001 987.705 319.593 1057.95C330.371 1118.41 347.037 1177.02 350.399 1238.54" stroke="#4A3AFF" stroke-width="1.17273" stroke-miterlimit="10"/>
<path d="M288.375 1.06018C288.375 108.812 269.55 233.097 309.361 335.731C327.494 382.445 349.376 426.367 355.285 476.512C360.297 519.155 367.692 554.045 385.744 594.265C402.043 630.492 421.032 671.662 415.185 712.212C405.955 776.177 337.151 830.663 297.401 878.908C250.133 936.224 238.825 977.142 252.578 1047.87C265.088 1111.84 285.849 1173.4 288.335 1238.82" stroke="#4A3AFF" stroke-width="1.17273" stroke-miterlimit="10"/>
<path d="M226.518 1.06018C226.518 110.75 212.419 229.782 241.494 336.7C254.472 384.402 269.916 430.205 274.357 479.613C277.475 514.018 281.223 535.359 302.229 564.26C372.704 661.176 274.48 739.465 212.929 814.303C161.239 877.144 155.881 918.856 173.24 995.614C191.577 1076.66 220.916 1155.6 226.539 1238.78" stroke="#4A3AFF" stroke-width="1.17273" stroke-miterlimit="10"/>
<path d="M164.477 1.06018C164.477 112.514 156.124 227.301 171.323 338.038C178.006 386.729 185.32 434.508 187.622 483.625C187.846 488.491 185.422 517.003 193.185 522.392C200.642 527.606 206.02 522.392 211.949 525.222C217.878 528.052 223.155 522.334 230.694 528.052C238.986 534.351 236.928 557.96 235.767 566.915C227.617 629.504 159.954 683.215 121.345 730.355C64.1134 800.134 67.6585 844.599 88.7459 929.207C114.438 1032.13 153.006 1132.96 164.335 1238.58" stroke="#4A3AFF" stroke-width="1.17273" stroke-miterlimit="10"/>
<path d="M102.521 1.06018C102.521 98.9843 101.115 197.005 102.296 294.929C102.826 338.077 105.23 381.185 106.371 424.313C106.921 447.689 96.3675 498.512 111.587 517.042C127.54 506.362 129.496 484.091 145.429 473.469C190.741 539.372 30.0084 663.424 2.2179 714.286C-33.3149 779.259 5.62043 864.661 24.0795 929.905C52.9091 1031.88 89.4402 1133.43 102.602 1238.58" stroke="#4A3AFF" stroke-width="1.17273" stroke-miterlimit="10"/>
<path d="M40.5843 1.06018V424.933C40.5843 447.863 30.2953 499.19 45.7594 517.178C60.7957 503.609 62.0589 480.989 77.1155 467.44C121.593 528.672 -34.6375 658.462 -60.6555 706.726C-96.3716 773.056 -57.6197 857.916 -38.9569 924.555C-9.9235 1028.33 26.7299 1131.74 40.5029 1238.56" stroke="#4A3AFF" stroke-width="1.17273" stroke-miterlimit="10"/>
<path d="M-21.3735 1.06018V339.143C-21.3735 388.512 -22.657 437.997 -21.3735 487.424C-21.3735 487.521 -22.8812 521.578 -17.2986 524.253C-15.363 525.144 -3.62747 524.35 -5.44078 522.779C-6.45949 521.888 3.44241 519.581 6.39668 521.326C13.3239 525.416 10.4715 551.409 9.65658 558.154C3.03493 615.838 -43.3166 667.572 -72.7778 716.224C-116.358 788.058 -111.143 835.877 -92.9076 916.395C-68.6418 1023.64 -33.3128 1129.24 -21.3735 1238.62" stroke="#4A3AFF" stroke-width="1.17273" stroke-miterlimit="10"/>
</g>
</svg>
