<svg width="1440" height="461" viewBox="0 0 1440 461" fill="none" xmlns="http://www.w3.org/2000/svg">
<g opacity="0.1">
<path d="M0.223633 0.935425C480.111 0.935425 959.999 0.935425 1439.89 0.935425C1439.36 153.956 1439.36 306.977 1439.89 459.997C960.014 460.156 480.126 460.156 0.223633 459.997V0.935425Z" stroke="#4A3AFF" stroke-width="1.17273" stroke-miterlimit="10"/>
<path d="M0.223633 438.141C124.551 438.141 267.007 444.245 388.29 434.618C442.089 430.348 489.754 425.121 546.123 424.718C601.635 424.316 653.337 427.493 707.158 431.534C821.722 440.162 926.862 437.645 1043.12 434.266C1176.82 430.369 1306.79 438.436 1439.95 438.149" stroke="#4A3AFF" stroke-width="1.17273" stroke-miterlimit="10"/>
<path d="M0.223633 416.276H207.301C273.974 416.276 321.549 417.944 374.491 403.428C415.077 392.313 445.651 376.265 503.756 374.238C565.356 372.081 627.994 386.165 678.816 395.196C733.922 404.995 789.299 416.146 854.078 416.233C914.957 416.305 976.038 409.043 1034.59 404.557C1099.55 399.567 1159.89 398.136 1225.93 402.565C1297.75 407.389 1366 414.967 1439.89 416.276" stroke="#4A3AFF" stroke-width="1.17273" stroke-miterlimit="10"/>
<path d="M0.223633 394.393H207.301C283.151 394.393 323.691 395.831 359.993 371.753C381.954 357.186 400.872 326.731 459.586 322.525C523.305 317.959 606.641 347.035 649.256 358.207C702.401 372.148 765.782 393.811 839.783 394.156C901.699 394.479 969.387 381.394 1025.85 374.463C1094.3 366.058 1150.06 363.326 1221.18 371.163C1294.79 379.266 1361.42 391.294 1439.89 394.343" stroke="#4A3AFF" stroke-width="1.17273" stroke-miterlimit="10"/>
<path d="M0.223633 372.557H207.301C235.666 372.557 274.064 374.757 300.512 371.212C333.477 366.79 343.556 355.222 352.71 344.991C366.847 329.174 371.988 289.041 434.355 283.634C501.276 277.84 593.248 315.686 632.638 327.887C682.762 343.417 752.885 373.182 831.666 372.391C897.505 371.737 963.344 356.574 1021.07 347.846C1089.88 337.442 1145.73 333.862 1218.33 343.697C1293.03 353.82 1357.61 369.077 1439.89 372.549" stroke="#4A3AFF" stroke-width="1.17273" stroke-miterlimit="10"/>
<path d="M0.223633 350.7H207.301C235.575 350.7 273.748 352.857 300.287 349.492C333.905 345.214 345.946 333.208 357.062 323.013C374.559 306.994 388.245 265.596 451.356 260.419C519.404 254.847 610.001 292.464 650.045 304.923C700.529 320.64 770.337 350.556 849.862 349.406C912.995 348.5 977.526 336.989 1035.88 330.087C1104.67 321.948 1159.51 318.62 1230.56 326.988C1301.22 335.314 1364.04 347.206 1439.84 350.671" stroke="#4A3AFF" stroke-width="1.17273" stroke-miterlimit="10"/>
<path d="M0.223633 328.835H207.301C236.861 328.835 273.343 330.748 301.437 327.584C338.415 323.429 357.287 310.969 374.266 300.472C401.638 283.54 435.888 240.941 504.794 236.426C575.999 231.767 662.108 267.263 705.467 280.485C761.836 297.74 823.481 322.717 906.479 324.752C963.411 326.139 1026.16 321.739 1082.98 320.014C1144.02 318.166 1203.45 316.771 1264.35 319.963C1323.34 323.055 1379.96 327.742 1439.98 328.828" stroke="#4A3AFF" stroke-width="1.17273" stroke-miterlimit="10"/>
<path d="M0.223633 306.979H207.301C238.168 306.979 273.41 308.596 303.038 305.663C344.48 301.565 370.996 288.645 394.603 277.796C434.535 259.462 488.852 216.683 566.461 212.111C639.628 207.797 723.979 242.012 769.389 255.637C830.268 273.877 887.403 294.821 971.776 299.731C1028.15 303.01 1081.92 307.18 1137.43 311.637C1193.8 316.153 1245.01 318.683 1302.77 315.074C1348.97 312.198 1392.6 308.215 1439.93 306.993" stroke="#4A3AFF" stroke-width="1.17273" stroke-miterlimit="10"/>
<path d="M0.223633 285.107H207.301C238.642 285.107 273.365 286.581 303.579 283.777C347.705 279.679 379.429 266.277 407.298 255.421C455.798 236.598 525.38 193.165 608.197 188.557C682.063 184.466 765.782 217.998 812.298 231.738C875.589 250.431 931.214 269.124 1015.7 275.545C1075.45 280.096 1120.77 289.759 1173.71 299.148C1221.33 307.589 1278.09 314.966 1329.54 305.008C1371.03 297.049 1386.92 287.53 1439.89 285.107" stroke="#4A3AFF" stroke-width="1.17273" stroke-miterlimit="10"/>
<path d="M0.223633 263.258H207.301C238.867 263.258 273.027 264.638 303.286 261.683C345.788 257.535 378.73 244.802 407.456 234.679C457.827 216.913 530.588 176.881 610.384 172.186C680.281 168.088 767.45 200.046 813.786 212.563C877.28 229.71 935.182 247.296 1016.58 253.753C1076.83 258.541 1123.77 267.679 1178.11 276.86C1224.87 284.769 1285.01 292.778 1335.04 282.612C1375.33 274.43 1386.27 265.472 1439.86 263.265" stroke="#4A3AFF" stroke-width="1.17273" stroke-miterlimit="10"/>
<path d="M0.223633 241.395H207.301C292.08 241.395 335.551 239.059 403.465 221.005C457.466 206.626 524.072 179.557 597.757 176.278C665.265 173.28 744.88 194.253 798.431 204.541C862.985 217.03 923.547 229.54 998.563 233.343C1060.68 236.499 1118.07 242.158 1178.24 247.766C1228.73 252.46 1290.28 258.068 1341.87 251.756C1377.75 247.37 1398.24 242.366 1439.89 241.395" stroke="#4A3AFF" stroke-width="1.17273" stroke-miterlimit="10"/>
<path d="M0.223633 219.538C127.031 219.538 280.242 227.447 398.053 210.192C457.263 201.514 514.669 189.306 581.388 187.904C648.106 186.502 715.411 194.633 778.206 200.651C843.594 206.913 906.727 213.111 975.362 213.269C1043.14 213.42 1110.42 215.275 1177.97 216.713C1265.01 218.568 1352.67 218.747 1439.91 219.502" stroke="#4A3AFF" stroke-width="1.17273" stroke-miterlimit="10"/>
<path d="M0.223633 197.675C129.872 197.675 265.203 201.234 394.062 196.539C517.736 192.039 638.095 191.147 762.715 192.65C902.398 194.339 1038.92 191.154 1178.11 187.653C1228.73 186.38 1309.31 180.283 1357.32 187.653C1388.46 192.427 1400.92 196.59 1439.91 197.668" stroke="#4A3AFF" stroke-width="1.17273" stroke-miterlimit="10"/>
<path d="M0.223633 175.824C252.869 175.824 506.124 177.542 758.522 173.717C899.963 171.561 1037.23 169.404 1177.68 163.307C1224.26 161.294 1314.41 154.197 1358.06 162.681C1367.89 164.594 1370.22 167.599 1378.67 169.727C1399.3 174.897 1412.83 175.421 1439.89 175.824" stroke="#4A3AFF" stroke-width="1.17273" stroke-miterlimit="10"/>
<path d="M0.223633 153.953C249.825 153.953 499.901 155.391 749.345 152.357C810.516 151.602 871.823 151.559 932.927 150.768C1012.02 149.747 1089.48 141.795 1166.25 136.288C1213.8 132.873 1307.06 123.433 1351.14 134.426C1387.78 143.528 1383.52 152.565 1439.89 153.967" stroke="#4A3AFF" stroke-width="1.17273" stroke-miterlimit="10"/>
<path d="M0.223633 132.098C245.316 132.098 490.656 133.126 735.681 131.243C792.05 130.811 849.681 131.753 905.78 130.229C989.048 127.978 1070.49 115.432 1149.02 107.013C1200.88 101.456 1293.98 88.4064 1341.56 103.418C1380.11 115.576 1376.19 128.942 1440 132.105" stroke="#4A3AFF" stroke-width="1.17273" stroke-miterlimit="10"/>
<path d="M0.223633 110.232C241.483 110.232 482.742 110.671 724.001 110.024C775.861 109.887 830.719 111.462 882.421 109.549C969.477 106.343 1054.71 89.5261 1134.16 78.6768C1190.53 70.9982 1281.56 55.2312 1332.99 73.529C1373.57 87.9587 1370.21 105.538 1440 110.196" stroke="#4A3AFF" stroke-width="1.17273" stroke-miterlimit="10"/>
<path d="M0.223633 88.3761H720.055C770.675 88.3761 824.293 90.0081 874.687 88.146C963.096 84.8819 1049.27 66.4547 1128.75 54.7714C1186.32 46.3092 1275.81 30.0964 1328.75 49.1275C1370.22 64.039 1368.86 83.5015 1439.91 88.3689" stroke="#4A3AFF" stroke-width="1.17273" stroke-miterlimit="10"/>
<path d="M0.223633 66.5418H720.055C770.9 66.5418 824.135 68.0229 874.799 66.2758C957.053 63.4431 1036.74 49.0781 1112.72 39.4942C1174.14 31.7509 1250.53 20.082 1309.92 35.0006C1357.27 46.8924 1374.77 62.4725 1439.93 66.5274" stroke="#4A3AFF" stroke-width="1.17273" stroke-miterlimit="10"/>
<path d="M0.223633 44.6557H720.055C771.238 44.6557 823.165 45.4897 874.281 44.591C946.433 43.3256 1016.33 34.7196 1085.57 28.709C1149.25 23.1873 1214.41 18.2768 1278.38 26.0129C1334.75 32.8071 1377.59 43.0381 1439.89 44.6557" stroke="#4A3AFF" stroke-width="1.17273" stroke-miterlimit="10"/>
<path d="M0.223633 22.793H720.055C834.778 22.793 945.531 21.7218 1059.49 17.5302C1121.76 15.2367 1185.75 14.3451 1248.07 16.5596C1312.49 18.8459 1374.61 23.0303 1439.84 22.8146" stroke="#4A3AFF" stroke-width="1.17273" stroke-miterlimit="10"/>
<path d="M1371.3 0.949402C1370.85 21.1524 1381.02 40.694 1386.59 60.7245C1392.09 80.5106 1388.59 100.613 1390.31 120.478C1393.49 157.469 1394.82 194.309 1391.88 231.314C1389.16 265.3 1388.37 298.071 1374.25 331.762C1356.64 373.757 1371.48 417.75 1371.34 460.011" stroke="#4A3AFF" stroke-width="1.17273" stroke-miterlimit="10"/>
<path d="M1302.78 0.935425C1306.41 18.9097 1331.41 31.8511 1348.35 48.3227C1367.36 66.8218 1360.01 88.9301 1364 108.242C1372.65 150.287 1375.99 191.067 1368.35 233.163C1364.83 252.625 1366.86 272.641 1360.77 291.996C1356.26 306.461 1335.43 314.579 1314.62 326.672C1286.18 343.208 1294.32 362.074 1295.9 380.264C1298.29 406.866 1302.08 433.403 1302.78 459.997" stroke="#4A3AFF" stroke-width="1.17273" stroke-miterlimit="10"/>
<path d="M1234.28 0.913086C1243.41 19.254 1279.91 22.3743 1311.32 35.4236C1345.62 49.6592 1334.34 78.382 1339.53 95.4863C1346.9 119.931 1357.86 144.448 1359.28 168.994C1360.57 191.023 1352.52 213.174 1346.79 235.096C1341.42 255.802 1348.55 280.578 1333.26 300.673C1321.99 315.613 1290.98 314.959 1255.45 321.401C1201.63 331.172 1220.34 354.265 1222.55 370.773C1226.54 400.516 1232.54 430.217 1234.19 459.982" stroke="#4A3AFF" stroke-width="1.17273" stroke-miterlimit="10"/>
<path d="M1165.69 0.927063C1176.96 21.4321 1220.64 17.0823 1261.61 27.7159C1301.79 38.1553 1290.2 73.0756 1295.43 88.1093C1304.61 113.992 1318.38 140.098 1320.07 166.175C1321.56 189.513 1311.48 213.009 1304.54 236.188C1300.35 250.194 1295.93 264.228 1292.66 278.234C1290.76 286.365 1295.86 297.847 1288.15 305.756C1272.63 321.782 1231.21 315.627 1191.19 318.05C1124.47 322.076 1148.55 349.081 1151.08 365.121C1156.04 396.756 1163.66 428.326 1165.56 460.025" stroke="#4A3AFF" stroke-width="1.17273" stroke-miterlimit="10"/>
<path d="M1097.17 0.913086C1107.99 19.9442 1147.58 19.7069 1183.61 31.5699C1221.11 43.9075 1210.15 75.5134 1217.1 91.6255C1227.85 116.559 1244.45 141.831 1245.26 167.067C1245.96 189.664 1238.63 212.434 1234.28 234.966C1231.71 248.325 1229.07 261.69 1226.79 275.063C1225.44 283.152 1230.24 294.339 1222.94 302.24C1208.06 318.367 1162.24 315.088 1121.27 319.546C1055.43 326.736 1076.9 349.858 1080.32 367.947C1086.12 398.633 1095.66 429.225 1097.12 459.975" stroke="#4A3AFF" stroke-width="1.17273" stroke-miterlimit="10"/>
<path d="M1028.57 0.927063C1034.23 18.6784 1064.33 28.0034 1086.72 43.1665C1111.95 60.2348 1105.21 84.0471 1116.87 102.618C1130.94 125.007 1150.69 147.482 1153.62 170.403C1156.13 190.598 1155.54 210.881 1157.64 231.091C1159.55 249.575 1174.25 273.337 1161 291.484C1147.47 309.854 1092.56 313.722 1049.81 323.378C987.943 337.354 999.623 354.25 1005.89 376.466C1013.71 404.326 1026.18 432 1028.55 459.989" stroke="#4A3AFF" stroke-width="1.17273" stroke-miterlimit="10"/>
<path d="M959.96 0.949402C960.772 20.1459 976.51 37.6744 985.755 56.4251C995.698 76.5562 993.511 95.3932 1011.75 115.258C1029.79 134.814 1052.34 153.867 1058.34 174.314C1063.41 191.944 1069.79 209.12 1079.71 226.612C1088.73 242.717 1108.55 262.64 1100 279.097C1089.02 300.335 1022.06 313.464 977.976 327.628C920.457 346.134 920.367 361.527 930.626 386.209C940.885 410.891 956.556 435.099 959.938 459.99" stroke="#4A3AFF" stroke-width="1.17273" stroke-miterlimit="10"/>
<path d="M891.419 0.949402C890.337 22.5185 893.381 44.0876 894.599 65.6566C895.794 86.5643 894.599 104.165 918.454 123.893C939.559 141.458 965.015 157.879 971.914 176.809C977.497 192.724 988.544 208.396 1004.86 223.542C1020.26 237.972 1043.19 254.947 1036.69 270.577C1027 294.109 951.283 313.399 907.045 330.798C853.765 351.756 843.506 366.905 857.44 392.96C869.368 415.385 887.812 437.126 891.532 459.947" stroke="#4A3AFF" stroke-width="1.17273" stroke-miterlimit="10"/>
<path d="M822.893 0.935425C822.893 40.9029 802.059 87.0032 846.117 125.073C866.185 142.4 890.401 158.692 896.94 177.291C902.486 193.109 910.671 206.05 930.648 220.969C948.686 234.406 969.701 249.677 963.229 264.718C953.015 288.444 876.872 308.654 832.882 326.549C780.571 347.809 768.058 362.987 783.277 389.222C797.121 412.948 820.097 435.782 822.848 460.048" stroke="#4A3AFF" stroke-width="1.17273" stroke-miterlimit="10"/>
<path d="M754.438 0.935425C754.438 41.6219 738.835 85.7738 771.011 125.432C785.374 143.126 802.465 160.115 807.38 178.442C810.83 191.203 814.979 199.119 838.225 209.839C916.217 245.788 807.515 274.827 739.399 302.586C682.196 325.895 676.266 341.367 695.476 369.839C715.769 399.899 748.238 429.182 754.461 460.033" stroke="#4A3AFF" stroke-width="1.17273" stroke-miterlimit="10"/>
<path d="M685.78 0.935425C685.78 42.2762 676.535 84.8535 693.356 125.928C700.752 143.989 708.846 161.711 711.394 179.93C711.642 181.735 708.959 192.311 717.55 194.309C725.802 196.243 731.755 194.309 738.316 195.359C744.877 196.409 750.717 194.288 759.06 196.409C768.236 198.745 765.959 207.503 764.674 210.824C755.655 234.04 680.774 253.962 638.047 271.448C574.711 297.331 578.634 313.824 601.971 345.207C630.403 383.384 673.086 420.785 685.622 459.961" stroke="#4A3AFF" stroke-width="1.17273" stroke-miterlimit="10"/>
<path d="M617.213 0.935425C617.213 37.2578 615.658 73.616 616.965 109.938C617.552 125.943 620.212 141.933 621.475 157.93C622.084 166.6 610.404 185.452 627.247 192.325C644.902 188.364 647.066 180.103 664.699 176.163C714.844 200.608 536.967 246.622 506.212 265.487C466.889 289.587 509.977 321.265 530.405 345.466C562.31 383.291 602.738 420.957 617.304 459.961" stroke="#4A3AFF" stroke-width="1.17273" stroke-miterlimit="10"/>
<path d="M548.671 0.935425V158.16C548.671 166.665 537.284 185.703 554.398 192.375C571.038 187.343 572.436 178.952 589.099 173.927C638.32 196.639 465.425 244.781 436.632 262.683C397.106 287.287 439.991 318.763 460.645 343.481C492.775 381.975 533.338 420.332 548.581 459.954" stroke="#4A3AFF" stroke-width="1.17273" stroke-miterlimit="10"/>
<path d="M480.105 0.935425V126.338C480.105 144.65 478.685 163.006 480.105 181.339C480.105 181.375 478.437 194.007 484.615 195C486.757 195.33 499.744 195.036 497.737 194.453C496.61 194.123 507.568 193.267 510.837 193.914C518.504 195.431 515.347 205.072 514.445 207.574C507.117 228.971 455.821 248.16 423.217 266.206C374.988 292.851 380.76 310.588 400.94 340.454C427.795 380.235 466.892 419.404 480.105 459.976" stroke="#4A3AFF" stroke-width="1.17273" stroke-miterlimit="10"/>
<path d="M411.556 0.935425V126.338C411.556 154.457 403.033 183.633 420.936 211.248C441.409 242.883 411.669 268.32 380.35 298.143C324.906 350.937 404.251 406.449 411.579 460.005" stroke="#4A3AFF" stroke-width="1.17273" stroke-miterlimit="10"/>
<path d="M342.993 0.935425C342.993 75.7658 336.229 150.977 345.248 225.764C349.177 259.117 345.537 292.516 334.357 325.701C319.589 370.601 345.27 415.141 343.016 460.026" stroke="#4A3AFF" stroke-width="1.17273" stroke-miterlimit="10"/>
<path d="M274.449 0.935425V459.997" stroke="#4A3AFF" stroke-width="1.17273" stroke-miterlimit="10"/>
<path d="M205.882 0.935425V459.997" stroke="#4A3AFF" stroke-width="1.17273" stroke-miterlimit="10"/>
<path d="M137.333 0.935425V459.997" stroke="#4A3AFF" stroke-width="1.17273" stroke-miterlimit="10"/>
<path d="M68.7666 0.935425V459.997" stroke="#4A3AFF" stroke-width="1.17273" stroke-miterlimit="10"/>
</g>
</svg>
