<svg width="120" height="175" viewBox="0 0 120 175" fill="none" xmlns="http://www.w3.org/2000/svg">
<path d="M0 0H120V175L60 155L0 175V0Z" fill="#7140FD"/>
<path d="M17.08 114.792V112.056L19.288 109.848H25.36V108.336L24.616 107.592H21.016L20.296 108.336V109.008H17.176V107.64L19.744 105.048H25.912L28.48 107.64V117H25.624V115.296L23.848 117H19.288L17.08 114.792ZM23.632 114.552L25.36 112.896V112.104H20.848L20.2 112.752V113.952L20.8 114.552H23.632ZM31.0047 114.552V107.496L33.4287 105.048H40.0047L42.4767 107.544V109.752H39.3087V108.576L38.4687 107.736H35.0127L34.1727 108.576V113.472L35.0127 114.312H38.4687L39.3087 113.472V112.296H42.4767V114.504L40.0047 117H33.4287L31.0047 114.552ZM45.7075 114.552V107.712H43.5475V105.048H45.7555V101.16H48.8755V105.048H52.5235V107.736H48.8755V113.52L49.6915 114.312H52.5235V117H48.1795L45.7075 114.552ZM54.445 102.552V101.016L55.549 99.912H57.229L58.333 101.016V102.552L57.229 103.656H55.549L54.445 102.552ZM54.805 105.048H57.973V117H54.805V105.048ZM59.6641 105.048H62.9521L65.7361 113.376H65.8321L68.6161 105.048H71.9041L67.3201 117H64.2481L59.6641 105.048ZM73.2184 102.552V101.016L74.3224 99.912H76.0024L77.1064 101.016V102.552L76.0024 103.656H74.3224L73.2184 102.552ZM73.5784 105.048H76.7464V117H73.5784V105.048ZM80.9575 114.552V107.712H78.7975V105.048H81.0055V101.16H84.1255V105.048H87.7735V107.736H84.1255V113.52L84.9415 114.312H87.7735V117H83.4295L80.9575 114.552ZM101.05 105.048V119.736L98.4578 122.304H92.1698L89.9378 120.096V118.464H93.1058V119.184L93.5618 119.664H97.0658L97.8818 118.824V115.224L96.1058 117H92.1458L89.5778 114.408V105.048H92.7458V113.472L93.5618 114.312H95.6498L97.8818 111.936V105.048H101.05Z" fill="white"/>
<path d="M36.8022 66.2H47.3382L49.9062 68.792V74.672L47.3142 77.288H40.0662V83H36.8022V66.2ZM45.8502 74.552L46.6902 73.712V69.776L45.8502 68.936H40.0662V74.552H45.8502ZM65.5178 77.432V83H62.2538V78.176L60.8138 76.568H55.5818V83H52.3178V66.2H62.8538L65.4218 68.792V73.88L63.7898 75.536L65.5178 77.432ZM55.5818 73.88H61.3658L62.2058 73.04V69.776L61.3658 68.936H55.5818V73.88ZM68.2731 80.24V68.96L71.0331 66.2H79.6731L82.4331 68.96V80.24L79.6731 83H71.0331L68.2731 80.24ZM77.9451 80.216L79.1691 78.992V70.208L77.9451 68.984H72.7611L71.5371 70.208V78.992L72.7611 80.216H77.9451Z" fill="white"/>
</svg>
