<svg width="1440" height="592" viewBox="0 0 1440 592" fill="none" xmlns="http://www.w3.org/2000/svg">
<g opacity="0.1">
<path d="M1.28086 1C480.986 1.13733 960.692 1.13733 1440.4 1C1440.4 197.639 1440.4 394.277 1440.4 590.916C960.692 590.984 480.986 590.984 1.28086 590.916C1.28086 394.277 0.0930176 197.639 1.28086 1Z" stroke="url(#paint0_linear_465_483)" stroke-width="1.11052" stroke-miterlimit="10"/>
<path d="M1.28906 568.256C133.505 569.371 261.701 556.748 394.602 562.638C503.975 567.498 611.474 567.619 721.258 569.53C827.662 571.402 932.146 570.466 1038.32 567.657C1172.09 564.146 1306.5 568.462 1440.36 568.219" stroke="url(#paint1_linear_465_483)" stroke-width="1.11052" stroke-miterlimit="10"/>
<path d="M1.28906 545.548C74.6383 544.209 138.805 532.383 208.91 525.098C272.734 518.478 332.423 520.36 394.967 528.113C452.258 535.22 506.396 544.031 566.816 545.576C618.875 546.934 670.364 547.524 722.378 549.93C827.707 554.8 916.544 553.301 1019.66 544.387C1155.76 532.626 1302.71 545.014 1440.43 545.539" stroke="url(#paint2_linear_465_483)" stroke-width="1.11052" stroke-miterlimit="10"/>
<path d="M1.28906 522.833C79.8465 518.301 138.965 498.983 209.413 485.968C278.193 473.27 330.276 477.156 395.401 491.258C451.184 503.337 502.992 518.713 566.725 522.598C618.944 525.782 671.255 526.84 723.565 530.96C774.277 534.959 827.867 540.324 879.972 538.938C925.339 537.712 957.639 528.573 997.203 521.082C1053.76 510.379 1112.08 513.048 1172.94 514.911C1262.02 517.645 1350.86 521.831 1440.2 522.842" stroke="url(#paint3_linear_465_483)" stroke-width="1.11052" stroke-miterlimit="10"/>
<path d="M1.28906 500.087C85.169 492.709 139.558 466.687 209.87 448.69C281.528 430.356 330.527 436.433 395.79 456.022C449.517 472.146 499.497 493.748 566.839 499.685C619.172 504.292 672.26 505.837 724.822 511.502C773.912 516.783 830.266 524.976 882.028 522.626C927.189 520.566 945.669 508.505 977.581 497.746C1026.9 481.126 1089.88 486.735 1149.25 489.057C1246.28 492.802 1342.87 498.496 1440.36 500.115" stroke="url(#paint4_linear_465_483)" stroke-width="1.11052" stroke-miterlimit="10"/>
<path d="M1.28906 477.457C89.6005 469.723 140.175 438.644 210.121 417.913C281.528 396.742 333.017 404.289 395.995 426.49C448.329 444.937 496.505 470.603 566.839 477.148C619.812 482.073 672.374 483.853 725.393 490.529C773.912 496.643 831.316 506.12 883.399 503.404C931.369 500.904 939.433 487.486 966.639 474.545C1008.6 454.535 1079.28 462.204 1135.93 464.657C1237.42 469.039 1338.32 475.781 1440.38 477.467" stroke="url(#paint5_linear_465_483)" stroke-width="1.11052" stroke-miterlimit="10"/>
<path d="M1.28906 454.749C87.8873 446.406 147.257 418.83 220.4 399.934C292.653 381.263 340.852 385.72 404.561 407.753C454.816 425.122 499.36 448.176 566.473 454.309C619.355 459.141 668.696 460.929 721.007 468.692C768.132 475.677 822.43 485.125 874.056 482.466C922.278 479.984 938.885 465.321 970.385 452.923C1018.47 434.018 1081.24 440.31 1142.76 442.848C1242.01 446.93 1340.74 453.045 1440.5 454.777" stroke="url(#paint6_linear_465_483)" stroke-width="1.11052" stroke-miterlimit="10"/>
<path d="M1.28906 432.067C142.025 422.479 291.397 356.511 429.049 397.421C474.918 411.13 508.223 427.048 566.633 431.73C617.893 435.878 658.234 438.753 706.296 448.585C749.332 457.387 795.384 466.844 845.022 464.953C899.64 462.883 935.961 445.926 978.883 434.184C1038.59 417.872 1093.19 420.494 1163.36 422.881C1255.72 426.037 1347.66 430.813 1440.36 432.086" stroke="url(#paint7_linear_465_483)" stroke-width="1.11052" stroke-miterlimit="10"/>
<path d="M1.28906 409.41C98.2124 407.153 190.704 395.065 285.549 387.527C344.484 382.845 405.795 378.275 460.55 390.711C498.401 399.306 522.409 406.825 567.227 409.363C616.249 412.172 646.744 416.966 687.016 429.327C723.931 440.657 759.68 450.114 807.445 449.084C872.777 447.68 933.083 428.596 989.277 416.751C1123.87 388.388 1295.1 408.427 1440.38 409.401" stroke="url(#paint8_linear_465_483)" stroke-width="1.11052" stroke-miterlimit="10"/>
<path d="M1.28906 386.787C107.692 387.948 213.73 383.978 320.019 382.339C374.705 381.506 435.719 379.23 490.223 383.088C515.861 385.031 541.77 386.316 567.798 386.937C614.581 387.948 638.863 395.589 669.039 409.84C698.187 423.605 725.621 433.605 772.244 432.781C850.253 431.396 928.742 411.048 999.236 398.969C1140.11 374.829 1291.47 386.787 1440.41 386.721" stroke="url(#paint9_linear_465_483)" stroke-width="1.11052" stroke-miterlimit="10"/>
<path d="M1.28906 364.041C114.956 366.091 228.578 368.545 342.222 370.811C396.246 371.878 456.004 376.158 509.137 369.874C577.232 361.85 615.609 362.833 657.96 389.079C682.745 404.427 701.864 414.689 750.063 413.968C836.205 412.685 926.96 391.355 1006.43 379.201C1147.37 357.664 1292.38 364.294 1440.45 364.003" stroke="url(#paint10_linear_465_483)" stroke-width="1.11052" stroke-miterlimit="10"/>
<path d="M1.28906 341.364C168.798 344.613 344.347 352.6 511.536 346.392C578.672 343.911 621.183 341.71 662.597 366.833C686.4 381.169 707.141 390.383 752.439 389.728C837.712 388.501 929.542 367.948 1008.94 356.486C1149.59 336.223 1293.25 341.336 1440.41 341.336" stroke="url(#paint11_linear_465_483)" stroke-width="1.11052" stroke-miterlimit="10"/>
<path d="M1.28906 318.675C113.494 319.302 225.152 313.993 337.083 311.465C390.33 310.266 467.289 304.367 516.241 316.568C550.643 325.136 565.971 331.138 608.596 332.908C644.551 334.406 663.26 336.522 691.745 345.202C785.013 373.678 917.298 343.189 1016.32 330.885C1154.48 313.693 1297.45 318.647 1440.41 318.647" stroke="url(#paint12_linear_465_483)" stroke-width="1.11052" stroke-miterlimit="10"/>
<path d="M1.28906 295.957C112.01 292.726 219.052 279.701 327.786 271.274C405.704 265.234 464.342 260.15 524.236 284.299C564.28 300.442 597.334 322.69 657.206 326.642C683.019 328.374 708.946 325.789 733.936 324.048C760.114 322.222 784.305 321.726 811.077 321.154C884.541 319.581 956.268 310.302 1027.65 303.7C1162.24 291.275 1303.35 295.957 1440.41 295.957" stroke="url(#paint13_linear_465_483)" stroke-width="1.11052" stroke-miterlimit="10"/>
<path d="M1.28906 273.242C111.598 266.041 213.022 245.385 318.466 231.105C356.043 226.011 400.107 218.352 439.694 222.369C477.979 226.255 507.378 240.441 532.277 252.052C575.999 272.446 717.01 357.984 776.196 302.916C791.752 288.467 807.857 286.126 845.708 284.815C910.559 282.559 974.406 279.909 1039.05 276.538C1171.15 269.646 1307.48 273.289 1440.41 273.289" stroke="url(#paint14_linear_465_483)" stroke-width="1.11052" stroke-miterlimit="10"/>
<path d="M1.28906 250.553C112.695 241.601 208.887 214.4 311.795 195.888C349.121 189.174 391.267 180.185 432.042 184.651C475.444 189.389 509.96 208.866 536.983 222.256C583.377 245.206 767.904 359.744 805.367 281.266C814.184 262.763 821.494 254.392 869.83 252.576C927.554 250.413 988.294 251.714 1046.45 250.909C1177.55 249.111 1309.26 250.581 1440.43 250.581" stroke="url(#paint15_linear_465_483)" stroke-width="1.11052" stroke-miterlimit="10"/>
<path d="M1.28906 227.874C114.02 219.446 209.87 190.166 312.846 170.905C350.058 163.938 391.746 154.986 432.864 159.387C477.431 164.182 511.604 184.089 538.742 197.938C582.601 220.327 778.594 341.905 809.615 258.278C816.742 239.054 826.108 229.672 874.901 227.893C931.232 225.833 990.624 227.893 1047.3 227.893H1440.41" stroke="url(#paint16_linear_465_483)" stroke-width="1.11052" stroke-miterlimit="10"/>
<path d="M1.28906 205.185C117.926 196.973 222.296 170.923 331.715 153.441C369.474 147.411 414.521 138.459 455.319 142.916C495.477 147.336 523.208 163.76 546.303 176.794C599.984 207.086 715.136 296.444 795.156 230.636C815.281 214.09 828.689 206.73 874.924 205.204C931.461 203.331 990.51 205.204 1047.32 205.204H1440.41" stroke="url(#paint17_linear_465_483)" stroke-width="1.11052" stroke-miterlimit="10"/>
<path d="M1.28906 182.506C125.624 176.101 241.667 153.628 361 138.899C446.753 128.29 507.195 120.312 556.171 155.857C583.377 175.642 605.078 211.374 667.965 216.721C708.786 220.214 742.205 209.436 771.353 199.791C849.499 173.957 951.677 182.497 1047.28 182.497H1440.41" stroke="url(#paint18_linear_465_483)" stroke-width="1.11052" stroke-miterlimit="10"/>
<path d="M1.28906 159.826C136.657 155.378 266.932 136.07 399.079 124.244C459.179 118.85 545.937 105.179 567.524 136.997C576.867 150.781 569.808 169.218 607.225 176.269C644.643 183.32 708.74 173.272 745.975 168.469C841.527 156.146 941.443 159.854 1040.65 159.854H1440.41" stroke="url(#paint19_linear_465_483)" stroke-width="1.11052" stroke-miterlimit="10"/>
<path d="M1.28906 137.149C141.386 133.956 278.308 118.506 416.326 108.908C445.839 106.858 579.882 89.722 575.177 113.937C572.55 127.505 537.12 134.743 580.316 141.326C618.579 147.169 686.514 140.464 726.672 139.153C962.436 131.475 1203.89 137.131 1440.34 137.131" stroke="url(#paint20_linear_465_483)" stroke-width="1.11052" stroke-miterlimit="10"/>
<path d="M1.28906 114.441C145.68 110.255 287.947 97.043 430.991 88.3441C468.91 86.0312 521.29 79.9167 560.717 82.8007C585.593 84.6267 585.73 85.3289 576.707 93.5129C566.976 102.287 534.858 105.339 557.93 113.701C571.019 118.448 631.599 114.441 648.8 114.441H1440.41" stroke="url(#paint21_linear_465_483)" stroke-width="1.11052" stroke-miterlimit="10"/>
<path d="M1.39551 91.7425C133.292 87.9408 263.292 77.1257 394.183 69.616C417.985 68.2582 550.11 53.4542 553.833 72.7716C556.118 84.4762 524.137 86.3584 568.499 91.5646C612.106 96.6959 675.519 91.7519 720.931 91.7519H1440.4" stroke="url(#paint22_linear_465_483)" stroke-width="1.11052" stroke-miterlimit="10"/>
<path d="M1.28906 69.0652C117.423 66.64 232.005 58.3062 347.522 52.9033C394.168 50.7216 468.408 43.0433 509.868 56.0964C527.64 61.7146 530.153 66.6774 555.851 68.5689C607.568 72.3706 668.08 69.0652 720.801 69.0652H1440.41" stroke="url(#paint23_linear_465_483)" stroke-width="1.11052" stroke-miterlimit="10"/>
<path d="M1.28906 46.3857C148.147 45.2995 311.955 25.3828 457.42 38.8947C545.777 47.0973 630.16 46.3857 720.893 46.3857H1440.41" stroke="url(#paint24_linear_465_483)" stroke-width="1.11052" stroke-miterlimit="10"/>
<path d="M1.28906 23.6985C139.193 24.2135 276.708 18.2769 414.749 21.292C516.995 23.5206 618.624 23.6891 721.03 23.6891H1440.41" stroke="url(#paint25_linear_465_483)" stroke-width="1.11052" stroke-miterlimit="10"/>
<path d="M1385.05 1V295.958C1385.05 340.436 1383.61 384.211 1375.91 428.567C1366.48 483.017 1386.92 536.597 1385.05 590.925" stroke="url(#paint26_linear_465_483)" stroke-width="1.11052" stroke-miterlimit="10"/>
<path d="M1329.69 1V295.958C1329.69 316.951 1331.75 338.095 1329.69 359.098C1327.41 382.16 1312.49 403.603 1301.12 426.02C1272.15 483.139 1325.56 534.246 1329.67 590.916" stroke="url(#paint27_linear_465_483)" stroke-width="1.11052" stroke-miterlimit="10"/>
<path d="M1274.35 1V295.958C1274.35 316.745 1278.57 338.329 1273.93 359.041C1268.77 382.198 1242.5 401.684 1222.63 422.968C1167.01 482.558 1261.07 531.924 1274.32 590.916" stroke="url(#paint28_linear_465_483)" stroke-width="1.11052" stroke-miterlimit="10"/>
<path d="M1219 1V295.958C1219 316.483 1225.03 338.647 1218.26 358.995C1210.43 382.619 1174.06 400.195 1146.81 420.271C1110.9 446.78 1108.78 466.34 1134.82 495.003C1163.99 527.242 1207.39 556.373 1218.93 590.916" stroke="url(#paint29_linear_465_483)" stroke-width="1.11052" stroke-miterlimit="10"/>
<path d="M1163.64 1V295.958C1163.64 316.371 1170.33 338.816 1163.09 359.023C1154.37 383.443 1112.08 399.287 1080.19 418.791C982.974 478.317 1143.58 531.156 1163.62 590.916" stroke="url(#paint30_linear_465_483)" stroke-width="1.11052" stroke-miterlimit="10"/>
<path d="M1108.31 1C1108.31 99.5815 1118.06 199.184 1104.11 297.615C1101.12 318.787 1106.07 341.456 1098.85 362.366C1091 385.11 1055.45 402.255 1029.09 421.601C993.159 447.913 990.258 467.37 1018.06 495.733C1049.51 527.739 1095.95 556.148 1108.24 590.897" stroke="url(#paint31_linear_465_483)" stroke-width="1.11052" stroke-miterlimit="10"/>
<path d="M1052.93 1C1052.93 100.434 1074.7 204.689 1035.09 303.009C1017.55 346.56 1011.59 388.397 984.311 431.161C968.115 456.574 964.574 477.53 985.019 502.953C1008.84 532.598 1044.25 559.416 1052.91 590.906" stroke="url(#paint32_linear_465_483)" stroke-width="1.11052" stroke-miterlimit="10"/>
<path d="M997.586 1V162.15C997.586 185.672 999.368 209.325 997.586 232.818C995.599 259.374 978.489 284.543 961.791 310.116C945.298 335.398 925.927 360.952 926.224 387.329C926.43 406.31 935.795 425.028 941.94 443.764C949.387 466.509 946.509 489.769 958.296 512.213C972.276 538.741 994.342 563.508 997.609 590.869" stroke="url(#paint33_linear_465_483)" stroke-width="1.11052" stroke-miterlimit="10"/>
<path d="M942.234 1V162.15C942.234 185.606 945.089 209.409 942.234 232.818C938.693 262.014 912.697 289.366 889.694 316.764C868.245 342.233 831.673 372.946 838.092 400.607C842.934 421.451 875.943 437.809 899.014 455.572C928.139 478.045 925.352 496.379 929.99 520.94C934.421 544.397 943.147 567.3 942.371 590.934" stroke="url(#paint34_linear_465_483)" stroke-width="1.11052" stroke-miterlimit="10"/>
<path d="M886.88 1V162.15C886.88 185.559 889.941 209.437 886.88 232.818C882.86 263.718 851.222 292.306 823.97 320.837C799.665 346.269 752.814 380.335 761.951 408.725C769.535 431.957 818.716 445.881 852.227 462.735C920.231 496.904 889.873 549.519 886.926 590.916" stroke="url(#paint35_linear_465_483)" stroke-width="1.11052" stroke-miterlimit="10"/>
<path d="M831.535 1C831.535 54.7198 826.35 108.898 832.723 162.553C835.602 186.683 841.861 211.094 838.685 235.262C834.711 266.078 802.959 293.458 773.331 321.408C746.765 346.485 699.616 379.033 709.165 407.555C717.023 431.011 765.633 445.01 799.281 462.23C868.518 497.662 832.769 548.667 831.535 590.916" stroke="url(#paint36_linear_465_483)" stroke-width="1.11052" stroke-miterlimit="10"/>
<path d="M776.19 1C776.19 55.4033 763.946 112.429 787.771 166.12C799.489 192.517 819.226 219.877 817.307 246.911C815.32 275.067 780.096 298.533 747.11 322.513C716.318 344.883 671.728 371.046 677.918 398.098C683.012 420.702 722.965 437.425 750.103 455.947C807.782 495.274 777.309 546.99 776.19 590.925" stroke="url(#paint37_linear_465_483)" stroke-width="1.11052" stroke-miterlimit="10"/>
<path d="M720.837 1C720.837 57.8941 706.081 116.783 748.455 171.607C771.024 200.785 808.852 232.621 810.748 263.615C812.278 288.242 770.521 306.324 733.972 324.049C697.423 341.775 656.739 359.631 657.105 384.333C657.448 406.441 686.367 426.47 704.436 446.602C744.571 491.398 721.431 544.041 720.837 590.916" stroke="url(#paint38_linear_465_483)" stroke-width="1.11052" stroke-miterlimit="10"/>
<path d="M665.48 1V87.3337C665.48 122.71 679.186 148.198 713.451 181.299C745.065 211.684 797.445 245.45 803.064 278.775C807.153 302.578 763.431 313.421 720.829 325.594C671.031 339.827 636.309 349.874 636.469 376.758C636.606 396.347 649.558 415.589 657.645 434.813C679.14 485.723 665.549 539.415 665.48 590.916" stroke="url(#paint39_linear_465_483)" stroke-width="1.11052" stroke-miterlimit="10"/>
<path d="M610.128 1V87.3337C610.128 125.201 628.196 150.548 669.657 185.241C707.919 217.246 774.255 254.289 781.588 290.33C786.385 314.152 740.973 319.742 694.647 326.652C637.699 335.145 607.843 340.351 604.805 367.281C602.521 387.535 607.341 408.014 609.374 428.249C614.742 482.352 610.013 536.765 610.196 590.906" stroke="url(#paint40_linear_465_483)" stroke-width="1.11052" stroke-miterlimit="10"/>
<path d="M554.725 1C552.441 29.1661 557.809 57.1169 559.773 85.2737C560.87 100.864 555.753 116.614 565.279 131.858C575.832 148.713 595.683 164.865 613.98 180.428C634.95 198.219 657.588 215.692 678.603 233.483C698.888 250.656 730.594 272.436 733.153 292.063C736.031 314.058 689.408 319.901 645.961 325.866C597.533 332.514 564.388 337.392 557.878 359.435C551.299 381.627 556.416 406.178 555.045 428.726C551.756 482.746 554.748 536.952 554.794 591" stroke="url(#paint41_linear_465_483)" stroke-width="1.11052" stroke-miterlimit="10"/>
<path d="M499.26 1C498.94 29.4939 524.982 53.7647 539.875 81.0132C548.19 96.2199 544.147 111.361 552.073 126.512C560 141.662 573.226 156.157 586.338 170.521C614.275 201.309 664.69 237.444 668.87 270.657C671.429 291.07 634.377 303.608 599.77 316.006C561.873 329.583 535.809 340.239 529.71 361.101C523.702 381.421 517.375 400.607 507.941 420.767C482.516 475.077 499.42 535.848 499.443 590.944" stroke="url(#paint42_linear_465_483)" stroke-width="1.11052" stroke-miterlimit="10"/>
<path d="M444.082 1C453.219 31.5071 504.959 49.036 540.023 74.4305C571.592 97.3061 564.785 127.954 574.014 153.554C583.813 180.709 599.141 208.444 600.146 235.955C600.946 258.559 579.587 279.197 559.508 299.844C539.322 320.275 525.507 341.668 518.391 363.517C511.766 382.835 490.728 392.545 467.405 408.463C435.881 429.934 445.156 455.45 444.973 479.525C444.676 516.661 444.219 553.788 444.151 590.953" stroke="url(#paint43_linear_465_483)" stroke-width="1.11052" stroke-miterlimit="10"/>
<path d="M388.812 1C411.176 33.8199 488.682 45.0096 543.392 67.4357C593.875 88.1202 579.05 109.938 564.225 135.37C551.981 156.363 534.529 177.385 530.531 199.043C525.323 226.816 525.757 254.823 520.137 282.671C516.848 298.917 513.284 315.163 511.366 331.446C510.109 342.224 515.683 355.577 509.835 366.167C498.916 385.99 463.943 386.337 427.897 395.429C372.114 409.474 390.297 440.281 390.046 463.297C389.612 505.846 388.927 548.386 388.744 590.934" stroke="url(#paint44_linear_465_483)" stroke-width="1.11052" stroke-miterlimit="10"/>
<path d="M333.477 1C365.069 35.805 465.739 42.2005 533.811 61.986C596.47 80.1704 586.739 100.05 544.456 121.83C514.509 137.252 472.478 150.024 463.911 170.755C459.114 182.338 466.196 197.91 467.932 209.362L477.069 269.543L486.206 329.733C487.805 340.192 498.793 357.712 490.546 368.218C474.556 388.631 424.142 381.814 384.326 385.222C311.411 391.459 335.556 427.003 335.259 450.6C334.688 497.363 333.82 544.125 333.569 590.897" stroke="url(#paint45_linear_465_483)" stroke-width="1.11052" stroke-miterlimit="10"/>
<path d="M278.071 1C308.91 37.144 421.663 41.4701 493.231 60.2257C557.42 77.0804 553.445 99.4785 500.815 118.374C462.826 131.999 413.645 139.302 403.823 162.113C398.866 173.621 405.993 189.745 408.391 201C412.96 222.584 419.059 244.073 424.793 265.61C430.526 287.147 436.58 308.683 441.194 330.22C443.478 340.52 454.352 358.442 445.763 368.92C428.173 390.166 372.665 380.157 331.547 381.88C254.36 385.157 280.219 422.687 279.922 446.443C279.282 494.572 278.345 542.702 278.071 590.841" stroke="url(#paint46_linear_465_483)" stroke-width="1.11052" stroke-miterlimit="10"/>
<path d="M222.867 1C261.975 46.5921 544.818 63.9805 416.211 123.852C383.523 139.068 341.103 149.593 332.628 171.317C320.567 202.217 343.113 238.933 350.606 269.561C355.517 289.6 360.657 309.629 364.609 329.705C366.733 340.389 376.259 356.729 368.446 367.544C353.872 387.694 309.283 383.322 270.015 388.472C202.217 397.358 224.626 431.386 224.329 454.645C223.781 500.059 222.981 545.473 222.73 590.897" stroke="url(#paint47_linear_465_483)" stroke-width="1.11052" stroke-miterlimit="10"/>
<path d="M167.368 1C184.752 33.0053 252.733 46.4048 300.566 69.9827C343.443 91.1166 335.493 112.513 305.569 134.911C281.583 152.871 250.745 167.618 245.56 188.921C238.57 217.621 252.733 248.596 258.512 277.127C264.086 304.601 282.748 337.758 271.395 365.193C263.309 384.745 232.676 388.472 200.742 400.158C153.708 417.377 168.761 445.928 168.464 469.196C168.076 509.769 167.482 550.343 167.322 590.925" stroke="url(#paint48_linear_465_483)" stroke-width="1.11052" stroke-miterlimit="10"/>
<path d="M111.932 1C116.82 30.6175 158.737 50.7964 185.806 77.0429C209.495 100.003 202.825 124.199 187.405 147.58C173.7 168.18 155.973 187.282 153.963 208.969C151.679 234.485 157.732 260.329 161.296 285.751C164.859 311.174 172.352 337.196 168.651 362.534C165.75 382.104 146.608 395.86 129.201 413.36C106.358 436.47 112.663 461.115 112.526 485.63C112.297 520.734 111.932 555.858 111.886 590.934" stroke="url(#paint49_linear_465_483)" stroke-width="1.11052" stroke-miterlimit="10"/>
<path d="M56.5491 1C54.4703 29.1849 71.7626 55.3097 80.6257 82.9796C88.5066 107.503 85.1943 133.356 79.8947 157.983C70.392 203.238 68.4732 247.454 71.3971 292.896C74.1839 337.449 72.7905 380.203 61.0035 424.438C46.4295 479.075 56.5947 536.035 56.6404 590.916" stroke="url(#paint50_linear_465_483)" stroke-width="1.11052" stroke-miterlimit="10"/>
</g>
<defs>
<linearGradient id="paint0_linear_465_483" x1="720.575" y1="1" x2="720.575" y2="590.967" gradientUnits="userSpaceOnUse">
<stop stop-color="#CBFA11" stop-opacity="0"/>
<stop offset="0.484375" stop-color="#CBFA11"/>
<stop offset="1" stop-color="#CBFA11" stop-opacity="0"/>
</linearGradient>
<linearGradient id="paint1_linear_465_483" x1="720.824" y1="561.064" x2="720.824" y2="570.504" gradientUnits="userSpaceOnUse">
<stop stop-color="#CBFA11" stop-opacity="0"/>
<stop offset="0.484375" stop-color="#CBFA11"/>
<stop offset="1" stop-color="#CBFA11" stop-opacity="0"/>
</linearGradient>
<linearGradient id="paint2_linear_465_483" x1="720.859" y1="521.061" x2="720.859" y2="552.667" gradientUnits="userSpaceOnUse">
<stop stop-color="#CBFA11" stop-opacity="0"/>
<stop offset="0.484375" stop-color="#CBFA11"/>
<stop offset="1" stop-color="#CBFA11" stop-opacity="0"/>
</linearGradient>
<linearGradient id="paint3_linear_465_483" x1="720.744" y1="478.272" x2="720.744" y2="539.161" gradientUnits="userSpaceOnUse">
<stop stop-color="#CBFA11" stop-opacity="0"/>
<stop offset="0.484375" stop-color="#CBFA11"/>
<stop offset="1" stop-color="#CBFA11" stop-opacity="0"/>
</linearGradient>
<linearGradient id="paint4_linear_465_483" x1="720.824" y1="437.697" x2="720.824" y2="523.04" gradientUnits="userSpaceOnUse">
<stop stop-color="#CBFA11" stop-opacity="0"/>
<stop offset="0.484375" stop-color="#CBFA11"/>
<stop offset="1" stop-color="#CBFA11" stop-opacity="0"/>
</linearGradient>
<linearGradient id="paint5_linear_465_483" x1="720.836" y1="405.386" x2="720.836" y2="503.882" gradientUnits="userSpaceOnUse">
<stop stop-color="#CBFA11" stop-opacity="0"/>
<stop offset="0.484375" stop-color="#CBFA11"/>
<stop offset="1" stop-color="#CBFA11" stop-opacity="0"/>
</linearGradient>
<linearGradient id="paint6_linear_465_483" x1="720.893" y1="388.234" x2="720.893" y2="482.925" gradientUnits="userSpaceOnUse">
<stop stop-color="#CBFA11" stop-opacity="0"/>
<stop offset="0.484375" stop-color="#CBFA11"/>
<stop offset="1" stop-color="#CBFA11" stop-opacity="0"/>
</linearGradient>
<linearGradient id="paint7_linear_465_483" x1="720.824" y1="384.167" x2="720.824" y2="465.197" gradientUnits="userSpaceOnUse">
<stop stop-color="#CBFA11" stop-opacity="0"/>
<stop offset="0.484375" stop-color="#CBFA11"/>
<stop offset="1" stop-color="#CBFA11" stop-opacity="0"/>
</linearGradient>
<linearGradient id="paint8_linear_465_483" x1="720.836" y1="382.689" x2="720.836" y2="449.161" gradientUnits="userSpaceOnUse">
<stop stop-color="#CBFA11" stop-opacity="0"/>
<stop offset="0.484375" stop-color="#CBFA11"/>
<stop offset="1" stop-color="#CBFA11" stop-opacity="0"/>
</linearGradient>
<linearGradient id="paint9_linear_465_483" x1="720.847" y1="380.911" x2="720.847" y2="432.829" gradientUnits="userSpaceOnUse">
<stop stop-color="#CBFA11" stop-opacity="0"/>
<stop offset="0.484375" stop-color="#CBFA11"/>
<stop offset="1" stop-color="#CBFA11" stop-opacity="0"/>
</linearGradient>
<linearGradient id="paint10_linear_465_483" x1="720.87" y1="363.261" x2="720.87" y2="414.004" gradientUnits="userSpaceOnUse">
<stop stop-color="#CBFA11" stop-opacity="0"/>
<stop offset="0.484375" stop-color="#CBFA11"/>
<stop offset="1" stop-color="#CBFA11" stop-opacity="0"/>
</linearGradient>
<linearGradient id="paint11_linear_465_483" x1="720.847" y1="340.761" x2="720.847" y2="389.76" gradientUnits="userSpaceOnUse">
<stop stop-color="#CBFA11" stop-opacity="0"/>
<stop offset="0.484375" stop-color="#CBFA11"/>
<stop offset="1" stop-color="#CBFA11" stop-opacity="0"/>
</linearGradient>
<linearGradient id="paint12_linear_465_483" x1="720.847" y1="308.987" x2="720.847" y2="356.993" gradientUnits="userSpaceOnUse">
<stop stop-color="#CBFA11" stop-opacity="0"/>
<stop offset="0.484375" stop-color="#CBFA11"/>
<stop offset="1" stop-color="#CBFA11" stop-opacity="0"/>
</linearGradient>
<linearGradient id="paint13_linear_465_483" x1="720.847" y1="266.261" x2="720.847" y2="327.215" gradientUnits="userSpaceOnUse">
<stop stop-color="#CBFA11" stop-opacity="0"/>
<stop offset="0.484375" stop-color="#CBFA11"/>
<stop offset="1" stop-color="#CBFA11" stop-opacity="0"/>
</linearGradient>
<linearGradient id="paint14_linear_465_483" x1="720.847" y1="221.245" x2="720.847" y2="321.115" gradientUnits="userSpaceOnUse">
<stop stop-color="#CBFA11" stop-opacity="0"/>
<stop offset="0.484375" stop-color="#CBFA11"/>
<stop offset="1" stop-color="#CBFA11" stop-opacity="0"/>
</linearGradient>
<linearGradient id="paint15_linear_465_483" x1="720.859" y1="183.454" x2="720.859" y2="308.381" gradientUnits="userSpaceOnUse">
<stop stop-color="#CBFA11" stop-opacity="0"/>
<stop offset="0.484375" stop-color="#CBFA11"/>
<stop offset="1" stop-color="#CBFA11" stop-opacity="0"/>
</linearGradient>
<linearGradient id="paint16_linear_465_483" x1="720.847" y1="158.219" x2="720.847" y2="287.279" gradientUnits="userSpaceOnUse">
<stop stop-color="#CBFA11" stop-opacity="0"/>
<stop offset="0.484375" stop-color="#CBFA11"/>
<stop offset="1" stop-color="#CBFA11" stop-opacity="0"/>
</linearGradient>
<linearGradient id="paint17_linear_465_483" x1="720.847" y1="141.716" x2="720.847" y2="254.265" gradientUnits="userSpaceOnUse">
<stop stop-color="#CBFA11" stop-opacity="0"/>
<stop offset="0.484375" stop-color="#CBFA11"/>
<stop offset="1" stop-color="#CBFA11" stop-opacity="0"/>
</linearGradient>
<linearGradient id="paint18_linear_465_483" x1="720.847" y1="129.901" x2="720.847" y2="217.394" gradientUnits="userSpaceOnUse">
<stop stop-color="#CBFA11" stop-opacity="0"/>
<stop offset="0.484375" stop-color="#CBFA11"/>
<stop offset="1" stop-color="#CBFA11" stop-opacity="0"/>
</linearGradient>
<linearGradient id="paint19_linear_465_483" x1="720.847" y1="116.664" x2="720.847" y2="178.701" gradientUnits="userSpaceOnUse">
<stop stop-color="#CBFA11" stop-opacity="0"/>
<stop offset="0.484375" stop-color="#CBFA11"/>
<stop offset="1" stop-color="#CBFA11" stop-opacity="0"/>
</linearGradient>
<linearGradient id="paint20_linear_465_483" x1="720.813" y1="101.114" x2="720.813" y2="143.681" gradientUnits="userSpaceOnUse">
<stop stop-color="#CBFA11" stop-opacity="0"/>
<stop offset="0.484375" stop-color="#CBFA11"/>
<stop offset="1" stop-color="#CBFA11" stop-opacity="0"/>
</linearGradient>
<linearGradient id="paint21_linear_465_483" x1="720.847" y1="82.043" x2="720.847" y2="116.022" gradientUnits="userSpaceOnUse">
<stop stop-color="#CBFA11" stop-opacity="0"/>
<stop offset="0.484375" stop-color="#CBFA11"/>
<stop offset="1" stop-color="#CBFA11" stop-opacity="0"/>
</linearGradient>
<linearGradient id="paint22_linear_465_483" x1="720.896" y1="62.918" x2="720.896" y2="93.8948" gradientUnits="userSpaceOnUse">
<stop stop-color="#CBFA11" stop-opacity="0"/>
<stop offset="0.484375" stop-color="#CBFA11"/>
<stop offset="1" stop-color="#CBFA11" stop-opacity="0"/>
</linearGradient>
<linearGradient id="paint23_linear_465_483" x1="720.847" y1="48.6719" x2="720.847" y2="70.3975" gradientUnits="userSpaceOnUse">
<stop stop-color="#CBFA11" stop-opacity="0"/>
<stop offset="0.484375" stop-color="#CBFA11"/>
<stop offset="1" stop-color="#CBFA11" stop-opacity="0"/>
</linearGradient>
<linearGradient id="paint24_linear_465_483" x1="720.847" y1="34.2119" x2="720.847" y2="46.4012" gradientUnits="userSpaceOnUse">
<stop stop-color="#CBFA11" stop-opacity="0"/>
<stop offset="0.484375" stop-color="#CBFA11"/>
<stop offset="1" stop-color="#CBFA11" stop-opacity="0"/>
</linearGradient>
<linearGradient id="paint25_linear_465_483" x1="720.847" y1="20.4336" x2="720.847" y2="23.7304" gradientUnits="userSpaceOnUse">
<stop stop-color="#CBFA11" stop-opacity="0"/>
<stop offset="0.484375" stop-color="#CBFA11"/>
<stop offset="1" stop-color="#CBFA11" stop-opacity="0"/>
</linearGradient>
<linearGradient id="paint26_linear_465_483" x1="1379.29" y1="1" x2="1379.29" y2="590.925" gradientUnits="userSpaceOnUse">
<stop stop-color="#CBFA11" stop-opacity="0"/>
<stop offset="0.484375" stop-color="#CBFA11"/>
<stop offset="1" stop-color="#CBFA11" stop-opacity="0"/>
</linearGradient>
<linearGradient id="paint27_linear_465_483" x1="1311.58" y1="1" x2="1311.58" y2="590.916" gradientUnits="userSpaceOnUse">
<stop stop-color="#CBFA11" stop-opacity="0"/>
<stop offset="0.484375" stop-color="#CBFA11"/>
<stop offset="1" stop-color="#CBFA11" stop-opacity="0"/>
</linearGradient>
<linearGradient id="paint28_linear_465_483" x1="1240.65" y1="1" x2="1240.65" y2="590.916" gradientUnits="userSpaceOnUse">
<stop stop-color="#CBFA11" stop-opacity="0"/>
<stop offset="0.484375" stop-color="#CBFA11"/>
<stop offset="1" stop-color="#CBFA11" stop-opacity="0"/>
</linearGradient>
<linearGradient id="paint29_linear_465_483" x1="1169.38" y1="1" x2="1169.38" y2="590.916" gradientUnits="userSpaceOnUse">
<stop stop-color="#CBFA11" stop-opacity="0"/>
<stop offset="0.484375" stop-color="#CBFA11"/>
<stop offset="1" stop-color="#CBFA11" stop-opacity="0"/>
</linearGradient>
<linearGradient id="paint30_linear_465_483" x1="1107.82" y1="1" x2="1107.82" y2="590.916" gradientUnits="userSpaceOnUse">
<stop stop-color="#CBFA11" stop-opacity="0"/>
<stop offset="0.484375" stop-color="#CBFA11"/>
<stop offset="1" stop-color="#CBFA11" stop-opacity="0"/>
</linearGradient>
<linearGradient id="paint31_linear_465_483" x1="1055.51" y1="1" x2="1055.51" y2="590.897" gradientUnits="userSpaceOnUse">
<stop stop-color="#CBFA11" stop-opacity="0"/>
<stop offset="0.484375" stop-color="#CBFA11"/>
<stop offset="1" stop-color="#CBFA11" stop-opacity="0"/>
</linearGradient>
<linearGradient id="paint32_linear_465_483" x1="1014.9" y1="1" x2="1014.9" y2="590.906" gradientUnits="userSpaceOnUse">
<stop stop-color="#CBFA11" stop-opacity="0"/>
<stop offset="0.484375" stop-color="#CBFA11"/>
<stop offset="1" stop-color="#CBFA11" stop-opacity="0"/>
</linearGradient>
<linearGradient id="paint33_linear_465_483" x1="962.299" y1="1" x2="962.299" y2="590.869" gradientUnits="userSpaceOnUse">
<stop stop-color="#CBFA11" stop-opacity="0"/>
<stop offset="0.484375" stop-color="#CBFA11"/>
<stop offset="1" stop-color="#CBFA11" stop-opacity="0"/>
</linearGradient>
<linearGradient id="paint34_linear_465_483" x1="890.425" y1="1" x2="890.425" y2="590.934" gradientUnits="userSpaceOnUse">
<stop stop-color="#CBFA11" stop-opacity="0"/>
<stop offset="0.484375" stop-color="#CBFA11"/>
<stop offset="1" stop-color="#CBFA11" stop-opacity="0"/>
</linearGradient>
<linearGradient id="paint35_linear_465_483" x1="828.497" y1="1" x2="828.497" y2="590.916" gradientUnits="userSpaceOnUse">
<stop stop-color="#CBFA11" stop-opacity="0"/>
<stop offset="0.484375" stop-color="#CBFA11"/>
<stop offset="1" stop-color="#CBFA11" stop-opacity="0"/>
</linearGradient>
<linearGradient id="paint36_linear_465_483" x1="774.88" y1="1" x2="774.88" y2="590.916" gradientUnits="userSpaceOnUse">
<stop stop-color="#CBFA11" stop-opacity="0"/>
<stop offset="0.484375" stop-color="#CBFA11"/>
<stop offset="1" stop-color="#CBFA11" stop-opacity="0"/>
</linearGradient>
<linearGradient id="paint37_linear_465_483" x1="747.387" y1="1" x2="747.387" y2="590.925" gradientUnits="userSpaceOnUse">
<stop stop-color="#CBFA11" stop-opacity="0"/>
<stop offset="0.484375" stop-color="#CBFA11"/>
<stop offset="1" stop-color="#CBFA11" stop-opacity="0"/>
</linearGradient>
<linearGradient id="paint38_linear_465_483" x1="733.946" y1="1" x2="733.946" y2="590.916" gradientUnits="userSpaceOnUse">
<stop stop-color="#CBFA11" stop-opacity="0"/>
<stop offset="0.484375" stop-color="#CBFA11"/>
<stop offset="1" stop-color="#CBFA11" stop-opacity="0"/>
</linearGradient>
<linearGradient id="paint39_linear_465_483" x1="719.9" y1="1" x2="719.9" y2="590.916" gradientUnits="userSpaceOnUse">
<stop stop-color="#CBFA11" stop-opacity="0"/>
<stop offset="0.484375" stop-color="#CBFA11"/>
<stop offset="1" stop-color="#CBFA11" stop-opacity="0"/>
</linearGradient>
<linearGradient id="paint40_linear_465_483" x1="693.071" y1="1" x2="693.071" y2="590.906" gradientUnits="userSpaceOnUse">
<stop stop-color="#CBFA11" stop-opacity="0"/>
<stop offset="0.484375" stop-color="#CBFA11"/>
<stop offset="1" stop-color="#CBFA11" stop-opacity="0"/>
</linearGradient>
<linearGradient id="paint41_linear_465_483" x1="643.392" y1="1" x2="643.392" y2="591" gradientUnits="userSpaceOnUse">
<stop stop-color="#CBFA11" stop-opacity="0"/>
<stop offset="0.484375" stop-color="#CBFA11"/>
<stop offset="1" stop-color="#CBFA11" stop-opacity="0"/>
</linearGradient>
<linearGradient id="paint42_linear_465_483" x1="581.455" y1="1" x2="581.455" y2="590.944" gradientUnits="userSpaceOnUse">
<stop stop-color="#CBFA11" stop-opacity="0"/>
<stop offset="0.484375" stop-color="#CBFA11"/>
<stop offset="1" stop-color="#CBFA11" stop-opacity="0"/>
</linearGradient>
<linearGradient id="paint43_linear_465_483" x1="522.002" y1="1" x2="522.002" y2="590.953" gradientUnits="userSpaceOnUse">
<stop stop-color="#CBFA11" stop-opacity="0"/>
<stop offset="0.484375" stop-color="#CBFA11"/>
<stop offset="1" stop-color="#CBFA11" stop-opacity="0"/>
</linearGradient>
<linearGradient id="paint44_linear_465_483" x1="482.88" y1="1" x2="482.88" y2="590.934" gradientUnits="userSpaceOnUse">
<stop stop-color="#CBFA11" stop-opacity="0"/>
<stop offset="0.484375" stop-color="#CBFA11"/>
<stop offset="1" stop-color="#CBFA11" stop-opacity="0"/>
</linearGradient>
<linearGradient id="paint45_linear_465_483" x1="455.073" y1="1" x2="455.073" y2="590.897" gradientUnits="userSpaceOnUse">
<stop stop-color="#CBFA11" stop-opacity="0"/>
<stop offset="0.484375" stop-color="#CBFA11"/>
<stop offset="1" stop-color="#CBFA11" stop-opacity="0"/>
</linearGradient>
<linearGradient id="paint46_linear_465_483" x1="408.416" y1="1" x2="408.416" y2="590.841" gradientUnits="userSpaceOnUse">
<stop stop-color="#CBFA11" stop-opacity="0"/>
<stop offset="0.484375" stop-color="#CBFA11"/>
<stop offset="1" stop-color="#CBFA11" stop-opacity="0"/>
</linearGradient>
<linearGradient id="paint47_linear_465_483" x1="335.253" y1="1" x2="335.253" y2="590.897" gradientUnits="userSpaceOnUse">
<stop stop-color="#CBFA11" stop-opacity="0"/>
<stop offset="0.484375" stop-color="#CBFA11"/>
<stop offset="1" stop-color="#CBFA11" stop-opacity="0"/>
</linearGradient>
<linearGradient id="paint48_linear_465_483" x1="248.39" y1="1" x2="248.39" y2="590.925" gradientUnits="userSpaceOnUse">
<stop stop-color="#CBFA11" stop-opacity="0"/>
<stop offset="0.484375" stop-color="#CBFA11"/>
<stop offset="1" stop-color="#CBFA11" stop-opacity="0"/>
</linearGradient>
<linearGradient id="paint49_linear_465_483" x1="156.58" y1="1" x2="156.58" y2="590.934" gradientUnits="userSpaceOnUse">
<stop stop-color="#CBFA11" stop-opacity="0"/>
<stop offset="0.484375" stop-color="#CBFA11"/>
<stop offset="1" stop-color="#CBFA11" stop-opacity="0"/>
</linearGradient>
<linearGradient id="paint50_linear_465_483" x1="69.2324" y1="1" x2="69.2324" y2="590.916" gradientUnits="userSpaceOnUse">
<stop stop-color="#CBFA11" stop-opacity="0"/>
<stop offset="0.484375" stop-color="#CBFA11"/>
<stop offset="1" stop-color="#CBFA11" stop-opacity="0"/>
</linearGradient>
</defs>
</svg>
