<svg width="120" height="175" viewBox="0 0 120 175" fill="none" xmlns="http://www.w3.org/2000/svg">
<path d="M0 0H120V175L60 155L0 175V0Z" fill="#CBFA11"/>
<path d="M30.84 114.648V113.184H33.96V113.856L34.488 114.408H38.376L38.904 113.856V112.824L38.352 112.248H33.192L30.936 109.968V107.352L33.216 105.048H39.456L41.784 107.4V108.864H38.664V108.192L38.136 107.64H34.584L34.056 108.192V109.128L34.608 109.704H39.768L42.024 111.984V114.696L39.744 117H33.168L30.84 114.648ZM44.3072 99.864H47.4752V109.44H49.5632L52.6112 105.048H56.1152L52.1312 110.808L56.3552 117H52.8512L49.4912 112.128H47.4752V117H44.3072V99.864ZM57.8044 102.552V101.016L58.9084 99.912H60.5884L61.6924 101.016V102.552L60.5884 103.656H58.9084L57.8044 102.552ZM58.1644 105.048H61.3324V117H58.1644V105.048ZM64.5834 99.864H67.7514V117H64.5834V99.864ZM70.8647 99.864H74.0327V117H70.8647V99.864ZM76.4259 114.648V113.184H79.5459V113.856L80.0739 114.408H83.9619L84.4899 113.856V112.824L83.9379 112.248H78.7779L76.5219 109.968V107.352L78.8019 105.048H85.0419L87.3699 107.4V108.864H84.2499V108.192L83.7219 107.64H80.1699L79.6419 108.192V109.128L80.1939 109.704H85.3539L87.6099 111.984V114.696L85.3299 117H78.7539L76.4259 114.648Z" fill="#282835"/>
<path d="M36.8022 66.2H47.3382L49.9062 68.792V74.672L47.3142 77.288H40.0662V83H36.8022V66.2ZM45.8502 74.552L46.6902 73.712V69.776L45.8502 68.936H40.0662V74.552H45.8502ZM65.5178 77.432V83H62.2538V78.176L60.8138 76.568H55.5818V83H52.3178V66.2H62.8538L65.4218 68.792V73.88L63.7898 75.536L65.5178 77.432ZM55.5818 73.88H61.3658L62.2058 73.04V69.776L61.3658 68.936H55.5818V73.88ZM68.2731 80.24V68.96L71.0331 66.2H79.6731L82.4331 68.96V80.24L79.6731 83H71.0331L68.2731 80.24ZM77.9451 80.216L79.1691 78.992V70.208L77.9451 68.984H72.7611L71.5371 70.208V78.992L72.7611 80.216H77.9451Z" fill="#282835"/>
</svg>
