<svg width="27" height="23" viewBox="0 0 27 23" fill="none" xmlns="http://www.w3.org/2000/svg">
<path d="M23.0449 11.8354H20.402C20.0423 11.8354 19.694 11.8846 19.3626 11.975C18.7088 10.6897 17.374 9.80664 15.8359 9.80664H11.1641C9.62603 9.80664 8.29121 10.6897 7.63741 11.975C7.30598 11.8846 6.95772 11.8354 6.59802 11.8354H3.95508C1.77425 11.8354 0 13.6097 0 15.7905V20.0155C0 21.324 1.06455 22.3885 2.37305 22.3885H24.627C25.9355 22.3885 27 21.324 27 20.0155V15.7905C27 13.6097 25.2258 11.8354 23.0449 11.8354ZM7.20905 13.7618V20.8066H2.37305C1.93688 20.8066 1.58203 20.4517 1.58203 20.0155V15.7906C1.58203 14.4821 2.64658 13.4175 3.95508 13.4175H6.59802C6.81275 13.4175 7.02069 13.4467 7.21865 13.5004C7.21295 13.587 7.20905 13.674 7.20905 13.7618ZM18.2089 20.8066H8.79108V13.7618C8.79108 12.4533 9.85563 11.3887 11.1641 11.3887H15.8359C17.1444 11.3887 18.2089 12.4533 18.2089 13.7618V20.8066ZM25.418 20.0155C25.418 20.4517 25.0631 20.8066 24.627 20.8066H19.7909V13.7618C19.7909 13.6739 19.787 13.5869 19.7813 13.5004C19.9793 13.4467 20.1872 13.4175 20.402 13.4175H23.0449C24.3534 13.4175 25.418 14.482 25.418 15.7905V20.0155Z" fill="#CBFA11"/>
<path d="M5.27723 4.36523C3.33929 4.36523 1.7627 5.94183 1.7627 7.87977C1.76264 9.8177 3.33929 11.3943 5.27723 11.3943C7.21511 11.3943 8.79177 9.8177 8.79177 7.87977C8.79177 5.94183 7.21517 4.36523 5.27723 4.36523ZM5.27718 9.81227C4.21157 9.81227 3.34467 8.94537 3.34467 7.87977C3.34467 6.81417 4.21157 5.94727 5.27718 5.94727C6.34278 5.94727 7.20968 6.81417 7.20968 7.87977C7.20968 8.94537 6.34278 9.81227 5.27718 9.81227Z" fill="#CBFA11"/>
<path d="M13.5001 0C10.911 0 8.80469 2.10632 8.80469 4.69536C8.80469 7.28441 10.911 9.39073 13.5001 9.39073C16.0891 9.39073 18.1954 7.28441 18.1954 4.69536C18.1954 2.10637 16.0891 0 13.5001 0ZM13.5001 7.80869C11.7833 7.80869 10.3867 6.41208 10.3867 4.69536C10.3867 2.9787 11.7833 1.58203 13.5001 1.58203C15.2168 1.58203 16.6134 2.97865 16.6134 4.69536C16.6134 6.41208 15.2168 7.80869 13.5001 7.80869Z" fill="#CBFA11"/>
<path d="M21.7235 4.36523C19.7856 4.36523 18.209 5.94183 18.209 7.87977C18.209 9.8177 19.7856 11.3943 21.7235 11.3943C23.6615 11.3943 25.2381 9.8177 25.2381 7.87977C25.2381 5.94183 23.6615 4.36523 21.7235 4.36523ZM21.7235 9.81227C20.658 9.81227 19.791 8.94537 19.791 7.87977C19.7911 6.81417 20.658 5.94727 21.7235 5.94727C22.7891 5.94727 23.656 6.81417 23.656 7.87977C23.656 8.94537 22.7891 9.81227 21.7235 9.81227Z" fill="#CBFA11"/>
</svg>
