<svg width="27" height="28" viewBox="0 0 27 28" fill="none" xmlns="http://www.w3.org/2000/svg">
<path d="M10.2603 16.7399L5.29395 14.5647V14.5373L10.2603 12.3621V10.9121L3.69336 13.9627V15.1393L10.2603 18.1899V16.7399Z" fill="#CBFA11"/>
<path d="M15.5829 8.81836H14.2012L11.2734 18.7375H12.6551L15.5829 8.81836Z" fill="#CBFA11"/>
<path d="M22.9439 13.9222L16.377 10.9121V12.3621L21.453 14.5377V14.5651L16.377 16.7403V18.1903L22.9439 15.1802V13.9222Z" fill="#CBFA11"/>
<path d="M13.5 27.9375C20.9558 27.9375 27 21.8933 27 14.4375C27 6.9817 20.9558 0.9375 13.5 0.9375C6.0442 0.9375 0 6.9817 0 14.4375C0 21.8933 6.0442 27.9375 13.5 27.9375ZM13.5 1.78125C20.4787 1.78125 26.1562 7.45884 26.1562 14.4375C26.1562 21.4162 20.4787 27.0938 13.5 27.0938C6.52134 27.0938 0.84375 21.4162 0.84375 14.4375C0.84375 7.45884 6.52134 1.78125 13.5 1.78125Z" fill="#CBFA11"/>
</svg>
