<svg width="24" height="27" viewBox="0 0 24 27" fill="none" xmlns="http://www.w3.org/2000/svg">
<path d="M11.6384 2.7931C11.5149 2.7931 11.3965 2.74406 11.3092 2.65676C11.2219 2.56946 11.1729 2.45105 11.1729 2.32759V0.465517C11.1729 0.342054 11.2219 0.223648 11.3092 0.136347C11.3965 0.0490454 11.5149 0 11.6384 0C11.7618 0 11.8802 0.0490454 11.9675 0.136347C12.0548 0.223648 12.1039 0.342054 12.1039 0.465517V2.32759C12.1039 2.45105 12.0548 2.56946 11.9675 2.65676C11.8802 2.74406 11.7618 2.7931 11.6384 2.7931Z" fill="#CBFA11"/>
<path d="M6.98279 4.0404C6.901 4.04048 6.82063 4.01901 6.74977 3.97815C6.67892 3.93729 6.62008 3.87848 6.57919 3.80764L5.64815 2.19509C5.6171 2.14213 5.59684 2.08355 5.58852 2.02272C5.5802 1.96189 5.584 1.90002 5.59969 1.84067C5.61538 1.78132 5.64266 1.72565 5.67995 1.67689C5.71724 1.62812 5.76381 1.58721 5.81698 1.55651C5.87015 1.52581 5.92886 1.50594 5.98974 1.49802C6.05062 1.49011 6.11247 1.49432 6.17172 1.5104C6.23096 1.52649 6.28644 1.55413 6.33496 1.59175C6.38348 1.62936 6.42408 1.6762 6.45443 1.72957L7.38546 3.34213C7.4263 3.41286 7.44781 3.49309 7.44783 3.57476C7.44785 3.65644 7.42638 3.73668 7.38558 3.80744C7.34478 3.87819 7.28608 3.93696 7.21538 3.97785C7.14468 4.01875 7.06446 4.04032 6.98279 4.0404Z" fill="#CBFA11"/>
<path d="M3.57464 7.44842C3.4929 7.44859 3.41258 7.42706 3.34188 7.38604L1.72886 6.455C1.62282 6.39283 1.54566 6.29124 1.51424 6.1724C1.48282 6.05355 1.49969 5.9271 1.56115 5.82065C1.62262 5.71419 1.72369 5.63636 1.84233 5.60415C1.96096 5.57195 2.08752 5.58797 2.19438 5.64873L3.8074 6.57976C3.89614 6.631 3.9655 6.71009 4.00471 6.80477C4.04392 6.89944 4.0508 7.0044 4.02428 7.10339C3.99775 7.20237 3.93931 7.28983 3.85802 7.35221C3.77672 7.4146 3.67711 7.44841 3.57464 7.44842Z" fill="#CBFA11"/>
<path d="M2.32759 12.1039H0.465517C0.342054 12.1039 0.223648 12.0548 0.136347 11.9675C0.0490455 11.8802 0 11.7618 0 11.6384C0 11.5149 0.0490455 11.3965 0.136347 11.3092C0.223648 11.2219 0.342054 11.1729 0.465517 11.1729H2.32759C2.45105 11.1729 2.56946 11.2219 2.65676 11.3092C2.74406 11.3965 2.7931 11.5149 2.7931 11.6384C2.7931 11.7618 2.74406 11.8802 2.65676 11.9675C2.56946 12.0548 2.45105 12.1039 2.32759 12.1039Z" fill="#CBFA11"/>
<path d="M1.96257 17.6898C1.86009 17.6898 1.76049 17.656 1.67919 17.5936C1.5979 17.5312 1.53946 17.4437 1.51293 17.3448C1.48641 17.2458 1.49329 17.1408 1.5325 17.0461C1.57171 16.9515 1.64107 16.8724 1.72981 16.8211L3.34283 15.8901C3.39579 15.859 3.45437 15.8388 3.5152 15.8305C3.57602 15.8221 3.63789 15.8259 3.69725 15.8416C3.7566 15.8573 3.81226 15.8846 3.86103 15.9219C3.9098 15.9592 3.95071 16.0058 3.98141 16.0589C4.0121 16.1121 4.03198 16.1708 4.03989 16.2317C4.04781 16.2926 4.0436 16.3544 4.02751 16.4137C4.01143 16.4729 3.98378 16.5284 3.94617 16.5769C3.90855 16.6254 3.86171 16.666 3.80834 16.6964L2.19533 17.6274C2.12463 17.6684 2.04431 17.69 1.96257 17.6898Z" fill="#CBFA11"/>
<path d="M21.3136 17.6898C21.2319 17.69 21.1516 17.6684 21.0809 17.6274L19.4679 16.6964C19.4145 16.666 19.3676 16.6254 19.33 16.5769C19.2924 16.5284 19.2648 16.4729 19.2487 16.4137C19.2326 16.3544 19.2284 16.2926 19.2363 16.2317C19.2442 16.1708 19.2641 16.1121 19.2948 16.0589C19.3255 16.0058 19.3664 15.9592 19.4152 15.9219C19.4639 15.8846 19.5196 15.8573 19.579 15.8416C19.6383 15.8259 19.7002 15.8221 19.761 15.8305C19.8218 15.8388 19.8804 15.859 19.9334 15.8901L21.5464 16.8211C21.6351 16.8724 21.7045 16.9515 21.7437 17.0461C21.7829 17.1408 21.7898 17.2458 21.7633 17.3448C21.7367 17.4437 21.6783 17.5312 21.597 17.5936C21.5157 17.656 21.4161 17.6898 21.3136 17.6898Z" fill="#CBFA11"/>
<path d="M22.81 12.1029H20.9479C20.8245 12.1029 20.7061 12.0539 20.6188 11.9666C20.5315 11.8793 20.4824 11.7609 20.4824 11.6374C20.4824 11.5139 20.5315 11.3955 20.6188 11.3082C20.7061 11.2209 20.8245 11.1719 20.9479 11.1719H22.81C22.9335 11.1719 23.0519 11.2209 23.1392 11.3082C23.2265 11.3955 23.2755 11.5139 23.2755 11.6374C23.2755 11.7609 23.2265 11.8793 23.1392 11.9666C23.0519 12.0539 22.9335 12.1029 22.81 12.1029Z" fill="#CBFA11"/>
<path d="M19.0862 11.1729H16.7586C16.7586 10.679 16.5624 10.2054 16.2132 9.8562C15.864 9.507 15.3904 9.31082 14.8965 9.31082C14.4026 9.31082 13.929 9.507 13.5798 9.8562C13.2306 10.2054 13.0344 10.679 13.0344 11.1729H12.1034V9.69068C12.1033 9.61625 12.0854 9.54293 12.0512 9.47686C12.0169 9.41079 11.9673 9.35389 11.9065 9.31094C11.8458 9.26799 11.7756 9.24024 11.7018 9.23001C11.6281 9.21978 11.553 9.22738 11.4829 9.25216C11.342 9.30466 11.1906 9.32229 11.0415 9.30354C10.8924 9.2848 10.75 9.23024 10.6266 9.14451C10.5031 9.05879 10.4023 8.94446 10.3326 8.81129C10.263 8.67812 10.2266 8.53007 10.2266 8.37978C10.2266 8.22949 10.263 8.08144 10.3326 7.94827C10.4023 7.8151 10.5031 7.70077 10.6266 7.61505C10.75 7.52933 10.8924 7.47476 11.0415 7.45602C11.1906 7.43727 11.342 7.4549 11.4829 7.5074C11.553 7.53219 11.6281 7.53978 11.7018 7.52955C11.7756 7.51933 11.8458 7.49157 11.9065 7.44862C11.9673 7.40567 12.0169 7.34878 12.0512 7.2827C12.0854 7.21663 12.1033 7.14331 12.1034 7.06889V4.19013C12.1034 4.06666 12.0543 3.94826 11.967 3.86096C11.8797 3.77365 11.7613 3.72461 11.6379 3.72461C9.82978 3.72624 8.07677 4.34697 6.67053 5.4835C5.2643 6.62004 4.28966 8.20384 3.90878 9.97137C3.52791 11.7389 3.76378 13.5835 4.57714 15.1984C5.39049 16.8132 6.7323 18.1008 8.37926 18.8469V19.5522H7.91374C7.54335 19.5522 7.18813 19.6993 6.92623 19.9612C6.66432 20.2231 6.51719 20.5784 6.51719 20.9487V21.8798C6.51719 22.2502 6.66432 22.6054 6.92623 22.8673C7.18813 23.1292 7.54335 23.2763 7.91374 23.2763H8.37926V24.6729C8.38 25.29 8.62546 25.8816 9.06181 26.3179C9.49815 26.7543 10.0898 26.9997 10.7068 27.0005H12.5689C13.186 26.9997 13.7776 26.7543 14.2139 26.3179C14.6503 25.8816 14.8958 25.29 14.8965 24.6729V23.2763H15.362C15.7324 23.2763 16.0876 23.1292 16.3495 22.8673C16.6114 22.6054 16.7586 22.2502 16.7586 21.8798V20.9487C16.7586 20.5784 16.6114 20.2231 16.3495 19.9612C16.0876 19.6993 15.7324 19.5522 15.362 19.5522H14.8965V18.8469C16.2861 18.2238 17.4653 17.2113 18.2915 15.932C19.1177 14.6527 19.5554 13.1613 19.5517 11.6384C19.5517 11.5149 19.5026 11.3965 19.4153 11.3092C19.328 11.2219 19.2096 11.1729 19.0862 11.1729ZM11.1724 4.67101V6.51771C10.6785 6.51771 10.2049 6.71389 9.85568 7.0631C9.50647 7.41231 9.31029 7.88593 9.31029 8.37978C9.31029 8.87363 9.50647 9.34726 9.85568 9.69646C10.2049 10.0457 10.6785 10.2419 11.1724 10.2419V11.1729H9.69015C9.61567 11.1729 9.54229 11.1908 9.47617 11.2251C9.41005 11.2594 9.35312 11.309 9.31015 11.3699C9.26719 11.4307 9.23946 11.501 9.22927 11.5748C9.21909 11.6485 9.22676 11.7237 9.25164 11.7939C9.30414 11.9347 9.32177 12.0861 9.30302 12.2353C9.28428 12.3844 9.22971 12.5267 9.14399 12.6502C9.05827 12.7736 8.94394 12.8745 8.81077 12.9441C8.6776 13.0138 8.52954 13.0502 8.37926 13.0502C8.22897 13.0502 8.08092 13.0138 7.94775 12.9441C7.81457 12.8745 7.70025 12.7736 7.61452 12.6502C7.5288 12.5267 7.47424 12.3844 7.45549 12.2353C7.43675 12.0861 7.45438 11.9347 7.50688 11.7939C7.53175 11.7237 7.53942 11.6485 7.52924 11.5748C7.51906 11.501 7.49132 11.4307 7.44836 11.3699C7.4054 11.309 7.34847 11.2594 7.28234 11.2251C7.21622 11.1908 7.14284 11.1729 7.06836 11.1729H4.67048C4.7854 9.48634 5.50731 7.8985 6.70264 6.70317C7.89797 5.50783 9.48582 4.78592 11.1724 4.67101ZM9.01934 18.1091C7.80197 17.6203 6.74776 16.797 5.97853 15.7343C5.20931 14.6717 4.75647 13.4131 4.67234 12.1039H6.51719C6.51719 12.5978 6.71337 13.0714 7.06258 13.4206C7.41178 13.7698 7.88541 13.966 8.37926 13.966C8.87311 13.966 9.34673 13.7698 9.69594 13.4206C10.0451 13.0714 10.2413 12.5978 10.2413 12.1039H11.1724V13.5861C11.1724 13.6605 11.1903 13.7339 11.2246 13.7999C11.2588 13.866 11.3084 13.9229 11.3692 13.9659C11.43 14.0088 11.5002 14.0366 11.5739 14.0468C11.6476 14.057 11.7227 14.0494 11.7929 14.0246C11.9337 13.9721 12.0851 13.9545 12.2343 13.9733C12.3834 13.992 12.5257 14.0466 12.6492 14.1323C12.7726 14.218 12.8735 14.3323 12.9431 14.4655C13.0128 14.5987 13.0492 14.7467 13.0492 14.897C13.0492 15.0473 13.0128 15.1954 12.9431 15.3285C12.8735 15.4617 12.7726 15.576 12.6492 15.6618C12.5257 15.7475 12.3834 15.802 12.2343 15.8208C12.0851 15.8395 11.9337 15.8219 11.7929 15.7694C11.7227 15.7446 11.6476 15.737 11.5739 15.7472C11.5002 15.7575 11.43 15.7852 11.3692 15.8282C11.3084 15.8711 11.2588 15.928 11.2246 15.9941C11.1903 16.0602 11.1724 16.1335 11.1724 16.2079V19.5522H9.31029V18.5402C9.3102 18.4475 9.28246 18.357 9.23063 18.2802C9.1788 18.2034 9.10523 18.1438 9.01934 18.1091ZM13.9655 24.6729C13.9655 25.0433 13.8183 25.3985 13.5564 25.6604C13.2945 25.9223 12.9393 26.0694 12.5689 26.0694H10.7068C10.3365 26.0694 9.98124 25.9223 9.71933 25.6604C9.45743 25.3985 9.31029 25.0433 9.31029 24.6729V23.2763H10.2413V24.6729C10.2413 24.7963 10.2904 24.9148 10.3777 25.0021C10.465 25.0894 10.5834 25.1384 10.7068 25.1384C10.8303 25.1384 10.9487 25.0894 11.036 25.0021C11.1233 24.9148 11.1724 24.7963 11.1724 24.6729V23.2763H12.1034V24.6729C12.1034 24.7963 12.1524 24.9148 12.2397 25.0021C12.327 25.0894 12.4454 25.1384 12.5689 25.1384C12.6924 25.1384 12.8108 25.0894 12.8981 25.0021C12.9854 24.9148 13.0344 24.7963 13.0344 24.6729V23.2763H13.9655V24.6729ZM15.362 20.4832C15.4855 20.4832 15.6039 20.5323 15.6912 20.6196C15.7785 20.7069 15.8275 20.8253 15.8275 20.9487V21.8798C15.8275 22.0032 15.7785 22.1217 15.6912 22.209C15.6039 22.2963 15.4855 22.3453 15.362 22.3453H7.91374C7.79028 22.3453 7.67187 22.2963 7.58457 22.209C7.49727 22.1217 7.44822 22.0032 7.44822 21.8798V20.9487C7.44822 20.8253 7.49727 20.7069 7.58457 20.6196C7.67187 20.5323 7.79028 20.4832 7.91374 20.4832H15.362ZM14.2564 18.1091C14.1705 18.1439 14.0968 18.2035 14.045 18.2804C13.9932 18.3573 13.9655 18.4479 13.9655 18.5406V19.5522H12.1034V16.7591C12.5972 16.7591 13.0709 16.5629 13.4201 16.2137C13.7693 15.8645 13.9655 15.3909 13.9655 14.897C13.9655 14.4032 13.7693 13.9295 13.4201 13.5803C13.0709 13.2311 12.5972 13.035 12.1034 13.035V12.1039H13.5856C13.6601 12.1039 13.7335 12.086 13.7996 12.0517C13.8657 12.0174 13.9226 11.9678 13.9656 11.9069C14.0086 11.8461 14.0363 11.7758 14.0465 11.702C14.0567 11.6283 14.049 11.5531 14.0241 11.4829C13.9716 11.3421 13.954 11.1907 13.9727 11.0416C13.9915 10.8924 14.046 10.7501 14.1318 10.6266C14.2175 10.5032 14.3318 10.4023 14.465 10.3327C14.5982 10.263 14.7462 10.2266 14.8965 10.2266C15.0468 10.2266 15.1948 10.263 15.328 10.3327C15.4612 10.4023 15.5755 10.5032 15.6612 10.6266C15.747 10.7501 15.8015 10.8924 15.8203 11.0416C15.839 11.1907 15.8214 11.3421 15.7689 11.4829C15.744 11.5531 15.7363 11.6283 15.7465 11.702C15.7567 11.7758 15.7844 11.8461 15.8274 11.9069C15.8704 11.9678 15.9273 12.0174 15.9934 12.0517C16.0595 12.086 16.1329 12.1039 16.2074 12.1039H18.6053C18.5208 13.4132 18.0676 14.6719 17.298 15.7345C16.5285 16.7971 15.474 17.6204 14.2564 18.1091Z" fill="#CBFA11"/>
<path d="M15.3618 0C15.2383 0 15.1199 0.0490454 15.0326 0.136347C14.9453 0.223648 14.8962 0.342054 14.8962 0.465517V2.7931C14.4024 2.7931 13.9288 2.98929 13.5796 3.33849C13.2304 3.6877 13.0342 4.16132 13.0342 4.65517C13.0342 5.14902 13.2304 5.62265 13.5796 5.97185C13.9288 6.32106 14.4024 6.51724 14.8962 6.51724V7.91379C14.8962 8.03726 14.9453 8.15566 15.0326 8.24296C15.1199 8.33027 15.2383 8.37931 15.3618 8.37931H17.3095C17.384 8.37927 17.4574 8.36135 17.5235 8.32708C17.5896 8.2928 17.6465 8.24316 17.6895 8.18232C17.7325 8.12148 17.7602 8.05122 17.7704 7.97744C17.7806 7.90366 17.7729 7.82851 17.748 7.75831C17.6955 7.61749 17.6779 7.46606 17.6966 7.31694C17.7154 7.16783 17.7699 7.02547 17.8557 6.90203C17.9414 6.77859 18.0557 6.67773 18.1889 6.60807C18.322 6.53842 18.4701 6.50204 18.6204 6.50204C18.7707 6.50204 18.9187 6.53842 19.0519 6.60807C19.1851 6.67773 19.2994 6.77859 19.3851 6.90203C19.4708 7.02547 19.5254 7.16783 19.5442 7.31694C19.5629 7.46606 19.5453 7.61749 19.4928 7.75831C19.4679 7.82851 19.4602 7.90366 19.4704 7.97744C19.4806 8.05122 19.5083 8.12148 19.5513 8.18232C19.5942 8.24316 19.6512 8.2928 19.7173 8.32708C19.7834 8.36135 19.8568 8.37927 19.9313 8.37931H22.81C22.9335 8.37931 23.0519 8.33027 23.1392 8.24296C23.2265 8.15566 23.2756 8.03726 23.2756 7.91379C23.2732 5.81564 22.4387 3.8041 20.9551 2.32048C19.4715 0.836865 17.4599 0.00234107 15.3618 0ZM20.4825 7.44828C20.4825 6.95442 20.2863 6.4808 19.9371 6.13159C19.5879 5.78239 19.1142 5.58621 18.6204 5.58621C18.1265 5.58621 17.6529 5.78239 17.3037 6.13159C16.9545 6.4808 16.7583 6.95442 16.7583 7.44828H15.8273V5.96607C15.8272 5.89165 15.8093 5.81832 15.775 5.75225C15.7408 5.68618 15.6912 5.62928 15.6304 5.58633C15.5696 5.54338 15.4995 5.51563 15.4257 5.5054C15.352 5.49517 15.2769 5.50277 15.2067 5.52755C15.0659 5.58005 14.9145 5.59768 14.7654 5.57894C14.6163 5.56019 14.4739 5.50563 14.3505 5.41991C14.227 5.33418 14.1262 5.21985 14.0565 5.08668C13.9869 4.95351 13.9505 4.80546 13.9505 4.65517C13.9505 4.50489 13.9869 4.35683 14.0565 4.22366C14.1262 4.09049 14.227 3.97616 14.3505 3.89044C14.4739 3.80472 14.6163 3.75015 14.7654 3.73141C14.9145 3.71266 15.0659 3.73029 15.2067 3.78279C15.2769 3.80758 15.352 3.81517 15.4257 3.80495C15.4995 3.79472 15.5696 3.76697 15.6304 3.72401C15.6912 3.68106 15.7408 3.62417 15.775 3.55809C15.8093 3.49202 15.8272 3.4187 15.8273 3.34428V0.946397C17.5138 1.06131 19.1017 1.78322 20.297 2.97856C21.4923 4.17389 22.2142 5.76173 22.3292 7.44828H20.4825Z" fill="#CBFA11"/>
</svg>
