<svg width="27" height="25" viewBox="0 0 27 25" fill="none" xmlns="http://www.w3.org/2000/svg">
<path d="M13.5 5.27344C13.2089 5.27344 12.9727 5.50971 12.9727 5.80078C12.9727 6.09185 13.2089 6.32812 13.5 6.32812C13.7911 6.32812 14.0273 6.09185 14.0273 5.80078C14.0273 5.50971 13.7911 5.27344 13.5 5.27344Z" fill="#CBFA11"/>
<path d="M4.74609 14.7656C5.03716 14.7656 5.27344 14.5294 5.27344 14.2383C5.27344 13.9472 5.03716 13.7109 4.74609 13.7109C4.45502 13.7109 4.21875 13.9472 4.21875 14.2383C4.21875 14.5294 4.45502 14.7656 4.74609 14.7656Z" fill="#CBFA11"/>
<path d="M17.7188 0C12.9712 0 9.07464 3.27324 8.77327 7.3962C4.25191 7.623 0 10.8833 0 15.293C0 17.1358 0.729218 18.9213 2.05664 20.3361C2.31928 21.4188 2.0004 22.5664 1.20918 23.3576C1.0584 23.5084 1.01328 23.7352 1.09486 23.9323C1.17643 24.1293 1.36862 24.2578 1.58203 24.2578C3.08599 24.2578 4.53536 23.6681 5.6123 22.6288C6.66142 22.9864 8.03025 23.2031 9.28125 23.2031C14.0282 23.2031 17.9243 19.9307 18.2265 15.8086C19.3307 15.7595 20.4791 15.5556 21.3877 15.246C22.4646 16.2852 23.914 16.875 25.418 16.875C25.6314 16.875 25.8236 16.7465 25.9051 16.5495C25.9867 16.3524 25.9416 16.1256 25.7908 15.9748C24.9996 15.1836 24.6807 14.036 24.9434 12.9533C26.2708 11.5385 27 9.75298 27 7.91016C27 3.32824 22.4206 0 17.7188 0ZM9.28125 22.1484C8.03664 22.1484 6.61837 21.9041 5.66833 21.5261C5.46481 21.445 5.23224 21.4983 5.08413 21.66C4.4474 22.3561 3.61951 22.8414 2.71747 23.0645C3.21453 22.1122 3.34142 20.9895 3.03902 19.9258C3.01513 19.8419 2.97084 19.7653 2.91007 19.7029C1.71366 18.4706 1.05469 16.9045 1.05469 15.293C1.05469 11.5768 4.8219 8.4375 9.28125 8.4375C13.4922 8.4375 17.1914 11.3657 17.1914 15.293C17.1914 19.0732 13.643 22.1484 9.28125 22.1484ZM24.0899 12.3201C24.0292 12.3827 23.9849 12.4593 23.961 12.543C23.6586 13.6067 23.7855 14.7294 24.2825 15.6817C23.3805 15.4588 22.5526 14.9733 21.9159 14.2772C21.7678 14.1157 21.5352 14.0622 21.3317 14.1433C20.5083 14.4708 19.3337 14.6976 18.2249 14.7524C18.0708 12.7582 17.076 10.8839 15.3754 9.49219H22.2539C22.5452 9.49219 22.7812 9.25612 22.7812 8.96484C22.7812 8.67357 22.5452 8.4375 22.2539 8.4375H13.7552C12.5582 7.82817 11.2141 7.47283 9.83064 7.39826C10.1337 3.85641 13.5558 1.05469 17.7188 1.05469C22.1781 1.05469 25.9453 4.19403 25.9453 7.91016C25.9453 9.52164 25.2863 11.0878 24.0899 12.3201Z" fill="#CBFA11"/>
<path d="M13.5 13.7109H6.85547C6.56419 13.7109 6.32812 13.947 6.32812 14.2383C6.32812 14.5296 6.56419 14.7656 6.85547 14.7656H13.5C13.7913 14.7656 14.0273 14.5296 14.0273 14.2383C14.0273 13.947 13.7913 13.7109 13.5 13.7109Z" fill="#CBFA11"/>
<path d="M13.5 16.875H4.74609C4.45482 16.875 4.21875 17.1111 4.21875 17.4023C4.21875 17.6936 4.45482 17.9297 4.74609 17.9297H13.5C13.7913 17.9297 14.0273 17.6936 14.0273 17.4023C14.0273 17.1111 13.7913 16.875 13.5 16.875Z" fill="#CBFA11"/>
<path d="M22.2539 5.27344H15.6094C15.3181 5.27344 15.082 5.50951 15.082 5.80078C15.082 6.09206 15.3181 6.32812 15.6094 6.32812H22.2539C22.5452 6.32812 22.7812 6.09206 22.7812 5.80078C22.7812 5.50951 22.5452 5.27344 22.2539 5.27344Z" fill="#CBFA11"/>
</svg>
