<svg width="28" height="27" viewBox="0 0 28 27" fill="none" xmlns="http://www.w3.org/2000/svg">
<path d="M19.8751 4.21495C20.5402 4.21495 21.0824 3.67274 21.0824 3.0077C21.0824 2.34265 20.5402 1.80469 19.8751 1.80469C19.2101 1.80469 18.6721 2.34265 18.6721 3.0077C18.6721 3.67274 19.2101 4.21495 19.8751 4.21495ZM19.8751 2.61799C20.0912 2.61799 20.2691 2.79167 20.2691 3.0077C20.2691 3.22373 20.0912 3.40164 19.8751 3.40164C19.6591 3.40164 19.4854 3.22373 19.4854 3.0077C19.4854 2.7959 19.6591 2.61799 19.8751 2.61799Z" fill="#CBFA11"/>
<path d="M16.9823 4.31651C17.6474 4.31651 18.1896 3.77431 18.1896 3.10926C18.1896 2.44422 17.6474 1.90625 16.9823 1.90625C16.3173 1.90625 15.7793 2.44422 15.7793 3.10926C15.7793 3.77431 16.3173 4.31651 16.9823 4.31651ZM16.9823 2.71955C17.1983 2.71955 17.3763 2.89323 17.3763 3.10926C17.3763 3.3253 17.1983 3.50321 16.9823 3.50321C16.7663 3.50321 16.5926 3.3253 16.5926 3.10926C16.5926 2.89323 16.7663 2.71955 16.9823 2.71955Z" fill="#CBFA11"/>
<path d="M14.0888 4.41417C14.7538 4.41417 15.296 3.87196 15.296 3.20692C15.296 2.54187 14.7538 2.00391 14.0888 2.00391C13.4237 2.00391 12.8857 2.54187 12.8857 3.20692C12.8857 3.87196 13.4237 4.41417 14.0888 4.41417ZM14.0888 2.81721C14.3048 2.81721 14.4827 2.99088 14.4827 3.20692C14.4827 3.42295 14.3048 3.60086 14.0888 3.60086C13.8727 3.60086 13.699 3.42295 13.699 3.20692C13.699 2.99512 13.8727 2.81721 14.0888 2.81721Z" fill="#CBFA11"/>
<path d="M14.1608 12.4918C14.5759 12.2038 14.8258 11.7294 14.8258 11.2211C14.8258 10.7127 14.5759 10.2383 14.1608 9.95027L11.0262 7.77299C10.5517 7.44258 9.93753 7.40446 9.42497 7.67133C8.91242 7.93819 8.59473 8.46345 8.59473 9.04378V13.3941C8.59473 13.9702 8.91242 14.4955 9.42497 14.7666C9.64948 14.8852 9.8994 14.9445 10.1409 14.9445C10.4501 14.9445 10.7593 14.8513 11.0219 14.6691L14.1608 12.4918ZM9.80621 14.0464C9.56053 13.9194 9.41227 13.6737 9.41227 13.3941V9.04378C9.41227 8.7642 9.56053 8.52275 9.80621 8.39144C9.91635 8.33214 10.0307 8.30672 10.1493 8.30672C10.2933 8.30672 10.4374 8.35332 10.5687 8.43803L13.7033 10.6153C13.9024 10.7551 14.0168 10.9754 14.0168 11.2168C14.0168 11.4625 13.9024 11.6828 13.6991 11.8183L10.5644 13.9914C10.3357 14.1566 10.0519 14.1735 9.80621 14.0464Z" fill="#CBFA11"/>
<path d="M24.4501 16.9946C25.1829 16.3676 25.3989 15.2875 24.9118 14.4149C24.6407 13.932 24.2001 13.5846 23.6706 13.4364C23.2725 13.3262 22.8573 13.3347 22.4761 13.4575L21.4256 11.581C21.1079 11.0092 20.5233 10.6576 19.8667 10.6364C19.2186 10.6194 18.6087 10.9371 18.2571 11.4921L15.0081 16.6049C14.6904 16.4524 14.3007 16.4481 13.9703 16.6345L11.1746 18.1976C10.6324 18.5026 10.4375 19.1888 10.7383 19.731L12.9579 23.7043C13.1062 23.9669 13.3434 24.1576 13.6357 24.238C13.7373 24.2677 13.8432 24.2804 13.9449 24.2804C14.1355 24.2804 14.3219 24.2338 14.4913 24.1364L14.6099 24.0686L17.9775 26.6822C18.2486 26.894 18.5748 26.9999 18.9009 26.9999C19.1551 26.9999 19.405 26.9364 19.638 26.8093C20.0828 26.5636 20.3666 26.1103 20.4047 25.6063C20.4428 25.1022 20.2268 24.6108 19.8244 24.3016L17.448 22.4589C17.681 22.2683 17.8208 21.993 17.8504 21.7049L23.9121 21.6202C24.5687 21.6118 25.1532 21.2644 25.4836 20.6968C25.8098 20.1292 25.814 19.4472 25.4963 18.8753L24.4501 16.9946ZM24.2044 14.8088C24.4712 15.2875 24.3908 15.872 24.0434 16.2575L23.9629 16.1135L22.887 14.1904C23.3995 14.0972 23.9375 14.3301 24.2044 14.8088ZM13.8559 23.4544C13.7754 23.4332 13.7077 23.3782 13.6653 23.3061L11.4457 19.3328C11.3609 19.1803 11.416 18.9897 11.5685 18.905L14.3642 17.3419C14.4108 17.3165 14.4659 17.3038 14.5167 17.3038C14.6269 17.3038 14.7328 17.3631 14.7878 17.4605L17.0117 21.4423C17.0922 21.5948 17.0371 21.7812 16.8889 21.8659L16.5373 22.0608L14.449 23.2257C14.449 23.2257 14.449 23.2257 14.4447 23.2299L14.0931 23.4247C14.0211 23.4671 13.9364 23.4756 13.8559 23.4544ZM19.5956 25.5427C19.5787 25.7799 19.4474 25.9833 19.2398 26.0976C18.9941 26.2332 18.6976 26.212 18.4774 26.0383L15.3809 23.6365L16.6983 22.8995L19.3288 24.9412C19.5152 25.0852 19.6126 25.3055 19.5956 25.5427ZM24.7847 20.2859C24.6025 20.6036 24.2721 20.7985 23.9079 20.8027L17.6429 20.8916L15.5884 17.2106L18.9518 11.9199C19.1509 11.6107 19.4813 11.4327 19.8498 11.4412C20.2183 11.4497 20.5403 11.6488 20.7224 11.9707L24.7974 19.265C24.9711 19.587 24.9668 19.9682 24.7847 20.2859Z" fill="#CBFA11"/>
<path d="M25.5212 14.0215C25.6144 14.0215 25.7034 13.9918 25.7796 13.9283L26.4023 13.4157C26.576 13.2717 26.6014 13.0176 26.4574 12.8439C26.3134 12.6702 26.0592 12.6448 25.8855 12.7888L25.2628 13.3014C25.0892 13.4454 25.0637 13.6996 25.2078 13.8732C25.2882 13.9707 25.4069 14.0215 25.5212 14.0215Z" fill="#CBFA11"/>
<path d="M24.2766 13.3768H24.3147C24.5223 13.3768 24.7002 13.2201 24.7171 13.0083L24.7934 12.2034C24.8146 11.9789 24.6494 11.7798 24.4291 11.7587C24.2046 11.7375 24.0055 11.9027 23.9843 12.123L23.9081 12.9278C23.8869 13.1608 24.0521 13.3556 24.2766 13.3768Z" fill="#CBFA11"/>
<path d="M26.7671 14.5966L25.9622 14.5204C25.7377 14.4992 25.5386 14.6644 25.5175 14.8847C25.4963 15.1092 25.6615 15.3083 25.8817 15.3295L26.6866 15.4057H26.7247C26.9323 15.4057 27.1102 15.249 27.1271 15.0372C27.1568 14.8169 26.9916 14.6178 26.7671 14.5966Z" fill="#CBFA11"/>
<path d="M9.37841 18.7102H4.22325C2.34248 18.7102 0.813304 17.181 0.813304 15.3003V6.0193H3.17697C3.85049 6.0193 4.39692 5.47286 4.39692 4.79934V4.49012C4.39692 4.07076 4.7358 3.73188 5.15516 3.73188H7.18842C7.38328 3.73188 7.56542 3.80389 7.70521 3.93521L9.57327 5.68889C9.80201 5.90069 10.0985 6.0193 10.4078 6.0193H22.6073V11.9242C22.6073 12.1487 22.7895 12.3309 23.014 12.3309C23.2385 12.3309 23.4206 12.1487 23.4206 11.9242V5.61264V4.22325C23.4206 1.89347 21.5271 0 19.1974 0H4.22325C1.89347 0 0 1.89347 0 4.22325V5.61264V15.296C0 17.6258 1.89347 19.5193 4.22325 19.5193H9.37841C9.60292 19.5193 9.78506 19.3371 9.78506 19.1126C9.78506 18.8924 9.60292 18.7102 9.37841 18.7102ZM0.813304 4.22749C0.813304 2.34672 2.34248 0.81754 4.22325 0.81754H19.1974C21.0781 0.81754 22.6073 2.34672 22.6073 4.22749V5.21023H10.4078C10.3019 5.21023 10.2044 5.1721 10.1282 5.10009L8.26012 3.34641C7.96784 3.07107 7.5866 2.92281 7.18419 2.92281H5.15093C4.28679 2.92281 3.57938 3.62598 3.57938 4.49435V4.80358C3.57938 5.02808 3.39724 5.21023 3.17273 5.21023H0.813304V4.22749Z" fill="#CBFA11"/>
</svg>
