<svg width="27" height="27" viewBox="0 0 27 27" fill="none" xmlns="http://www.w3.org/2000/svg">
<path d="M23.563 16.7572C23.9033 15.7068 24.0761 14.6113 24.0761 13.4951C24.0761 12.3829 23.9045 11.2913 23.5663 10.2443C24.3101 9.96494 24.9864 9.51773 25.548 8.92303C26.5184 7.89574 27.0305 6.55183 26.9901 5.13934C26.9065 2.22308 24.4663 -0.0809555 21.5496 0.00226593C20.1369 0.0426407 18.8247 0.630753 17.8543 1.65825C17.3642 2.17715 16.9914 2.77679 16.7473 3.42526C15.7 3.08723 14.6085 2.91563 13.4959 2.91563C12.3827 2.91563 11.2903 3.08764 10.2424 3.42609C9.48663 1.42609 7.55235 0 5.29095 0C2.37346 0 0 2.37346 0 5.29074C0 7.55193 1.4263 9.48601 3.42629 10.2416C3.08764 11.2897 2.91584 12.3821 2.91584 13.4951C2.91584 14.6113 3.08867 15.7068 3.42897 16.7572C1.42754 17.5121 0 19.447 0 21.7093C0 22.5056 0.172623 23.2713 0.51313 23.9849C0.607269 24.182 0.843338 24.2656 1.04047 24.1715C1.2374 24.0774 1.32104 23.8413 1.2271 23.6442C0.937683 23.0377 0.791016 22.3868 0.791016 21.7093C0.791016 19.2283 2.80975 17.2097 5.29095 17.2097C7.77235 17.2097 9.79108 19.2283 9.79108 21.7093C9.79108 24.1905 7.77235 26.209 5.29095 26.209C4.15922 26.209 3.07755 25.7873 2.24533 25.0216C2.08445 24.8737 1.83417 24.8842 1.68647 25.0449C1.53857 25.2058 1.54887 25.4559 1.70975 25.6038C2.68842 26.5042 3.96023 27 5.29095 27C7.55564 27 9.49239 25.5696 10.2457 23.5651C11.2924 23.9029 12.3837 24.0745 13.4959 24.0745C14.6082 24.0745 15.6998 23.9029 16.7465 23.5653C17.4998 25.5698 19.4365 27 21.7012 27C24.6187 27 26.9922 24.6265 26.9922 21.7093C26.9922 19.447 25.5646 17.5119 23.563 16.7572ZM18.4294 2.20125C19.2546 1.32742 20.3709 0.827271 21.5725 0.79287C21.6161 0.791634 21.6594 0.791016 21.7031 0.791016C24.1252 0.791016 26.1297 2.7255 26.1993 5.16179C26.2337 6.36314 25.7982 7.506 24.973 8.38003C24.1478 9.25385 23.0315 9.75401 21.83 9.78841C21.7863 9.78964 21.7428 9.79026 21.6994 9.79026C19.2773 9.79026 17.2728 7.85577 17.2031 5.41949C17.1685 4.21813 17.6042 3.07507 18.4294 2.20125ZM16.5246 22.8056C15.55 23.1224 14.5331 23.2835 13.4959 23.2835C12.4591 23.2835 11.4421 23.1224 10.4676 22.8056C10.5423 22.4517 10.5821 22.085 10.5821 21.7093C10.5821 18.792 8.20844 16.4187 5.29095 16.4187C4.91295 16.4187 4.54422 16.4589 4.18847 16.5345C3.86897 15.5564 3.70686 14.5357 3.70686 13.4951C3.70686 12.4577 3.86815 11.4403 4.18559 10.4647C4.54216 10.5409 4.91192 10.5813 5.29095 10.5813C6.19732 10.5813 7.09154 10.3481 7.8774 9.90706C8.06774 9.80015 8.13551 9.55914 8.0286 9.36859C7.92169 9.17805 7.68068 9.11048 7.49014 9.21739C6.8223 9.59209 6.06178 9.79026 5.29095 9.79026C2.80955 9.79026 0.791016 7.77173 0.791016 5.29053C0.791016 2.80955 2.80975 0.791016 5.29095 0.791016C7.77235 0.791016 9.79108 2.80955 9.79108 5.29074C9.79108 6.32874 9.42915 7.34141 8.77203 8.14252C8.6334 8.31123 8.65812 8.56048 8.82703 8.69911C8.99574 8.83754 9.245 8.81303 9.38363 8.64411C10.1563 7.7021 10.5821 6.51105 10.5821 5.29053C10.5821 4.91171 10.5415 4.54195 10.4655 4.18538C11.4409 3.86794 12.4585 3.70665 13.4959 3.70665C14.5331 3.70665 15.5503 3.86774 16.5252 4.18476C16.4389 4.59304 16.4002 5.0143 16.4123 5.44215C16.4945 8.3069 18.8511 10.5815 21.6992 10.5813C21.75 10.5813 21.8013 10.5807 21.8526 10.579C22.1769 10.5697 22.4957 10.5312 22.8066 10.4655C23.1238 11.4407 23.2851 12.4581 23.2851 13.4951C23.2851 14.5357 23.1228 15.5564 22.8035 16.5345C22.4477 16.4587 22.079 16.4187 21.7012 16.4187C18.7837 16.4187 16.4103 18.792 16.4103 21.7093C16.4103 22.0852 16.4498 22.4519 16.5246 22.8056ZM21.7012 26.209C19.2198 26.209 17.2013 24.1905 17.2013 21.7095C17.2013 19.2283 19.2198 17.2097 21.7012 17.2097C24.1826 17.2097 26.2012 19.2283 26.2012 21.7095C26.2012 24.1905 24.1826 26.209 21.7012 26.209Z" fill="#CBFA11"/>
<path d="M7.98451 2.95595C7.84814 2.86326 7.66872 2.8647 7.534 2.95987C7.39928 3.05483 7.25508 3.13414 7.10347 3.19697C6.56006 2.7718 5.77255 2.77674 5.23305 3.24579C4.95269 3.48968 4.77739 3.8269 4.7366 4.19109C4.15632 4.10478 3.63186 3.78528 3.28785 3.29543C3.20587 3.17884 3.06744 3.1156 2.92592 3.1292C2.78399 3.143 2.6606 3.23199 2.60272 3.36217C2.59139 3.38772 2.32524 3.99581 2.35923 4.74007C2.38519 5.30964 2.58891 6.0438 3.33193 6.61069C3.06435 6.69701 2.78172 6.73697 2.50013 6.72564C2.3168 6.71843 2.15303 6.8377 2.10359 7.01403C2.05416 7.19036 2.13223 7.37761 2.29228 7.4666C2.91274 7.81123 3.57748 7.98385 4.22698 7.98385C4.85093 7.98385 5.46067 7.82441 6.00326 7.50532C6.68366 7.10508 7.17804 6.49225 7.44645 5.74387C7.4549 5.72492 7.4619 5.70515 7.46746 5.68475C7.60548 5.27833 7.67778 4.83317 7.67778 4.36104C7.67778 4.34044 7.67716 4.31963 7.67634 4.29903C7.90211 4.03289 8.0632 3.71751 8.14642 3.37659C8.18514 3.21633 8.12087 3.04865 7.98451 2.95595ZM6.87461 4.23765C6.88244 4.27885 6.88656 4.32149 6.88656 4.36227C6.88656 4.74995 6.82888 5.109 6.71909 5.43344C6.71311 5.44827 6.70817 5.46372 6.70405 5.47958C6.49867 6.05431 6.1248 6.51594 5.60219 6.82349C5.12387 7.10508 4.5749 7.22497 4.01542 7.18439C4.14355 7.12094 4.26735 7.04884 4.3858 6.96851C4.50445 6.88776 4.57037 6.74912 4.5576 6.60596C4.54482 6.46279 4.45542 6.33796 4.32421 6.27966C3.58572 5.95151 3.19083 5.42953 3.15066 4.72853C3.14242 4.58495 3.14963 4.44714 3.16508 4.32087C3.70911 4.7755 4.40598 5.02351 5.13335 5.00477C5.34779 4.99921 5.51876 4.8239 5.51876 4.60947V4.36948C5.51876 4.36784 5.51876 4.36598 5.51876 4.36413C5.51608 4.16411 5.60095 3.97398 5.75215 3.84276C6.03478 3.59701 6.46448 3.62688 6.71023 3.9095C6.75967 3.96615 6.8227 4.00632 6.8915 4.02753C6.8674 4.09386 6.86102 4.16617 6.87461 4.23765Z" fill="#CBFA11"/>
<path d="M20.3994 5.60229H20.9601V7.96071C20.9601 8.17906 21.1373 8.35622 21.3556 8.35622C21.5742 8.35622 21.7511 8.17906 21.7511 7.96071V5.60229H22.3619C22.5803 5.60229 22.7574 5.42513 22.7574 5.20678C22.7574 4.98843 22.5803 4.81127 22.3619 4.81127H21.7511V3.70467C21.7511 3.32482 22.0603 3.01562 22.4404 3.01562H22.9525C23.1709 3.01562 23.348 2.83847 23.348 2.62012C23.348 2.40156 23.1709 2.22461 22.9525 2.22461H22.4404C21.6243 2.22461 20.9601 2.88853 20.9601 3.70467V4.81127H20.3994C20.1811 4.81127 20.0039 4.98843 20.0039 5.20678C20.0039 5.42513 20.1811 5.60229 20.3994 5.60229Z" fill="#CBFA11"/>
<path d="M4.3936 23.7546C4.48774 23.7546 4.58188 23.7303 4.66572 23.6819L7.35785 22.1269C7.52573 22.0301 7.62997 21.8494 7.62997 21.6556C7.62997 21.4619 7.52573 21.2813 7.35785 21.1845L4.66572 19.6294C4.49804 19.5324 4.28957 19.5324 4.12169 19.6294C3.9538 19.7262 3.84937 19.9069 3.84937 20.1007V23.2106C3.84937 23.4044 3.9538 23.5851 4.12169 23.6819C4.20553 23.7305 4.29946 23.7546 4.3936 23.7546ZM4.64038 20.5284L6.59238 21.6558L4.64038 22.7832V20.5284Z" fill="#CBFA11"/>
<path d="M23.4203 18.9082H19.9831C19.3861 18.9082 18.9004 19.3939 18.9004 19.9911V23.4277C18.9004 24.0249 19.3861 24.5106 19.9831 24.5106H23.4203C24.0173 24.5106 24.503 24.0249 24.503 23.4277V19.9911C24.503 19.3939 24.0173 18.9082 23.4203 18.9082ZM23.712 23.4277C23.712 23.5888 23.5812 23.7196 23.4203 23.7196H19.9831C19.8222 23.7196 19.6914 23.5888 19.6914 23.4277V19.9911C19.6914 19.8302 19.8222 19.6992 19.9831 19.6992H23.4203C23.5812 19.6992 23.712 19.8302 23.712 19.9911V23.4277Z" fill="#CBFA11"/>
<path d="M21.7012 20.5137C21.042 20.5137 20.5056 21.0501 20.5056 21.7093C20.5056 22.3684 21.042 22.9046 21.7012 22.9046C22.3604 22.9046 22.8968 22.3684 22.8968 21.7093C22.8968 21.0501 22.3604 20.5137 21.7012 20.5137ZM21.7012 22.1136C21.4781 22.1136 21.2966 21.9321 21.2966 21.7093C21.2966 21.4862 21.4781 21.3047 21.7012 21.3047C21.9243 21.3047 22.1058 21.4862 22.1058 21.7093C22.1058 21.9321 21.9243 22.1136 21.7012 22.1136Z" fill="#CBFA11"/>
<path d="M16.358 9.3916C16.1395 9.3916 15.9625 9.56876 15.9625 9.78711V9.96447C15.4051 10.293 14.8191 10.5767 14.2165 10.8088C13.7341 10.9946 13.2358 11.1491 12.7317 11.2701C12.6543 11.2105 12.5579 11.1745 12.4528 11.1745H10.6419C10.2044 11.1745 9.84863 11.5304 9.84863 11.9678V14.0448C9.84863 14.4823 10.2044 14.8381 10.6419 14.8381H11.0038L11.141 17.4752C11.152 17.6863 11.3266 17.8501 11.5357 17.8501C11.5425 17.8501 11.5495 17.8499 11.5565 17.8495C11.7747 17.8382 11.9424 17.6522 11.931 17.434L11.7959 14.8381H12.4528C12.5577 14.8381 12.6543 14.8022 12.7315 14.7427C13.0525 14.8202 13.3717 14.9112 13.6838 15.0148C13.8913 15.0834 14.115 14.9711 14.1838 14.7639C14.2526 14.5565 14.1401 14.3326 13.9329 14.264C13.5977 14.1527 13.2549 14.0549 12.9101 13.9719V12.0411C13.4502 11.9117 13.984 11.7459 14.5008 11.5469C15.0005 11.3543 15.49 11.1287 15.9623 10.8733V15.1403C15.7885 15.0463 15.6127 14.9567 15.4358 14.8717C15.2389 14.7769 15.0026 14.8597 14.908 15.0566C14.8133 15.2536 14.8961 15.4898 15.093 15.5846C15.3876 15.7263 15.6789 15.8825 15.9623 16.0489V16.2254C15.9623 16.444 16.1395 16.6209 16.3578 16.6209C16.5762 16.6209 16.7533 16.444 16.7533 16.2254V9.78711C16.7535 9.56876 16.5764 9.3916 16.358 9.3916ZM12.1193 14.0469L10.6396 14.0448L10.6419 11.9655H12.1193V14.0469Z" fill="#CBFA11"/>
</svg>
