<svg width="28" height="27" viewBox="0 0 28 27" fill="none" xmlns="http://www.w3.org/2000/svg">
<path d="M11.2586 1.80078C6.03979 1.80078 1.80908 6.03149 1.80908 11.2503C1.80908 16.4692 6.03979 20.6999 11.2586 20.6999C16.4775 20.6999 20.7082 16.4692 20.7082 11.2503C20.7025 6.03385 16.4751 1.80646 11.2586 1.80078ZM11.2586 2.70074C14.0382 2.70293 16.6428 4.0576 18.2405 6.33207L17.1156 7.45702C16.8418 7.29137 16.5284 7.20273 16.2084 7.20053C15.2144 7.20053 14.4085 8.00639 14.4085 9.00045C14.4101 9.32078 14.4982 9.6347 14.6636 9.90896L11.7172 12.8554C11.1593 12.5152 10.4581 12.5152 9.90016 12.8554L7.85366 10.8089C8.01908 10.5347 8.10722 10.2207 8.10879 9.90041C8.11003 8.90832 7.30682 8.10308 6.31473 8.10184C5.49425 8.10083 4.77737 8.65582 4.57286 9.45043H2.90343C3.75541 5.51609 7.23313 2.70665 11.2586 2.70074ZM17.1084 9.00045C17.1084 9.49751 16.7055 9.90041 16.2084 9.90041C15.7114 9.90041 15.3085 9.49751 15.3085 9.00045C15.3085 8.50339 15.7114 8.10049 16.2084 8.10049C16.7055 8.10049 17.1084 8.50339 17.1084 9.00045ZM11.7086 14.4002C11.7086 14.8973 11.3057 15.3002 10.8087 15.3002C10.3116 15.3002 9.90871 14.8973 9.90871 14.4002C9.90871 13.9031 10.3116 13.5002 10.8087 13.5002C11.3057 13.5002 11.7086 13.9031 11.7086 14.4002ZM7.20884 9.90041C7.20884 10.3975 6.80593 10.8004 6.30888 10.8004C5.81182 10.8004 5.40892 10.3975 5.40892 9.90041C5.40892 9.40335 5.81182 9.00045 6.30888 9.00045C6.80593 9.00045 7.20884 9.40335 7.20884 9.90041ZM15.4127 18.726C14.142 19.4315 12.7122 19.8012 11.2586 19.7999C6.54005 19.8031 2.71225 15.9806 2.70904 11.262C2.70882 10.9575 2.7249 10.6531 2.75719 10.3503H4.57286C4.77743 11.1426 5.49064 11.6972 6.30888 11.7003C6.62921 11.6987 6.94312 11.6106 7.21738 11.4451L9.26389 13.4916C9.09847 13.7659 9.01033 14.0798 9.00875 14.4001C9.00875 15.3942 9.81461 16.2001 10.8087 16.2001C11.8027 16.2001 12.6086 15.3942 12.6086 14.4001C12.607 14.0798 12.5189 13.7659 12.3534 13.4916L15.2999 10.5452C15.5742 10.7106 15.8881 10.7987 16.2084 10.8003C17.2025 10.8003 18.0083 9.99446 18.0083 9.0004C18.0068 8.68007 17.9186 8.36615 17.7532 8.09189L18.7342 7.11138C21.0243 11.2359 19.5372 16.4359 15.4127 18.726Z" fill="#CBFA11"/>
<path d="M22.5092 4.50124C23.3274 4.49815 24.0406 3.9436 24.2452 3.1513H27.009V2.25134H24.2452C24.0406 1.45904 23.3274 0.904498 22.5092 0.901404C21.5151 0.901404 20.7093 1.70726 20.7093 2.70132C20.7108 3.02165 20.799 3.33557 20.9644 3.60983L20.1738 4.40044C16.3909 -0.528012 9.3289 -1.45666 4.40044 2.32626C-0.528012 6.10918 -1.45666 13.1712 2.32626 18.0997C5.89708 22.7517 12.4426 23.8802 17.365 20.6924L18.7231 22.0504L19.3593 22.6867L22.9817 26.309C23.9029 27.2303 25.3965 27.2303 26.3178 26.309C27.2391 25.3878 27.2391 23.8942 26.3178 22.9729L22.6955 19.3506L22.0592 18.7143L20.7012 17.3563C23.1119 13.643 23.1119 8.8589 20.7012 5.14561L21.6011 4.24565C21.8752 4.41113 22.189 4.49944 22.5092 4.50124ZM22.5092 1.80136C23.0063 1.80136 23.4092 2.20426 23.4092 2.70132C23.4092 3.19838 23.0063 3.60128 22.5092 3.60128C22.0121 3.60128 21.6092 3.19838 21.6092 2.70132C21.6092 2.20426 22.0122 1.80136 22.5092 1.80136ZM25.6815 23.6092C26.2579 24.1725 26.2684 25.0965 25.705 25.6728C25.1416 26.2491 24.2177 26.2596 23.6414 25.6962C23.6335 25.6885 23.6257 25.6807 23.6179 25.6728L19.9956 22.0504L22.0592 19.9868L25.6815 23.6092ZM21.4229 19.3506L19.3593 21.4142L18.1138 20.1686C18.1772 20.12 18.2366 20.0665 18.2992 20.0165C18.3617 19.9666 18.4342 19.9067 18.5012 19.8505C18.5998 19.7677 18.697 19.684 18.7924 19.5981C18.8414 19.5531 18.8882 19.5081 18.9364 19.4631C19.1208 19.2903 19.2995 19.1116 19.4723 18.9271C19.5173 18.879 19.5623 18.8322 19.6073 18.7831C19.6932 18.6877 19.7769 18.5905 19.8597 18.492C19.9161 18.4254 19.9715 18.3581 20.0258 18.29C20.0753 18.2279 20.1288 18.1685 20.1774 18.105L21.4229 19.3506ZM19.6779 17.2604C19.5362 17.4584 19.3899 17.6523 19.2356 17.8391C19.1906 17.8935 19.1424 17.9462 19.0961 17.9997C18.9584 18.1599 18.8162 18.3153 18.6695 18.4659C18.6056 18.5319 18.5407 18.5968 18.4747 18.6607C18.3247 18.8074 18.1693 18.9496 18.0085 19.0873C17.9549 19.1323 17.9023 19.1814 17.8479 19.2268C17.6611 19.3812 17.4672 19.5274 17.2692 19.6691C12.611 22.997 6.13697 21.9186 2.80909 17.2604C-0.518787 12.6022 0.559645 6.1282 5.21783 2.80032C9.87602 -0.527562 16.35 0.550814 19.6779 5.20906C22.253 8.81351 22.253 13.656 19.6779 17.2604Z" fill="#CBFA11"/>
</svg>
