<svg width="27" height="26" viewBox="0 0 27 26" fill="none" xmlns="http://www.w3.org/2000/svg">
<path d="M7.22273 16.2545C7.47487 16.109 7.56118 15.7863 7.41575 15.5341C7.27011 15.2822 6.94752 15.1957 6.69538 15.3411C6.44325 15.4867 6.35673 15.8095 6.50237 16.0615C6.6478 16.3136 6.97059 16.4001 7.22273 16.2545Z" fill="#CBFA11"/>
<path d="M5.06168 19.8941L7.71735 24.4941C8.29043 25.4879 9.57954 25.8558 10.599 25.2664C11.6078 24.6834 11.9544 23.3945 11.3709 22.385L9.78883 19.6444L11.1589 18.8534C11.411 18.7076 11.4975 18.3852 11.3519 18.133L10.6662 16.9453C10.7479 16.9294 11.2856 16.824 20.7669 14.964C21.939 14.9004 22.6412 13.6185 22.0492 12.5937L20.2966 9.55813L21.4166 7.86177C21.5266 7.69492 21.5332 7.48048 21.4333 7.30744L20.3786 5.48069C20.2787 5.30765 20.0889 5.20631 19.8902 5.21805L17.8613 5.33979L15.9157 1.96973C15.6339 1.48152 15.129 1.18592 14.5654 1.17892C14.5586 1.17871 14.552 1.17871 14.5452 1.17871C14.0006 1.17871 13.5062 1.4498 13.2133 1.90814L6.32442 10.6839L1.8459 13.2695C0.0844491 14.2861 -0.525705 16.5459 0.494789 18.3121C1.42712 19.927 3.39271 20.5623 5.06168 19.8941ZM10.4577 22.9125C10.749 23.4164 10.5765 24.0611 10.0712 24.353C9.56429 24.6462 8.91871 24.4661 8.63073 23.967L5.994 19.3995L7.82076 18.3448C10.8724 23.631 10.4087 22.8279 10.4577 22.9125ZM9.26148 18.7308L8.73414 17.8175L9.64751 17.2901L10.1749 18.2035L9.26148 18.7308ZM19.6281 6.29025L20.3569 7.55258L19.707 8.53682L18.4509 6.3609L19.6281 6.29025ZM14.0953 2.48636C14.2369 2.25482 14.4614 2.23093 14.5524 2.2334C14.6425 2.23443 14.8668 2.26245 15.0021 2.49687L21.1358 13.121C21.3356 13.4669 21.0927 13.9017 20.6921 13.9116C20.6202 13.9133 20.587 13.9262 20.4029 13.9606L13.9147 2.72264C14.0508 2.54754 14.0684 2.53065 14.0953 2.48636ZM13.2129 3.61665L19.3088 14.1753L10.1087 15.9798L7.31134 11.1346L13.2129 3.61665ZM1.40817 17.7847C1.17663 17.3841 1.05427 16.9292 1.05427 16.469C1.05427 15.5285 1.55978 14.6526 2.37325 14.1829L6.48345 11.8099L9.12017 16.3767L5.00997 18.75C3.75073 19.4767 2.13512 19.0437 1.40817 17.7847Z" fill="#CBFA11"/>
<path d="M5.58918 16.5889C5.44354 16.3368 5.12096 16.2503 4.86882 16.3959L3.95544 16.9233C3.70372 17.0687 3.38051 16.982 3.23508 16.7303C3.08944 16.4781 2.76686 16.3916 2.51472 16.5372C2.26258 16.6829 2.17607 17.0055 2.3217 17.2576C2.75573 18.0095 3.72391 18.2746 4.48279 17.8366L5.39616 17.3093C5.6483 17.1637 5.73482 16.8413 5.58918 16.5889Z" fill="#CBFA11"/>
<path d="M26.2164 2.30695L23.2779 3.94213C23.0235 4.08385 22.9318 4.405 23.0735 4.6594C23.2148 4.9136 23.5358 5.00568 23.7908 4.86375L26.7291 3.22857C26.9837 3.08684 27.0751 2.7657 26.9334 2.5113C26.7919 2.25669 26.4708 2.16523 26.2164 2.30695Z" fill="#CBFA11"/>
<path d="M25.9081 7.76907L23.8706 7.22319C23.5892 7.1478 23.3 7.31465 23.2246 7.59604C23.1492 7.87743 23.3163 8.16644 23.5977 8.24183L25.6354 8.78771C25.9184 8.86373 26.2062 8.69419 26.2812 8.41487C26.3566 8.13348 26.1895 7.84426 25.9081 7.76907Z" fill="#CBFA11"/>
<path d="M20.7878 0.390961L20.2413 2.42865C20.1659 2.71004 20.3327 2.99905 20.6141 3.07465C20.8953 3.14984 21.1845 2.9834 21.2601 2.7018L21.8064 0.664109C21.8818 0.382721 21.7149 0.0935057 21.4335 0.0181119C21.1524 -0.057282 20.8632 0.109573 20.7878 0.390961Z" fill="#CBFA11"/>
</svg>
