<svg width="27" height="27" viewBox="0 0 27 27" fill="none" xmlns="http://www.w3.org/2000/svg">
<path d="M18.9136 15.5903C18.7516 15.4283 18.5322 15.3369 18.3032 15.3358C18.0741 15.3348 17.8539 15.4242 17.6904 15.5846C17.6834 15.5916 12.2049 21.0702 12.2049 21.0702C11.3775 21.8951 10.2565 22.358 9.08807 22.3569C7.91967 22.3559 6.79945 21.8911 5.97351 21.0647C5.15684 20.2084 4.71013 19.0649 4.73001 17.8818C4.7499 16.6986 5.23477 15.5708 6.07975 14.7424L6.88541 13.9365C6.93021 13.8917 6.96574 13.8385 6.98998 13.78C7.01422 13.7215 7.0267 13.6587 7.02669 13.5954C7.02669 13.532 7.01421 13.4693 6.98997 13.4108C6.96572 13.3523 6.93019 13.2991 6.88539 13.2543C6.8406 13.2095 6.78742 13.174 6.72889 13.1497C6.67036 13.1255 6.60763 13.113 6.54428 13.113C6.48093 13.113 6.4182 13.1255 6.35967 13.1497C6.30115 13.174 6.24797 13.2095 6.20318 13.2543L5.39703 14.0607C4.43611 15.0115 3.85964 16.2834 3.77797 17.6328C3.69631 18.9822 4.11518 20.3143 4.95442 21.3741C5.03445 21.3913 3.00009 23.3394 3.00959 23.3576C1.63621 21.8038 0.905151 19.7859 0.964646 17.713C1.02414 15.6401 1.86974 13.6674 3.32997 12.1949L6.43823 9.0867L8.40463 11.0531L7.57348 11.8842C7.48586 11.9752 7.43745 12.097 7.43866 12.2234C7.43987 12.3498 7.49061 12.4706 7.57996 12.5599C7.66931 12.6493 7.79016 12.7 7.91652 12.7012C8.04288 12.7025 8.16467 12.6541 8.25572 12.5664C8.26087 12.5637 11.4642 9.35791 11.4642 9.35791C11.6252 9.19623 11.7156 8.97732 11.7156 8.74913C11.7155 8.52094 11.6251 8.30207 11.464 8.14045L9.35091 6.02757C9.18726 5.87019 8.96904 5.78227 8.742 5.78223C8.51495 5.78218 8.2967 5.87002 8.13298 6.02734C6.89507 7.26514 3.91688 10.2435 2.64761 11.5127C-0.869941 14.8739 -0.885288 21.0036 2.61829 24.3596C6.12862 27.9731 12.1441 27.8215 15.69 24.2516C16.9458 22.9946 19.7967 20.1461 21.0266 18.9154C21.1859 18.7525 21.2749 18.5338 21.2748 18.3061C21.2746 18.0783 21.1852 17.8598 21.0257 17.6972L18.9136 15.5903ZM8.74193 6.78305L10.7083 8.74939L9.08681 10.3708L7.12046 8.40449L8.74193 6.78305ZM15.0077 23.5691C13.5279 25.0604 11.5396 25.9378 9.44052 26.026C7.34149 26.1142 5.28656 25.4065 3.68687 24.0447L5.65507 22.0766C6.68413 22.9336 7.99611 23.3753 9.3339 23.3153C10.6717 23.2554 11.9389 22.698 12.8871 21.7524L15.9955 18.644L17.9642 20.6127L15.0077 23.5691ZM18.6465 19.9305L16.6777 17.9617L18.2992 16.3403L20.2705 18.3066L18.6465 19.9305Z" fill="#CBFA11"/>
<path d="M17.9541 3.80647C17.953 2.79856 17.5521 1.83225 16.8394 1.11955C16.1267 0.406848 15.1604 0.00595617 14.1524 0.00482425C13.5119 -0.0643878 11.0671 0.619131 11.6845 1.53981C11.7654 1.63903 11.8823 1.70207 12.0097 1.71506C12.137 1.72805 12.2643 1.68993 12.3635 1.60908C12.8671 1.19412 13.4999 0.967992 14.1524 0.969733C14.9045 0.970579 15.6256 1.26973 16.1574 1.80155C16.6892 2.33337 16.9884 3.05444 16.9892 3.80655C16.9896 4.31148 16.8528 4.80704 16.5937 5.24039C16.3371 4.7508 15.9623 4.33308 15.5032 4.02519C15.6328 3.79059 15.6989 3.52626 15.695 3.25831C15.6912 2.99035 15.6175 2.72803 15.4813 2.49724C15.3451 2.26644 15.1511 2.07515 14.9184 1.94225C14.6857 1.80935 14.4224 1.73943 14.1544 1.73939C13.8864 1.73935 13.623 1.8092 13.3903 1.94203C13.1575 2.07487 12.9635 2.2661 12.8272 2.49686C12.6909 2.72762 12.6172 2.98992 12.6133 3.25787C12.6094 3.52583 12.6754 3.79017 12.8049 4.02481C12.3461 4.33388 11.9718 4.7527 11.7161 5.2432C11.5167 4.90632 11.3895 4.53168 11.3425 4.14303C11.2956 3.75438 11.3299 3.36022 11.4434 2.98555C11.4815 2.8634 11.4696 2.73111 11.4102 2.61776C11.3508 2.5044 11.2489 2.41926 11.1267 2.38104C10.3638 2.22225 10.3929 3.29057 10.3555 3.8065C10.3555 4.32314 10.4614 4.83429 10.6667 5.30839C10.872 5.78249 11.1723 6.20947 11.5491 6.56297C13.8948 8.84758 17.9888 7.10118 17.9541 3.80647ZM14.1543 2.70428C14.307 2.70653 14.4526 2.76875 14.5598 2.87749C14.6669 2.98624 14.727 3.13278 14.727 3.28545C14.727 3.43812 14.6669 3.58466 14.5597 3.6934C14.4526 3.80214 14.3069 3.86435 14.1543 3.86659C14.0016 3.86439 13.8559 3.80219 13.7487 3.69343C13.6415 3.58468 13.5815 3.43811 13.5815 3.28542C13.5815 3.13272 13.6416 2.98615 13.7488 2.87741C13.856 2.76866 14.0016 2.70648 14.1543 2.70428ZM13.5561 4.71076C13.7454 4.78975 13.9485 4.83046 14.1536 4.83052C14.3587 4.83059 14.5618 4.79001 14.7511 4.71114C15.2835 4.98907 15.6918 5.45705 15.895 6.02212C15.3998 6.41456 14.7871 6.62919 14.1552 6.63155C13.5233 6.6339 12.909 6.42384 12.4109 6.0351C12.6081 5.46277 13.0182 4.98846 13.5561 4.71076Z" fill="#CBFA11"/>
<path d="M23.1164 9.17676C22.563 9.17631 22.0162 9.29671 21.5141 9.52953C21.0121 9.76235 20.567 10.102 20.2098 10.5247C20.1272 10.6224 20.0867 10.749 20.0974 10.8765C20.108 11.0041 20.1689 11.1222 20.2666 11.2048C20.3643 11.2875 20.4909 11.3279 20.6184 11.3173C20.746 11.3066 20.8641 11.2458 20.9467 11.148C23.2311 8.55606 27.2448 11.4081 25.5548 14.4134C25.2982 13.9238 24.9233 13.5062 24.4642 13.1984C24.5938 12.9638 24.6599 12.6995 24.656 12.4315C24.6522 12.1636 24.5786 11.9013 24.4424 11.6705C24.3062 11.4397 24.1122 11.2484 23.8796 11.1154C23.6469 10.9825 23.3835 10.9126 23.1156 10.9125C22.8476 10.9124 22.5842 10.9823 22.3515 11.1151C22.1187 11.2479 21.9246 11.4391 21.7883 11.6698C21.652 11.9005 21.5783 12.1628 21.5743 12.4308C21.5704 12.6987 21.6363 12.9631 21.7657 13.1977C21.3061 13.5076 20.9313 13.9278 20.6757 14.4197C20.3662 13.9005 20.2326 13.2952 20.2947 12.6939C20.3029 12.631 20.2987 12.5672 20.2823 12.506C20.2659 12.4448 20.2376 12.3874 20.199 12.3371C20.1604 12.2868 20.1123 12.2447 20.0574 12.213C20.0025 12.1813 19.9419 12.1608 19.8791 12.1525C19.3913 12.0994 19.2867 12.5924 19.3147 12.9785C19.3125 13.4881 19.414 13.9929 19.6132 14.462C19.8124 14.9311 20.105 15.3548 20.4732 15.7071C20.9204 16.1394 21.4668 16.4553 22.0645 16.6271C22.6623 16.7988 23.293 16.8212 23.9015 16.6923C24.5099 16.5633 25.0773 16.287 25.554 15.8875C26.0307 15.488 26.402 14.9776 26.6353 14.4011C26.8687 13.8246 26.9569 13.1997 26.8923 12.5811C26.8277 11.9625 26.6122 11.3693 26.2647 10.8534C25.9173 10.3376 25.4485 9.91497 24.8996 9.62262C24.3506 9.33028 23.7383 9.17718 23.1164 9.17676ZM23.115 11.8774C23.2676 11.8796 23.4133 11.9418 23.5205 12.0505C23.6277 12.1593 23.6878 12.3059 23.6878 12.4586C23.6878 12.6113 23.6277 12.7578 23.5205 12.8666C23.4133 12.9753 23.2676 13.0375 23.1149 13.0397C22.9622 13.0376 22.8164 12.9754 22.7091 12.8667C22.6019 12.7579 22.5417 12.6113 22.5418 12.4585C22.5418 12.3058 22.6019 12.1591 22.7092 12.0504C22.8164 11.9416 22.9622 11.8795 23.115 11.8774ZM23.1164 15.8152C22.483 15.8132 21.8691 15.596 21.3752 15.1994C21.573 14.6307 21.9817 14.1598 22.5169 13.8839C22.7061 13.9635 22.9093 14.0046 23.1146 14.0046C23.3198 14.0047 23.523 13.9637 23.7122 13.8842C24.2485 14.1647 24.6589 14.6378 24.8608 15.2084C24.3642 15.6013 23.7496 15.8151 23.1164 15.8152Z" fill="#CBFA11"/>
</svg>
