<svg width="63" height="53" viewBox="0 0 63 53" fill="none" xmlns="http://www.w3.org/2000/svg">
<path d="M1.62207 15.7832V12.3498L3.8389 10.16H11.0301V7.59172L9.67835 6.26703H5.08248L3.73076 7.59172V8.70014H1.73021V7.024L4.21738 4.53683H10.5164L13.0036 7.024V18H11.0841V15.621L8.59697 18H3.8389L1.62207 15.7832ZM8.19145 16.2698L11.0301 13.5393V11.8902H4.704L3.62262 12.9446V15.2154L4.704 16.2698H8.19145ZM15.9715 16.1346L24.3251 6.26703V6.21296H16.2418V4.53683H26.6231V6.40221L18.2694 16.2698V16.3239H26.6231V18H15.9715V16.1346Z" fill="#CBFA11"/>
<path d="M29.3166 15.7832V12.3498L31.5334 10.16H38.7246V7.59172L37.3728 6.26703H32.777L31.4253 7.59172V8.70014H29.4247V7.024L31.9119 4.53683H38.2109L40.6981 7.024V18H38.7786V15.621L36.2915 18H31.5334L29.3166 15.7832ZM35.886 16.2698L38.7246 13.5393V11.8902H32.3985L31.3171 12.9446V15.2154L32.3985 16.2698H35.886ZM44.6122 4.53683H46.5587V6.9429L48.9647 4.53683H52.4522V6.3211H49.4784L46.6127 9.18676V18H44.6122V4.53683ZM56.2307 15.5128V6.29407H53.7976V4.53683H56.2847V0.157241H58.2312V4.53683H62.4486V6.29407H58.2312V14.891L59.5829 16.2428H62.4486V18H58.7178L56.2307 15.5128ZM3.24414 50.5128V41.2941H0.811035V39.5368H3.29821V35.1572H5.24469V39.5368H9.46207V41.2941H5.24469V49.891L6.59641 51.2428H9.46207V53H5.73131L3.24414 50.5128ZM11.8952 50.5128V42.024L14.3823 39.5368H21.168L23.6822 42.024V46.8632H13.8957V49.891L15.2474 51.2157H20.3029L21.6546 49.891V48.8637H23.6552V50.5128L21.168 53H14.3823L11.8952 50.5128ZM21.6817 45.133V42.6458L20.3299 41.3211H15.2474L13.8957 42.6458V45.133H21.6817ZM27.0493 50.5128V42.024L29.5364 39.5368H36.0247L38.5119 42.024V43.6731H36.5113V42.6458L35.1596 41.3211H30.4015L29.0498 42.6458V49.891L30.4015 51.2157H35.1596L36.5113 49.891V48.8637H38.5119V50.5128L36.0247 53H29.5364L27.0493 50.5128ZM41.7609 33.6974H43.7614V42.3484L46.573 39.5368H50.7634L53.2505 42.024V53H51.25V42.6458L49.8983 41.3211H47.1137L43.7614 44.6734V53H41.7609V33.6974Z" fill="white"/>
</svg>
