<svg width="32" height="29" viewBox="0 0 32 29" fill="none" xmlns="http://www.w3.org/2000/svg">
<path d="M25.1722 14.3224V7.45088C25.1722 7.3743 25.1521 7.29906 25.1138 7.23273C25.0756 7.1664 25.0205 7.11132 24.9542 7.07303L12.8041 0.0584108C12.7378 0.0201452 12.6627 0 12.5861 0C12.5096 0 12.4344 0.0201452 12.3681 0.0584108L0.217992 7.07325C0.151673 7.11154 0.0966088 7.16662 0.0583408 7.23295C0.0200727 7.29928 -4.90083e-05 7.37452 8.96356e-08 7.4511V21.4806C-4.90083e-05 21.5571 0.0200727 21.6324 0.0583408 21.6987C0.0966088 21.765 0.151673 21.8201 0.217992 21.8584L12.3681 28.8733C12.4344 28.9116 12.5096 28.9317 12.5861 28.9317C12.6627 28.9317 12.7378 28.9116 12.8041 28.8733L19.4994 25.0076C20.1619 25.983 21.0653 26.7706 22.1219 27.294C23.1786 27.8175 24.3525 28.0589 25.5299 27.9949C26.7073 27.9309 27.8482 27.5637 28.8419 26.9288C29.8356 26.294 30.6483 25.4131 31.2012 24.3716C31.7542 23.3302 32.0285 22.1635 31.9977 20.9847C31.9668 19.806 31.6318 18.6552 31.0252 17.6441C30.4186 16.6329 29.5609 15.7957 28.5354 15.2137C27.5099 14.6317 26.3513 14.3247 25.1722 14.3224ZM12.5861 13.9622L7.38302 10.9582L18.6611 4.44688L23.8639 7.45081L12.5861 13.9622ZM12.5861 0.939389L17.7889 3.94339L6.51077 10.4548L1.30802 7.45081L12.5861 0.939389ZM0.871968 8.20579L6.08234 11.2141V15.4267C6.08234 15.5423 6.12827 15.6532 6.21004 15.735C6.2918 15.8167 6.40269 15.8627 6.51832 15.8627C6.63395 15.8627 6.74485 15.8167 6.82661 15.735C6.90837 15.6532 6.95431 15.5423 6.95431 15.4267V11.7173L12.1501 14.7171V27.7403L0.871968 21.2291V8.20579ZM13.0221 27.7401V14.7174L24.3002 8.20593V14.3758C23.2121 14.513 22.1729 14.9098 21.2703 15.5329C20.3676 16.1559 19.628 16.9868 19.1138 17.9555C18.5996 18.9243 18.3258 20.0024 18.3156 21.0992C18.3054 22.1959 18.559 23.279 19.0551 24.2571L13.0221 27.7401ZM25.1577 27.1346C23.9769 27.1346 22.8226 26.7845 21.8408 26.1284C20.8589 25.4724 20.0937 24.5399 19.6418 23.449C19.1899 22.3581 19.0717 21.1576 19.3021 19.9995C19.5324 18.8414 20.1011 17.7775 20.936 16.9426C21.771 16.1076 22.8348 15.539 23.993 15.3086C25.1511 15.0782 26.3515 15.1965 27.4425 15.6483C28.5334 16.1002 29.4659 16.8655 30.1219 17.8473C30.7779 18.8291 31.1281 19.9834 31.1281 21.1642C31.1264 22.7472 30.4968 24.2648 29.3775 25.3841C28.2582 26.5034 26.7407 27.133 25.1577 27.1348V27.1346ZM26.592 19.008L24.7362 20.8638L24.2085 20.3362C24.0865 20.2127 23.9412 20.1145 23.7811 20.0474C23.621 19.9802 23.4492 19.9454 23.2755 19.9448C23.1019 19.9443 22.9299 19.9782 22.7694 20.0444C22.6089 20.1106 22.463 20.2079 22.3402 20.3306C22.2175 20.4534 22.1202 20.5993 22.054 20.7598C21.9878 20.9203 21.9539 21.0923 21.9545 21.2659C21.955 21.4396 21.9898 21.6114 22.057 21.7715C22.1241 21.9316 22.2223 22.0769 22.3458 22.1989C22.5904 22.4434 22.8332 22.7171 23.0681 22.9819C23.3043 23.2481 23.5273 23.4995 23.7542 23.7264C24.0016 23.9729 24.3365 24.1112 24.6856 24.1112C25.0347 24.1112 25.3696 23.9729 25.617 23.7264C26.0931 23.2504 26.5736 22.7648 27.0383 22.295C27.5014 21.827 27.9801 21.3431 28.4538 20.8695C28.7007 20.6226 28.8394 20.2878 28.8394 19.9386C28.8394 19.5895 28.7007 19.2546 28.4538 19.0078C28.2069 18.7609 27.8721 18.6222 27.5229 18.6222C27.1738 18.6222 26.8389 18.7609 26.592 19.0078V19.008ZM27.8373 20.2532C27.3621 20.7283 26.8823 21.2131 26.4185 21.6818C25.9547 22.1506 25.4749 22.6354 25.0004 23.1099C24.9166 23.1928 24.8035 23.2393 24.6856 23.2393C24.5678 23.2393 24.4547 23.1928 24.3708 23.1099C24.1623 22.9014 23.9477 22.6594 23.7204 22.4032C23.477 22.1289 23.2253 21.8453 22.9623 21.5821C22.921 21.5408 22.8883 21.4917 22.8659 21.4376C22.8436 21.3836 22.8321 21.3257 22.8321 21.2672C22.8322 21.2088 22.8437 21.1509 22.8662 21.0969C22.8886 21.0429 22.9214 20.9938 22.9628 20.9525C23.0041 20.9112 23.0532 20.8784 23.1073 20.8561C23.1613 20.8338 23.2192 20.8223 23.2777 20.8223C23.3361 20.8224 23.394 20.8339 23.448 20.8563C23.502 20.8787 23.5511 20.9116 23.5924 20.9529L24.428 21.7886C24.5098 21.8703 24.6207 21.9162 24.7363 21.9162C24.8519 21.9162 24.9628 21.8703 25.0445 21.7886L27.2086 19.6245C27.2921 19.542 27.4049 19.4958 27.5224 19.4961C27.6398 19.4965 27.7523 19.5433 27.8354 19.6263C27.9184 19.7094 27.9653 19.8219 27.9656 19.9393C27.966 20.0567 27.9199 20.1696 27.8374 20.2531L27.8373 20.2532Z" fill="#CBFA11"/>
</svg>
