<svg width="20" height="20" viewBox="0 0 20 20" fill="none" xmlns="http://www.w3.org/2000/svg">
<path opacity="0.8" d="M15.6201 16.1029C15.693 16.1845 15.7492 16.2798 15.7853 16.3832C15.8213 16.4866 15.8367 16.5961 15.8304 16.7054C15.8242 16.8148 15.7964 16.9218 15.7487 17.0204C15.7011 17.119 15.6344 17.2072 15.5526 17.28L14.2314 18.458C14.005 18.6821 13.7365 18.8592 13.4414 18.9792C13.1463 19.0991 12.8304 19.1596 12.5119 19.1569C12.1815 19.1576 11.8542 19.093 11.5489 18.9669C11.2435 18.8408 10.9661 18.6557 10.7324 18.4222L9.44611 17.2775C9.36439 17.2048 9.2978 17.1166 9.25013 17.0181C9.20247 16.9196 9.17468 16.8127 9.16833 16.7035C9.15552 16.4829 9.23087 16.2662 9.3778 16.1012C9.52473 15.9361 9.73121 15.8362 9.95181 15.8234C10.061 15.8171 10.1705 15.8323 10.2738 15.8682C10.3771 15.9042 10.4724 15.9601 10.5541 16.0329L11.6663 17.0276V10.8261C11.6663 10.6052 11.7541 10.3933 11.9103 10.237C12.0665 10.0808 12.2784 9.99302 12.4994 9.99302C12.7203 9.99302 12.9322 10.0808 13.0884 10.237C13.2447 10.3933 13.3325 10.6052 13.3325 10.8261V17.0284L14.4446 16.0354C14.6095 15.8886 14.8259 15.8132 15.0463 15.8259C15.2667 15.8385 15.4731 15.9382 15.6201 16.1029ZM15.2952 5.29525C15.1522 5.25083 15.0223 5.17166 14.9174 5.0648C14.8124 4.95795 14.7356 4.82675 14.6937 4.68293C14.2526 3.26677 13.3517 2.03822 12.1336 1.19182C10.9155 0.345427 9.44989 -0.0704396 7.9688 0.0100742C6.48771 0.0905879 5.07581 0.66288 3.95665 1.63633C2.8375 2.60978 2.07506 3.92875 1.79007 5.38439C1.49764 6.85646 1.73364 8.38451 2.45654 9.69977C1.61383 10.1348 0.92858 10.823 0.497051 11.6675C0.0655212 12.512 -0.0906105 13.4705 0.0505871 14.4084C0.267732 15.4979 0.851026 16.4803 1.70361 17.1926C2.55619 17.9048 3.62675 18.304 4.73752 18.3239H6.66778C6.88872 18.3239 7.10062 18.2361 7.25686 18.0799C7.41309 17.9236 7.50086 17.7117 7.50086 17.4908C7.50086 17.2698 7.41309 17.0579 7.25686 16.9017C7.10062 16.7455 6.88872 16.6577 6.66778 16.6577H4.73752C4.02603 16.644 3.33977 16.3917 2.78893 15.9412C2.23808 15.4906 1.85461 14.8681 1.70009 14.1734C1.60963 13.5766 1.70834 12.9664 1.98236 12.4285C2.25639 11.8906 2.69197 11.452 3.22797 11.1743C3.61002 10.9632 3.89354 10.6101 4.01719 10.1914C4.14083 9.77281 4.09464 9.32233 3.88861 8.9375C3.56513 8.32056 3.37417 7.64282 3.32799 6.94775C3.2818 6.25268 3.38141 5.55563 3.62042 4.90131C3.85943 4.247 4.23257 3.64987 4.7159 3.14822C5.19922 2.64657 5.78206 2.25149 6.42704 1.98831C7.07201 1.72513 7.76487 1.59967 8.46118 1.61997C9.15748 1.64027 9.84186 1.80589 10.4704 2.1062C11.0989 2.40651 11.6578 2.83489 12.1111 3.36384C12.5643 3.8928 12.902 4.51066 13.1025 5.17779C13.2258 5.57992 13.4455 5.94586 13.7424 6.24379C14.0393 6.54171 14.4045 6.76261 14.8062 6.88728C15.8944 7.21842 16.8363 7.91255 17.4748 8.85395C18.1134 9.79536 18.4099 10.9272 18.3151 12.0607C18.2524 12.9422 17.9304 13.7853 17.3896 14.4842C17.2549 14.6594 17.1954 14.8809 17.224 15.1C17.2527 15.3192 17.3672 15.5179 17.5424 15.6526C17.7177 15.7872 17.9392 15.8468 18.1583 15.8181C18.3774 15.7895 18.5762 15.6749 18.7108 15.4997C19.4448 14.5428 19.8848 13.3931 19.9771 12.1907C20.103 10.6792 19.7068 9.17029 18.8549 7.9155C18.0029 6.66071 16.7465 5.73589 15.2952 5.29525Z" fill="#282835"/>
</svg>
