<svg width="32" height="28" viewBox="0 0 32 28" fill="none" xmlns="http://www.w3.org/2000/svg">
<path d="M17.7529 18.4192C18.2011 17.6745 18.5326 16.8751 18.7418 16.0335H19.9708C20.2475 16.0335 20.4718 15.8092 20.4718 15.5326V12.2835C20.4718 12.0069 20.2475 11.7826 19.9708 11.7826H18.7418C18.5325 10.9408 18.201 10.1414 17.7529 9.39702L18.6226 8.52739C18.8182 8.33169 18.8182 8.01458 18.6226 7.81888L16.3252 5.5214C16.1295 5.32583 15.8124 5.32583 15.6167 5.5214L14.7469 6.39103C14.0024 5.94278 13.2029 5.61145 12.3614 5.40217V4.17308C12.3614 3.89642 12.1371 3.6721 11.8604 3.6721H8.61136C8.3347 3.6721 8.11039 3.89642 8.11039 4.17308V5.40217C7.26843 5.61157 6.469 5.94291 5.72473 6.39103L4.85522 5.5214C4.65965 5.32583 4.34247 5.32583 4.14672 5.5214L1.84923 7.81876C1.65354 8.01445 1.65354 8.33157 1.84923 8.52726L2.71887 9.3969C2.27062 10.1415 1.93916 10.941 1.73 11.7826H0.500977C0.224313 11.7826 0 12.0069 0 12.2835V15.5326C0 15.8092 0.224313 16.0335 0.500977 16.0335H1.72994C1.93935 16.8756 2.27068 17.6751 2.71893 18.4193L1.8493 19.2888C1.75536 19.3828 1.70251 19.5102 1.70251 19.643C1.70251 19.776 1.75536 19.9033 1.8493 19.9973L4.14678 22.2948C4.34247 22.4904 4.65959 22.4904 4.85529 22.2948L5.72479 21.4252C6.46943 21.8734 7.26893 22.2049 8.11045 22.414V23.643C8.11045 23.9197 8.33476 24.144 8.61143 24.144H11.8605C12.1371 24.144 12.3614 23.9197 12.3614 23.643V22.414C13.2033 22.2046 14.0028 21.8733 14.7471 21.4252L15.6166 22.2947C15.8123 22.4903 16.1295 22.4904 16.3251 22.2947L18.6226 19.9973C18.7166 19.9033 18.7694 19.776 18.7694 19.643C18.7694 19.5102 18.7166 19.3828 18.6227 19.2888L17.7529 18.4192ZM15.9708 21.2319L15.1719 20.433C15.003 20.2641 14.7383 20.2379 14.5394 20.3705C13.6928 20.9357 12.7584 21.3229 11.7624 21.5216C11.5282 21.5683 11.3594 21.774 11.3594 22.0129V23.142H9.11228V22.0129C9.11228 21.774 8.94364 21.5683 8.70924 21.5216C7.71368 21.3232 6.77935 20.9359 5.93207 20.3706C5.73331 20.2379 5.46879 20.2641 5.29972 20.433L4.50078 21.2321L2.91206 19.643L3.71099 18.8441C3.88001 18.6752 3.90618 18.4104 3.77349 18.2117C3.20832 17.3652 2.82107 16.4308 2.62243 15.4346C2.57571 15.2003 2.37 15.0315 2.1311 15.0315H1.00195V12.7844H2.1311C2.37006 12.7844 2.57571 12.6158 2.62243 12.3814C2.82082 11.386 3.2082 10.4516 3.77349 9.60437C3.90606 9.4056 3.88001 9.14096 3.71112 8.97201L2.91206 8.17295L4.50097 6.58403L5.30003 7.38309C5.46892 7.55186 5.73362 7.57804 5.93239 7.44547C6.77904 6.88043 7.7133 6.49317 8.70943 6.29453C8.94376 6.24782 9.11247 6.0421 9.11247 5.8032V4.67393H11.3595V5.8032C11.3595 6.04204 11.5283 6.24782 11.7626 6.29453C12.7581 6.49292 13.6925 6.8803 14.5396 7.44559C14.7384 7.57816 15.0029 7.55199 15.172 7.38309L15.971 6.58403L17.5601 8.17295L16.7609 8.97201C16.592 9.14102 16.5659 9.40573 16.6985 9.60449C17.2636 10.4512 17.6508 11.3855 17.8495 12.3814C17.8962 12.6157 18.1019 12.7844 18.3408 12.7844H19.4701V15.0315H18.3408C18.1019 15.0315 17.8962 15.2003 17.8495 15.4347C17.6511 16.4301 17.2638 17.3644 16.6985 18.2117C16.5659 18.4104 16.5921 18.675 16.761 18.8441L17.5601 19.643L15.9708 21.2319ZM10.2359 7.2075C6.5412 7.2075 3.53534 10.2134 3.53534 13.9081C3.53534 17.6028 6.5412 20.6087 10.2359 20.6087C13.9306 20.6087 16.9365 17.6028 16.9365 13.9081C16.9365 10.2134 13.9306 7.2075 10.2359 7.2075ZM10.2359 19.6067C7.09365 19.6067 4.53729 17.0503 4.53729 13.9081C4.53729 10.7658 7.09365 8.20946 10.2359 8.20946C13.3782 8.20946 15.9345 10.7658 15.9345 13.9081C15.9345 17.0503 13.3782 19.6067 10.2359 19.6067ZM10.2359 8.66741C7.34621 8.66741 4.99518 11.0184 4.99518 13.9081C4.99518 16.7979 7.34621 19.1489 10.2359 19.1489C13.1257 19.1489 15.4766 16.798 15.4766 13.9081C15.4766 11.0184 13.1257 8.66741 10.2359 8.66741ZM10.2359 18.1468C7.89872 18.1468 5.99714 16.2454 5.99714 13.9081C5.99714 11.5709 7.89866 9.6693 10.2359 9.6693C12.5732 9.6693 14.4747 11.5708 14.4747 13.9081C14.4747 16.2454 12.5732 18.1468 10.2359 18.1468ZM11.8342 14.8951C11.8342 15.5804 11.3685 16.159 10.7369 16.3309V16.7253C10.7369 17.0019 10.5126 17.2262 10.236 17.2262C9.95931 17.2262 9.73499 17.0019 9.73499 16.7253V16.352C9.37504 16.2769 9.04947 16.0689 8.82941 15.7646C8.66735 15.5404 8.71763 15.2273 8.94182 15.0651C9.16613 14.9031 9.47925 14.9535 9.64131 15.1776C9.73355 15.305 9.8809 15.3811 10.0356 15.3811H10.3463C10.6143 15.3811 10.8323 15.163 10.8323 14.8951C10.8323 14.6272 10.6143 14.4091 10.3463 14.4091H10.1257C9.30522 14.4091 8.63779 13.7416 8.63779 12.9212C8.63779 12.2359 9.10357 11.6572 9.73499 11.4852V11.0909C9.73499 10.8142 9.95931 10.5899 10.236 10.5899C10.5126 10.5899 10.7369 10.8142 10.7369 11.0909V11.4642C11.0969 11.5394 11.4223 11.7472 11.6424 12.0515C11.8046 12.2757 11.7543 12.5888 11.5301 12.751C11.3061 12.9132 10.9927 12.8629 10.8306 12.6387C10.7384 12.5113 10.591 12.4351 10.4363 12.4351H10.1256C9.85767 12.4351 9.63968 12.6531 9.63968 12.9212C9.63968 13.1892 9.85761 13.4071 10.1256 13.4071H10.3462C11.1667 13.4071 11.8342 14.0746 11.8342 14.8951ZM31.499 4.96619H30.896C30.776 4.53466 30.6048 4.12154 30.384 3.73122L30.8106 3.30457C30.9047 3.21064 30.9574 3.0832 30.9574 2.95038C30.9574 2.81756 30.9047 2.69012 30.8107 2.59619L29.4041 1.18938C29.3101 1.09532 29.1827 1.0426 29.0497 1.0426C28.9169 1.0426 28.7895 1.09532 28.6956 1.18926L28.2689 1.61597C27.8784 1.3951 27.4652 1.22383 27.0338 1.10397V0.500978C27.0338 0.224313 26.8095 0 26.5328 0H24.5433C24.2667 0 24.0423 0.224313 24.0423 0.500978V1.10397C23.6108 1.22395 23.1977 1.39516 22.8072 1.61584L22.3807 1.18932C22.2868 1.09526 22.1594 1.04253 22.0264 1.04253C21.8936 1.04253 21.7662 1.09526 21.6722 1.1892L20.2654 2.596C20.1715 2.68994 20.1186 2.81737 20.1186 2.95019C20.1186 3.08314 20.1715 3.21058 20.2654 3.30451L20.6921 3.73103C20.4712 4.12154 20.2999 4.53472 20.1801 4.96613H19.5772C19.3005 4.96613 19.0762 5.19044 19.0762 5.4671V7.45661C19.0762 7.73328 19.3005 7.95759 19.5772 7.95759H20.1801C20.3 8.38924 20.4713 8.80236 20.6921 9.19269L20.2654 9.61933C20.0698 9.81503 20.0698 10.1321 20.2654 10.3278L21.6722 11.7345C21.7662 11.8285 21.8936 11.8813 22.0264 11.8813C22.1594 11.8813 22.2868 11.8285 22.3807 11.7345L22.8072 11.3079C23.1978 11.5287 23.6109 11.7 24.0423 11.8199V12.4227C24.0423 12.6994 24.2667 12.9237 24.5433 12.9237H26.5328C26.8095 12.9237 27.0338 12.6994 27.0338 12.4227V11.8199C27.4653 11.6999 27.8785 11.5287 28.2689 11.3079L28.6956 11.7345C28.8911 11.9301 29.2084 11.9301 29.404 11.7345L30.8108 10.3278C31.0064 10.1321 31.0064 9.81503 30.8108 9.61933L30.3842 9.19269C30.6049 8.80218 30.7762 8.38899 30.896 7.95759H31.499C31.7757 7.95759 32 7.73328 32 7.45661V5.4671C31.9999 5.1905 31.7756 4.96619 31.499 4.96619ZM30.998 6.9557H30.5007C30.2619 6.9557 30.0561 7.12446 30.0094 7.35886C29.893 7.94325 29.6656 8.49182 29.3336 8.98935C29.201 9.18799 29.2271 9.45263 29.396 9.62159L29.748 9.97359L29.0497 10.6718L28.6977 10.3199C28.529 10.1511 28.2643 10.1249 28.0654 10.2575C27.5682 10.5894 27.0197 10.8168 26.4349 10.9333C26.2006 10.98 26.0319 11.1858 26.0319 11.4247V11.9218H25.0443V11.4247C25.0443 11.1858 24.8757 10.98 24.6413 10.9333C24.0567 10.8169 23.5082 10.5894 23.0106 10.2575C22.8119 10.1248 22.5472 10.1509 22.3783 10.3199L22.0264 10.6718L21.3282 9.97359L21.6802 9.62171C21.8491 9.45282 21.8751 9.18799 21.7425 8.98935C21.4107 8.49226 21.1833 7.94362 21.0667 7.35873C21.0199 7.12453 20.8144 6.9557 20.5753 6.9557H20.0782V5.96815H20.5753C20.8143 5.96815 21.0199 5.7995 21.0667 5.56511C21.1831 4.98059 21.4106 4.43202 21.7425 3.93461C21.8751 3.73585 21.8491 3.47109 21.68 3.30213L21.3282 2.95026L22.0264 2.25202L22.3783 2.60389C22.5471 2.77291 22.8119 2.79896 23.0106 2.66639C23.5077 2.33456 24.0564 2.10717 24.6413 1.99063C24.8756 1.94392 25.0443 1.7382 25.0443 1.4993V1.00202H26.0319V1.4993C26.0319 1.73814 26.2005 1.94392 26.4349 1.99063C27.0194 2.10705 27.568 2.33456 28.0655 2.66652C28.2643 2.79909 28.5288 2.77291 28.6979 2.60402L29.0497 2.25202L29.748 2.95026L29.396 3.30226C29.2271 3.47115 29.2009 3.73585 29.3336 3.93461C29.6654 4.43177 29.8928 4.98034 30.0094 5.56511C30.0561 5.79944 30.2618 5.96815 30.5007 5.96815H30.998V6.9557ZM25.538 2.8614C23.5527 2.8614 21.9375 4.47661 21.9375 6.46205C21.9375 8.44736 23.5527 10.0626 25.538 10.0626C27.5235 10.0626 29.1387 8.44736 29.1387 6.46205C29.1387 4.47661 27.5235 2.8614 25.538 2.8614ZM25.538 9.06062C24.1052 9.06062 22.9394 7.8949 22.9394 6.46205C22.9394 5.02906 24.1052 3.86335 25.538 3.86335C26.971 3.86335 28.1367 5.02906 28.1367 6.46205C28.1367 7.8949 26.9709 9.06062 25.538 9.06062ZM31.499 19.8585H30.896C30.776 19.427 30.6048 19.0138 30.384 18.6235L30.8106 18.1969C30.9047 18.1029 30.9574 17.9755 30.9574 17.8427C30.9574 17.7099 30.9047 17.5824 30.8107 17.4885L29.4041 16.0817C29.3101 15.9876 29.1827 15.9349 29.0497 15.9349C28.9169 15.9349 28.7895 15.9876 28.6956 16.0816L28.2689 16.5083C27.8785 16.2875 27.4652 16.1161 27.0338 15.9963V15.3933C27.0338 15.1166 26.8095 14.8923 26.5328 14.8923H24.5433C24.2667 14.8923 24.0423 15.1166 24.0423 15.3933V15.9963C23.6108 16.1161 23.1977 16.2873 22.8072 16.5081L22.3807 16.0816C22.2868 15.9876 22.1594 15.9348 22.0264 15.9348C21.8936 15.9348 21.7662 15.9876 21.6722 16.0815L20.2654 17.4883C20.1715 17.5822 20.1186 17.7097 20.1186 17.8425C20.1186 17.9754 20.1715 18.1029 20.2654 18.1968L20.6921 18.6233C20.4712 19.0138 20.2999 19.427 20.1801 19.8584H19.5772C19.3005 19.8584 19.0762 20.0827 19.0762 20.3594V22.3489C19.0762 22.6256 19.3005 22.8499 19.5772 22.8499H20.1801C20.3 23.2816 20.4713 23.6947 20.6921 24.085L20.2655 24.5115C20.1715 24.6054 20.1188 24.7329 20.1188 24.8658C20.1188 24.9987 20.1715 25.1261 20.2654 25.22L21.6722 26.6268C21.7662 26.7208 21.8936 26.7736 22.0264 26.7736C22.1594 26.7736 22.2868 26.7208 22.3807 26.6268L22.8072 26.2002C23.1978 26.4211 23.6109 26.5923 24.0423 26.7122V27.315C24.0423 27.5917 24.2667 27.816 24.5433 27.816H26.5328C26.8095 27.816 27.0338 27.5917 27.0338 27.315V26.7122C27.4653 26.5922 27.8785 26.421 28.2689 26.2002L28.6956 26.6268C28.8911 26.8224 29.2083 26.8224 29.404 26.6268L30.8108 25.22C30.9047 25.1261 30.9575 24.9987 30.9575 24.8658C30.9575 24.7329 30.9047 24.6056 30.8108 24.5115L30.3842 24.085C30.6049 23.6945 30.7762 23.2813 30.8962 22.8499H31.499C31.7757 22.8499 32 22.6256 32 22.3489V20.3594C31.9999 20.0829 31.7756 19.8585 31.499 19.8585ZM30.998 21.848H30.5007C30.2619 21.848 30.0561 22.0166 30.0094 22.251C29.893 22.8356 29.6656 23.3841 29.3336 23.8817C29.201 24.0803 29.2271 24.3449 29.396 24.514L29.748 24.8659L29.0497 25.5641L28.6977 25.2123C28.529 25.0434 28.2643 25.0173 28.0654 25.1498C27.5682 25.4817 27.0197 25.7091 26.4349 25.8256C26.2006 25.8724 26.0319 26.0781 26.0319 26.317V26.8141H25.0443V26.317C25.0443 26.0781 24.8757 25.8724 24.6413 25.8256C24.0567 25.7092 23.5082 25.4817 23.0106 25.1498C22.8119 25.0171 22.5472 25.0434 22.3783 25.2123L22.0264 25.5641L21.3282 24.8659L21.68 24.514C21.8491 24.3451 21.8752 24.0803 21.7425 23.8817C21.4107 23.3846 21.1833 22.8359 21.0667 22.251C21.0199 22.0167 20.8144 21.848 20.5753 21.848H20.0782V20.8605H20.5753C20.8143 20.8605 21.0201 20.6918 21.0667 20.4574C21.1831 19.8729 21.4106 19.3243 21.7425 18.8269C21.8751 18.6282 21.8491 18.3634 21.68 18.1944L21.3282 17.8426L22.0264 17.1443L22.3783 17.4962C22.5471 17.6652 22.8119 17.6913 23.0106 17.5587C23.5078 17.2269 24.0565 16.9995 24.6413 16.8829C24.8756 16.8362 25.0443 16.6305 25.0443 16.3916V15.8943H26.0319V16.3916C26.0319 16.6304 26.2005 16.8362 26.4349 16.8829C27.0195 16.9994 27.5681 17.2269 28.0654 17.5588C28.2641 17.6914 28.5288 17.6652 28.6979 17.4963L29.0497 17.1443L29.748 17.8426L29.396 18.1946C29.2271 18.3635 29.2009 18.6282 29.3336 18.8269C29.6654 19.3241 29.8928 19.8727 30.0094 20.4574C30.0561 20.6917 30.2618 20.8605 30.5007 20.8605H30.998V21.848ZM25.538 17.7537C23.5527 17.7537 21.9375 19.3689 21.9375 21.3542C21.9375 23.3397 23.5527 24.9549 25.538 24.9549C27.5235 24.9549 29.1387 23.3397 29.1387 21.3542C29.1387 19.3689 27.5235 17.7537 25.538 17.7537ZM25.538 23.9529C24.1052 23.9529 22.9394 22.7872 22.9394 21.3542C22.9394 19.9214 24.1052 18.7557 25.538 18.7557C26.971 18.7557 28.1367 19.9214 28.1367 21.3542C28.1367 22.7872 26.9709 23.9529 25.538 23.9529Z" fill="#CBFA11"/>
</svg>
