<svg width="29" height="32" viewBox="0 0 29 32" fill="none" xmlns="http://www.w3.org/2000/svg">
<path fill-rule="evenodd" clip-rule="evenodd" d="M14.8153 0.202875C14.3469 -0.0676251 13.7693 -0.0676251 13.3009 0.202875L0.757813 7.44113C0.28875 7.71163 0 8.21157 0 8.75326V23.2409C0 23.7821 0.28875 24.282 0.757313 24.553L13.3003 31.797C13.7693 32.0677 14.3468 32.0677 14.8158 31.797L27.3559 24.553C27.8243 24.2819 28.1131 23.782 28.1131 23.2408V8.7527C28.1131 8.21151 27.8243 7.71163 27.3554 7.44107L14.8153 0.202875Z" fill="#838383"/>
<path d="M27.3803 7.44115L14.8022 0.202891C14.6781 0.131204 14.5452 0.0798911 14.4085 0.0462036L0.311523 24.1611C0.432461 24.3402 0.550149 24.4613 0.708711 24.553L13.3082 31.7971C13.6651 32.0031 14.0892 32.0513 14.4784 31.9437L27.7176 7.70065C27.6171 7.60077 27.504 7.51252 27.3803 7.44115Z" fill="#565656"/>
<path d="M27.3873 24.553C27.7528 24.3415 28.0117 23.971 28.0841 23.5365L14.4085 0.0461914C14.0484 -0.0254961 13.5985 0.0158164 13.2745 0.202879L0.780884 7.39757L14.2776 31.9853C14.4702 31.9591 14.6588 31.8968 14.8315 31.7971L27.3873 24.553Z" fill="#414141"/>
</svg>
