<svg width="23" height="25" viewBox="0 0 23 25" fill="none" xmlns="http://www.w3.org/2000/svg">
<path d="M5.06168 18.8941L7.71735 23.4941C8.29043 24.4879 9.57954 24.8558 10.599 24.2664C11.6078 23.6834 11.9544 22.3945 11.3709 21.385L9.78883 18.6444L11.1589 17.8534C11.411 17.7076 11.4975 17.3852 11.3519 17.133L10.6662 15.9453C10.7479 15.9294 11.2856 15.824 20.7669 13.964C21.939 13.9004 22.6412 12.6185 22.0492 11.5937L20.2966 8.55813L21.4166 6.86177C21.5266 6.69492 21.5332 6.48048 21.4333 6.30744L20.3786 4.48069C20.2787 4.30765 20.0889 4.20631 19.8902 4.21805L17.8613 4.33979L15.9157 0.969728C15.6339 0.481522 15.129 0.185921 14.5654 0.178917C14.5586 0.178711 14.552 0.178711 14.5452 0.178711C14.0006 0.178711 13.5062 0.449799 13.2133 0.908136L6.32442 9.68389L1.8459 12.2695C0.0844491 13.2861 -0.525705 15.5459 0.494789 17.3121C1.42712 18.927 3.39271 19.5623 5.06168 18.8941ZM10.4577 21.9125C10.749 22.4164 10.5765 23.0611 10.0712 23.353C9.56429 23.6462 8.91871 23.4661 8.63073 22.967L5.994 18.3995L7.82076 17.3448C10.8724 22.631 10.4087 21.8279 10.4577 21.9125ZM9.26148 17.7308L8.73414 16.8175L9.64751 16.2901L10.1749 17.2035L9.26148 17.7308ZM19.6281 5.29025L20.3569 6.55258L19.707 7.53682L18.4509 5.3609L19.6281 5.29025ZM14.0953 1.48636C14.2369 1.25482 14.4614 1.23093 14.5524 1.2334C14.6425 1.23443 14.8668 1.26245 15.0021 1.49687L21.1358 12.121C21.3356 12.4669 21.0927 12.9017 20.6921 12.9116C20.6202 12.9133 20.587 12.9262 20.4029 12.9606L13.9147 1.72264C14.0508 1.54754 14.0684 1.53065 14.0953 1.48636ZM13.2129 2.61665L19.3088 13.1753L10.1087 14.9798L7.31134 10.1346L13.2129 2.61665ZM1.40817 16.7847C1.17663 16.3841 1.05427 15.9292 1.05427 15.469C1.05427 14.5285 1.55978 13.6526 2.37325 13.1829L6.48345 10.8099L9.12017 15.3767L5.00997 17.75C3.75073 18.4767 2.13512 18.0437 1.40817 16.7847Z" fill="#CBFA11"/>
</svg>
