q<svg width="32" height="31" viewBox="0 0 32 31" fill="none" xmlns="http://www.w3.org/2000/svg">
<path d="M8.56066 19.2649C8.8595 19.0925 8.9618 18.7099 8.78943 18.4111C8.61682 18.1125 8.23448 18.0099 7.93564 18.1823C7.6368 18.3549 7.53426 18.7375 7.70687 19.0361C7.87924 19.3349 8.26182 19.4375 8.56066 19.2649Z" fill="#CBFA11"/>
<path d="M5.99921 23.5793L9.14677 29.0314C9.82599 30.2092 11.3539 30.6452 12.5622 29.9467C13.7578 29.2558 14.1687 27.7282 13.477 26.5316L11.6019 23.2834L13.2258 22.3459C13.5246 22.173 13.6271 21.7909 13.4545 21.4921L12.6418 20.0844C12.7387 20.0656 13.3759 19.9405 24.6133 17.7361C26.0025 17.6607 26.8348 16.1414 26.1332 14.9267L24.0559 11.3289L25.3834 9.31837C25.5138 9.12061 25.5216 8.86646 25.4032 8.66137L24.1531 6.49626C24.0347 6.29118 23.8098 6.17105 23.5742 6.18497L21.1696 6.32926L18.8636 2.33499C18.5296 1.75636 17.9312 1.40601 17.2632 1.39771C17.2552 1.39746 17.2474 1.39746 17.2393 1.39746C16.5938 1.39746 16.0078 1.71876 15.6607 2.26199L7.49584 12.6632L2.18781 15.7278C0.100091 16.9326 -0.623077 19.6109 0.586435 21.7043C1.69145 23.6184 4.02112 24.3714 5.99921 23.5793ZM12.3947 27.1568C12.7399 27.754 12.5356 28.5182 11.9367 28.8642C11.3358 29.2116 10.5706 28.9982 10.2293 28.4066L7.10423 22.9931L9.26933 21.7431C12.8862 28.0084 12.3366 27.0565 12.3947 27.1568ZM10.9769 22.2006L10.3519 21.1181L11.4344 20.4931L12.0595 21.5756L10.9769 22.2006ZM23.2637 7.45576L24.1275 8.95191L23.3572 10.1184L21.8684 7.53951L23.2637 7.45576ZM16.7061 2.94732C16.8738 2.67289 17.14 2.64457 17.2479 2.6475C17.3546 2.64872 17.6204 2.68193 17.7808 2.95977L25.0506 15.5517C25.2874 15.9617 24.9996 16.4771 24.5247 16.4888C24.4395 16.4907 24.4002 16.5061 24.1819 16.5469L16.492 3.22735C16.6534 3.01983 16.6741 2.99981 16.7061 2.94732ZM15.6602 4.28696L22.8853 16.8013L11.9811 18.94L8.66556 13.1974L15.6602 4.28696ZM1.66899 21.0793C1.39457 20.6044 1.24954 20.0653 1.24954 19.5199C1.24954 18.4051 1.84868 17.367 2.81283 16.8103L7.68432 13.9977L10.8094 19.4105L5.93793 22.2233C4.44545 23.0847 2.53059 22.5715 1.66899 21.0793Z" fill="#CBFA11"/>
<path d="M6.62253 19.6612C6.44992 19.3624 6.06758 19.2598 5.76874 19.4325L4.68619 20.0575C4.38784 20.2299 4.00477 20.1271 3.8324 19.8287C3.65979 19.5299 3.27745 19.4273 2.97861 19.5999C2.67977 19.7726 2.57723 20.1549 2.74984 20.4537C3.26426 21.3449 4.41176 21.6591 5.31121 21.14L6.39376 20.515C6.6926 20.3424 6.79514 19.9603 6.62253 19.6612Z" fill="#CBFA11"/>
<path d="M31.0716 2.73435L27.5888 4.6724C27.2873 4.84037 27.1786 5.221 27.3466 5.52252C27.5141 5.8238 27.8945 5.93294 28.1967 5.76472L31.6793 3.82667C31.981 3.65869 32.0894 3.27807 31.9215 2.97654C31.7537 2.67477 31.3731 2.56637 31.0716 2.73435Z" fill="#CBFA11"/>
<path d="M30.7078 9.2085L28.293 8.56151C27.9595 8.47215 27.6167 8.66991 27.5273 9.00341C27.438 9.33692 27.636 9.67946 27.9695 9.76882L30.3846 10.4158C30.72 10.5059 31.0611 10.305 31.15 9.97391C31.2393 9.6404 31.0413 9.29761 30.7078 9.2085Z" fill="#CBFA11"/>
<path d="M24.6379 0.463375L23.9902 2.87849C23.9009 3.212 24.0986 3.55454 24.4321 3.64414C24.7654 3.73326 25.1082 3.53599 25.1978 3.20223L25.8453 0.787117C25.9346 0.45361 25.7369 0.110825 25.4033 0.0214666C25.0701 -0.0678918 24.7273 0.129869 24.6379 0.463375Z" fill="#CBFA11"/>
</svg>
