<svg width="30" height="27" viewBox="0 0 30 27" fill="none" xmlns="http://www.w3.org/2000/svg">
<path d="M28.7106 18.7098C21.5805 6.364 18.2793 0.129764 17.6044 0.804731C16.966 0.416293 16.2554 0.161454 15.5157 0.0556428C14.776 -0.0501681 14.0225 -0.00474918 13.3008 0.18915C12.5791 0.383048 11.9043 0.721393 11.3172 1.1837C10.7301 1.646 10.2429 2.22265 9.88521 2.87872C8.95253 4.4741 13.2355 -2.93827 0.791571 18.6239C0.271167 19.4844 -0.00265953 20.4715 1.94706e-05 21.4771C1.94706e-05 27.1162 7.49829 29.0981 10.3025 24.2383C10.7381 23.4775 8.73163 26.9628 14.7266 16.5683L19.1445 24.2383C19.8769 25.5069 21.0831 26.4326 22.4979 26.8117C23.9128 27.1909 25.4203 26.9925 26.6888 26.2602C27.9574 25.5279 28.883 24.3216 29.2622 22.9068C29.6414 21.4919 29.443 19.9844 28.7106 18.7159V18.7098ZM5.52247 25.7724C4.76809 25.7732 4.0268 25.5754 3.37317 25.1987C2.71954 24.8221 2.17664 24.2799 1.79908 23.6268C1.42153 22.9737 1.22264 22.2327 1.22243 21.4783C1.22222 20.7239 1.42069 19.9828 1.79789 19.3295C1.81369 19.3037 1.82803 19.2771 1.84084 19.2497C4.42412 14.9852 11.137 17.8875 9.59682 22.7718C9.32274 23.6389 8.78057 24.3965 8.04838 24.9357C7.3162 25.475 6.43178 25.7679 5.52247 25.7724ZM10.9774 20.6181C10.8493 19.8048 10.541 19.0305 10.075 18.3517C9.609 17.673 8.99716 17.1071 8.28423 16.6953C7.5713 16.2835 6.77532 16.0364 5.95455 15.972C5.13378 15.9075 4.30899 16.0274 3.54053 16.3228L9.27161 6.39468C9.49864 7.83052 9.92817 8.27232 14.0148 15.3595L10.9774 20.6181ZM23.9307 25.7724C23.1769 25.7721 22.4365 25.5735 21.7838 25.1966C21.1311 24.8196 20.5891 24.2775 20.2122 23.6247C10.0509 6.02652 10.4313 7.06965 10.4313 5.52336C10.4318 4.77619 10.6272 4.04206 10.9981 3.39349C11.3691 2.74491 11.9028 2.20432 12.5466 1.82511C13.1904 1.4459 13.922 1.24118 14.6691 1.23118C15.4162 1.22119 16.153 1.40625 16.8067 1.76809C18.1075 2.34488 17.9112 2.45533 27.6123 19.2497C28.0078 19.9018 28.2225 20.6474 28.2344 21.4099C28.2464 22.1724 28.0551 22.9243 27.6802 23.5884C27.3054 24.2525 26.7605 24.8049 26.1015 25.1887C25.4425 25.5725 24.6933 25.774 23.9307 25.7724Z" fill="#CBFA11"/>
</svg>
