<svg width="27" height="18" viewBox="0 0 27 18" fill="none" xmlns="http://www.w3.org/2000/svg">
<path d="M19.3777 0C17.1638 0 15.4331 1.66746 13.8664 3.7857C11.7135 1.04451 9.91308 0 7.75845 0C3.36573 0 0 5.71679 0 11.7676C0 15.5541 1.83184 17.9423 4.90009 17.9423C7.10845 17.9423 8.69671 16.9011 11.5202 11.9656C11.5202 11.9656 12.6971 9.88713 13.5068 8.45539C13.7905 8.9135 14.0887 9.40635 14.4033 9.93628L15.7273 12.1636C18.3065 16.4796 19.7435 17.9422 22.3474 17.9422C25.3365 17.9422 27 15.5214 27 11.6562C27.0001 5.3208 23.5584 0 19.3777 0ZM9.36712 10.6293C7.07792 14.2177 6.286 15.022 5.01146 15.022C3.6998 15.022 2.92028 13.8705 2.92028 11.8172C2.92028 7.42438 5.1105 2.93262 7.72138 2.93262C9.13525 2.93262 10.3168 3.74916 12.1266 6.34011C10.4081 8.97604 9.36712 10.6293 9.36712 10.6293ZM18.0068 10.1775L16.4238 7.53734C15.9954 6.84061 15.5848 6.20036 15.1887 5.61337C16.6155 3.41124 17.7923 2.31394 19.1921 2.31394C22.1 2.31394 24.4263 6.59534 24.4263 11.8543C24.4263 13.8589 23.7697 15.022 22.4094 15.022C21.1054 15.022 20.4825 14.1609 18.0068 10.1775Z" fill="#CBFA11"/>
</svg>
