<svg width="23" height="27" viewBox="0 0 23 27" fill="none" xmlns="http://www.w3.org/2000/svg">
<path d="M11.7316 6.45643H11.1445V5.86962C11.1445 2.03235 13.1769 0 17.0142 0H17.601V0.587027C17.601 4.42409 15.5686 6.45643 11.7316 6.45643ZM16.405 1.19598C13.8518 1.37202 12.5166 2.70729 12.333 5.26798C14.9304 5.09193 16.2363 3.7859 16.405 1.19598Z" fill="#CBFA11"/>
<path d="M16.4275 26.9995C15.4819 26.9989 14.5508 26.7697 13.7129 26.3319C12.4776 25.6705 10.9934 25.6705 9.75827 26.3319C8.92018 26.7697 7.98902 26.9989 7.04346 26.9995C3.09634 26.9995 0 21.5847 0 14.6735C0 10.4693 3.16233 7.04297 7.04346 7.04297C7.7702 7.04297 8.492 7.16442 9.17855 7.40258L11.3577 8.15813C11.6073 8.24432 11.8785 8.24432 12.1281 8.15813L14.2997 7.40258C14.9841 7.16549 15.7031 7.04404 16.4275 7.04297C18.5478 7.04297 20.5287 8.0629 21.8788 9.83838L22.3923 10.5206L21.5706 10.7554C19.4607 11.3635 18.0553 13.3543 18.1892 15.5461C18.3229 17.738 19.96 19.5431 22.1282 19.8898L22.796 19.9999L22.5905 20.6456C21.3726 24.5635 19.0028 26.9995 16.4275 26.9995ZM11.7319 24.6516C12.6122 24.6585 13.478 24.8775 14.2557 25.29C14.925 25.6434 15.6707 25.8272 16.4275 25.8255C18.3498 25.8255 20.1766 23.9545 21.2772 20.9025C18.7498 20.1934 17.0059 17.8852 17.0145 15.2603C17.0246 12.9779 18.3504 10.9063 20.4187 9.94113C19.3403 8.84059 17.9242 8.21681 16.4275 8.21681C15.8332 8.21702 15.2429 8.31611 14.6813 8.51043L12.5023 9.26597C12.0053 9.43664 11.4656 9.43664 10.9689 9.26597L8.7824 8.51043C8.22074 8.31611 7.63049 8.21681 7.03615 8.21681C3.80052 8.21681 1.16674 11.115 1.16674 14.6735C1.16674 20.7191 3.85189 25.8255 7.03615 25.8255C7.79299 25.8274 8.53886 25.6436 9.208 25.29C9.98569 24.8775 10.8515 24.6585 11.7319 24.6516Z" fill="#CBFA11"/>
</svg>
