<svg width="30" height="32" viewBox="0 0 30 32" fill="none" xmlns="http://www.w3.org/2000/svg">
<path d="M18.4841 20.6127C17.281 20.73 16.0691 20.5093 14.9845 19.9755C14.7388 19.779 14.5361 19.5341 14.3887 19.2561C14.2413 18.9781 14.1525 18.6729 14.1278 18.3592C14.1272 18.3123 14.1174 18.2659 14.0989 18.2228C14.0804 18.1797 14.0534 18.1407 14.0197 18.108C13.986 18.0754 13.9461 18.0497 13.9024 18.0326C13.8587 18.0154 13.8121 18.0071 13.7652 18.0081C13.2586 18.002 12.7522 18.0033 12.2457 18.0075C12.1572 17.9984 12.0687 18.0247 11.9994 18.0804C11.9301 18.1362 11.8856 18.2171 11.8755 18.3055C11.8466 18.8558 11.9396 19.4057 12.1479 19.9159C12.3562 20.4261 12.6746 20.8839 13.0804 21.2568C14.1047 22.0561 15.3485 22.524 16.6456 22.5979C17.9972 22.7547 19.3651 22.6966 20.6986 22.4258C21.7225 22.2348 22.6612 21.7289 23.3838 20.9787C23.7832 20.4863 24.0509 19.9003 24.1617 19.276C24.2726 18.6516 24.2229 18.0094 24.0174 17.4095C23.8448 16.9866 23.5776 16.6089 23.2363 16.3054C22.8951 16.0018 22.4888 15.7804 22.0487 15.6582C19.9995 14.9392 17.7858 14.9936 15.6967 14.4472C15.334 14.333 14.8908 14.2091 14.7292 13.8251C14.6358 13.5549 14.6294 13.2622 14.711 12.9882C14.7925 12.7142 14.9579 12.4726 15.1839 12.2975C15.8398 11.9226 16.5868 11.7366 17.3419 11.7602C18.3668 11.6637 19.3999 11.8115 20.3566 12.1915C20.644 12.3605 20.8911 12.5901 21.0809 12.8642C21.2706 13.1383 21.3984 13.4505 21.4554 13.779C21.4582 13.876 21.497 13.9684 21.5644 14.0381C21.6318 14.1079 21.7228 14.15 21.8196 14.1561C22.3225 14.1663 22.8256 14.1588 23.3286 14.1595C23.4158 14.1699 23.5038 14.1485 23.5765 14.0992C23.6492 14.0499 23.7017 13.976 23.7243 13.8911C23.7288 13.2127 23.5559 12.545 23.2229 11.9539C22.8899 11.3629 22.4082 10.8691 21.8256 10.5215C20.2176 9.7794 18.4328 9.5063 16.6765 9.73362C15.3897 9.78637 14.1602 10.2802 13.1946 11.1325C12.7513 11.6103 12.4512 12.203 12.3283 12.843C12.2054 13.4831 12.2648 14.1448 12.4996 14.7527C12.6824 15.16 12.9514 15.5228 13.2879 15.8161C13.6245 16.1094 14.0206 16.3262 14.449 16.4516C16.4914 17.1893 18.7299 16.9526 20.7921 17.6049C21.194 17.7412 21.662 17.9497 21.7851 18.397C21.8513 18.6651 21.8463 18.9458 21.7706 19.2113C21.6949 19.4768 21.5512 19.718 21.3537 19.9109C20.496 20.4437 19.4909 20.6895 18.4841 20.6127ZM27.7944 7.10007C23.8068 4.84513 19.8183 2.59222 15.8288 0.341348C15.4286 0.117521 14.9776 0 14.519 0C14.0604 0 13.6094 0.117521 13.2091 0.341348C9.23519 2.58541 5.26106 4.82937 1.28673 7.07322C0.900094 7.28396 0.576886 7.59431 0.35063 7.97207C0.124374 8.34983 0.00331156 8.78125 0 9.22157V22.7804C0.00636358 23.2288 0.133945 23.667 0.369214 24.0487C0.604483 24.4304 0.938668 24.7413 1.33633 24.9484C2.47795 25.5698 3.58712 26.2545 4.74943 26.8346C5.42029 27.1932 6.1654 27.3908 6.92581 27.4117C7.68623 27.4326 8.44107 27.2762 9.13061 26.955C9.64656 26.6318 10.0664 26.1761 10.3463 25.6355C10.6263 25.0949 10.7561 24.489 10.7223 23.8811C10.7312 19.4064 10.7237 14.9315 10.7257 10.4567C10.7335 10.4077 10.7309 10.3577 10.718 10.3099C10.7051 10.2621 10.6823 10.2175 10.651 10.1791C10.6197 10.1407 10.5806 10.1094 10.5363 10.0871C10.4921 10.0649 10.4436 10.0522 10.3941 10.05C9.88627 10.0418 9.37768 10.0452 8.86987 10.0487C8.82285 10.0444 8.77547 10.0502 8.73083 10.0656C8.6862 10.081 8.64532 10.1056 8.61087 10.1379C8.57643 10.1702 8.54919 10.2094 8.53096 10.2529C8.51272 10.2964 8.5039 10.3434 8.50507 10.3906C8.49824 14.8366 8.50644 19.2839 8.50097 23.7306C8.50213 24.0375 8.40942 24.3374 8.23525 24.5902C8.06108 24.8429 7.8138 25.0363 7.52657 25.1445C7.19581 25.2423 6.84815 25.2692 6.50629 25.2234C6.16443 25.1777 5.83607 25.0603 5.54267 24.879C4.48504 24.2817 3.42744 23.6844 2.36985 23.0872C2.29978 23.054 2.24156 23.0001 2.20304 22.9328C2.16453 22.8655 2.14756 22.788 2.15443 22.7107C2.15443 18.2373 2.15443 13.7641 2.15443 9.29104C2.14707 9.20403 2.1674 9.11691 2.21252 9.04215C2.25763 8.96738 2.32522 8.90878 2.40563 8.87472C6.36651 6.6439 10.3266 4.41075 14.286 2.17525C14.3548 2.12828 14.4361 2.10321 14.5194 2.10334C14.6027 2.10346 14.684 2.12877 14.7526 2.17593C18.7134 4.40745 22.6739 6.63975 26.6343 8.87283C26.7143 8.90784 26.7814 8.96696 26.8262 9.04195C26.871 9.11694 26.8912 9.20405 26.8841 9.29111C26.8834 13.7637 26.883 18.2368 26.8828 22.7101C26.8898 22.7877 26.8732 22.8656 26.8353 22.9336C26.7973 23.0016 26.7397 23.0566 26.6701 23.0914C22.7698 25.2967 18.8675 27.4989 14.9632 29.6979C14.7766 29.8019 14.5558 29.969 14.3377 29.8432C13.3151 29.2643 12.305 28.6631 11.2859 28.0788C11.2338 28.0389 11.171 28.0156 11.1055 28.0116C11.0401 28.0077 10.9749 28.0234 10.9184 28.0567C10.4695 28.3197 9.99701 28.5402 9.50707 28.7153C9.28617 28.8048 9.0144 28.8303 8.86235 29.0351C9.05616 29.246 9.29096 29.4151 9.55238 29.5321C10.7443 30.2223 11.9368 30.9118 13.13 31.6007C13.5246 31.8485 13.9785 31.9861 14.4443 31.999C14.9101 32.0119 15.3709 31.8998 15.7786 31.6743C19.7532 29.4332 23.7275 27.1911 27.7017 24.948C28.099 24.7405 28.4329 24.4296 28.6683 24.0481C28.9036 23.6665 29.0316 23.2286 29.0387 22.7804V9.22157C29.0353 8.78994 28.9186 8.36677 28.7003 7.99443C28.4819 7.6221 28.1695 7.31368 27.7944 7.10007Z" fill="#737373"/>
</svg>
