<svg width="25" height="32" viewBox="0 0 25 32" fill="none" xmlns="http://www.w3.org/2000/svg">
<path d="M1.06666 6.15156e-05C0.48497 6.15156e-05 0 0.485039 0 1.06674V30.9333C0 31.515 0.484943 32 1.06666 32H23.4645C24.0463 32 24.5312 31.515 24.5312 30.9333V6.93337C24.5313 6.78521 24.4698 6.64371 24.3614 6.54274L17.4291 0.141732C17.3305 0.0506204 17.201 0 17.0666 0L1.06666 6.15156e-05ZM1.06666 1.06674H16.5312V8.00005H23.4645V30.9333H1.06666V1.06674ZM17.5979 1.74901L23.2135 6.93337H17.5979V1.74901ZM4.2677 4.26777C3.686 4.26777 3.20104 4.75275 3.20104 5.33445V7.4688C3.20104 8.0505 3.686 8.53548 4.2677 8.53548H6.39686C6.97856 8.53548 7.46457 8.0505 7.46457 7.4688V5.33445C7.46457 4.75275 6.97856 4.26777 6.39686 4.26777H4.2677ZM9.5979 4.79902C8.87065 4.78289 8.87065 5.88203 9.5979 5.8657H14.4052C15.1005 5.84957 15.1005 4.81462 14.4052 4.79902H9.5979ZM4.2677 5.33445H6.39686V7.4688H4.2677V5.33445ZM9.5979 6.93337C8.90198 6.94748 8.90198 7.98503 9.5979 8.00005H14.4291C15.1251 7.98594 15.1251 6.9484 14.4291 6.93337H9.5979ZM4.2677 10.6646C3.686 10.6646 3.20104 11.1506 3.20104 11.7323V13.8657C3.20104 14.4474 3.686 14.9334 4.2677 14.9334H6.39686C6.97856 14.9334 7.46457 14.4474 7.46457 13.8657V11.7323C7.46457 11.1506 6.97856 10.6646 6.39686 10.6646H4.2677ZM9.5979 12.2678H21.3302C22.042 12.2678 22.042 11.2 21.3302 11.2H9.5979C8.87231 11.2041 8.89061 12.275 9.5979 12.2678ZM4.2677 11.7323H6.39686V13.8657H4.2677V11.7323ZM9.5979 14.4011H21.3302C22.0568 14.4172 22.0568 13.3188 21.3302 13.3344H9.5979C8.89046 13.336 8.89078 14.4025 9.5979 14.4011ZM4.2677 17.0667C3.686 17.0667 3.20104 17.5516 3.20104 18.1333V20.2677C3.20104 20.8495 3.686 21.3344 4.2677 21.3344H6.39686C6.97856 21.3344 7.46457 20.8495 7.46457 20.2677V18.1333C7.46457 17.5516 6.97856 17.0667 6.39686 17.0667H4.2677ZM9.5979 17.598C8.87065 17.5818 8.87065 18.6809 9.5979 18.6646H20.7989C21.4942 18.6485 21.4942 17.6136 20.7989 17.598H9.5979ZM4.2677 18.1333H6.39686V20.2677H4.2677V18.1333ZM9.6104 19.7323C8.88377 19.7162 8.88377 20.8147 9.6104 20.799H20.7989C21.5255 20.8151 21.5255 19.7166 20.7989 19.7323H9.6104ZM4.2677 23.4688C3.686 23.4688 3.20104 23.9537 3.20104 24.5354V26.6646C3.20104 27.2463 3.686 27.7323 4.2677 27.7323H6.39686C6.97856 27.7323 7.46457 27.2463 7.46457 26.6646V24.5354C7.46457 23.9537 6.97856 23.4688 6.39686 23.4688H4.2677ZM9.5979 24C8.90258 24.0161 8.90258 25.0511 9.5979 25.0667H20.7989C21.5262 25.0828 21.5262 23.9837 20.7989 24H9.5979ZM4.2677 24.5354H6.39686V26.6646H4.2677V24.5354ZM9.5979 27.2H20.7989C21.5255 27.2161 21.5255 26.1176 20.7989 26.1333H9.5979C8.86633 26.1394 8.91408 27.2043 9.5979 27.2Z" fill="#CBFA11"/>
</svg>
