<svg width="259" height="221" viewBox="0 0 259 221" fill="none" xmlns="http://www.w3.org/2000/svg">
<g filter="url(#filter0_bii_1348_667)">
<rect x="38.1865" y="0.865723" width="220.134" height="220.134" fill="url(#paint0_linear_1348_667)" fill-opacity="0.1"/>
</g>
<rect y="198.537" width="22.4627" height="22.4627" fill="#CBFA11"/>
<path d="M64.2927 114.938V107.226L69.2723 102.307H85.4256V96.5381L82.3893 93.5625H72.0658L69.0294 96.5381V99.0279H64.5357V95.2628L70.1225 89.676H84.2718L89.8587 95.2628V119.918H85.5471V114.574L79.9602 119.918H69.2723L64.2927 114.938ZM79.0493 116.031L85.4256 109.898V106.194H71.2156L68.7865 108.562V113.663L71.2156 116.031H79.0493Z" fill="#CBFA11"/>
<path d="M96.5253 115.728L115.29 93.5625V93.441H97.1326V89.676H120.452V93.8661L101.687 116.031V116.153H120.452V119.918H96.5253V115.728Z" fill="#CBFA11"/>
<path d="M129.825 114.938V107.226L134.805 102.307H150.958V96.5381L147.922 93.5625H137.598L134.562 96.5381V99.0279H130.068V95.2628L135.655 89.676H149.805L155.391 95.2628V119.918H151.08V114.574L145.493 119.918H134.805L129.825 114.938ZM144.582 116.031L150.958 109.898V106.194H136.748L134.319 108.562V113.663L136.748 116.031H144.582Z" fill="white"/>
<path d="M164.183 89.676H168.556V95.0807L173.96 89.676H181.794V93.6839H175.114L168.677 100.121V119.918H164.183V89.676Z" fill="white"/>
<path d="M190.282 114.331V93.6232H184.816V89.676H190.403V79.8383H194.776V89.676H204.249V93.6232H194.776V112.934L197.812 115.971H204.249V119.918H195.869L190.282 114.331Z" fill="white"/>
<path d="M67.9364 177.227V156.519H62.4709V152.572H68.0578V142.734H72.4301V152.572H81.9035V156.519H72.4301V175.83L75.4665 178.866H81.9035V182.813H73.5232L67.9364 177.227Z" fill="white"/>
<path d="M87.3689 177.227V158.158L92.9558 152.572H108.198L113.846 158.158V169.028H91.8627V175.83L94.899 178.805H106.255L109.291 175.83V173.522H113.785V177.227L108.198 182.813H92.9558L87.3689 177.227ZM109.352 165.142V159.555L106.316 156.579H94.899L91.8627 159.555V165.142H109.352Z" fill="white"/>
<path d="M121.409 177.227V158.158L126.996 152.572H141.57L147.157 158.158V161.863H142.663V159.555L139.627 156.579H128.939L125.903 159.555V175.83L128.939 178.805H139.627L142.663 175.83V173.522H147.157V177.227L141.57 182.813H126.996L121.409 177.227Z" fill="white"/>
<path d="M154.455 139.455H158.949V158.887L165.265 152.572H174.677L180.264 158.158V182.813H175.77V159.555L172.734 156.579H166.479L158.949 164.11V182.813H154.455V139.455Z" fill="white"/>
</svg>
