<svg width="27" height="27" viewBox="0 0 27 27" fill="none" xmlns="http://www.w3.org/2000/svg">
<path d="M26.7201 14.0568C26.717 13.9248 26.6624 13.7992 26.568 13.7069C26.4735 13.6146 26.3467 13.5629 26.2146 13.5628H23.2823V13.2425C23.2831 12.829 23.1741 12.4227 22.9664 12.0651C22.7587 11.7075 22.4599 11.4115 22.1003 11.2072C21.7408 11.003 21.3335 10.8978 20.92 10.9025C20.5065 10.9072 20.1017 11.0216 19.7469 11.234V8.1957L22.3603 9.13625C22.4764 9.17799 22.6038 9.17583 22.7185 9.13018C22.8331 9.08453 22.9271 8.99854 22.9828 8.8884L25.1897 4.51497C25.2468 4.40175 25.2592 4.27122 25.2246 4.14924C25.19 4.02726 25.1109 3.92273 25.0028 3.85636L19.8018 0.667281C19.7451 0.632593 19.682 0.609428 19.6163 0.599109L15.8773 0.00635616C15.8511 0.00206509 15.8246 -6.02764e-05 15.7981 1.3004e-06H9.44595C9.41954 -6.01698e-05 9.39316 0.00206525 9.36709 0.00635616L5.62888 0.598531C5.56329 0.608902 5.50037 0.632065 5.44372 0.666704L0.241244 3.85578C0.133161 3.92211 0.0539376 4.02662 0.0192692 4.1486C-0.0153993 4.27058 -0.00298266 4.40114 0.0540589 4.5144L2.26099 8.88783C2.31661 8.99801 2.41062 9.08404 2.52529 9.12969C2.63996 9.17535 2.76737 9.17748 2.8835 9.13567L5.49716 8.19483V21.6049C5.49712 21.6712 5.51017 21.737 5.53556 21.7984C5.56095 21.8597 5.59819 21.9154 5.64513 21.9624C5.69208 22.0093 5.74783 22.0466 5.80918 22.072C5.87052 22.0974 5.93628 22.1104 6.00267 22.1104H14.9777L14.92 24.5446C14.9126 24.8645 14.9693 25.1825 15.0866 25.4801C15.2039 25.7777 15.3795 26.0489 15.6031 26.2776C15.8268 26.5064 16.0939 26.6881 16.3887 26.8122C16.6836 26.9362 17.0003 27.0001 17.3201 27H24.5649C24.8847 27.0001 25.2012 26.9362 25.496 26.8121C25.7907 26.688 26.0576 26.5063 26.281 26.2775C26.5044 26.0487 26.6798 25.7775 26.7968 25.4799C26.9139 25.1823 26.9702 24.8643 26.9625 24.5446L26.7201 14.0568ZM20.9428 11.9134C21.2951 11.9139 21.6327 12.0541 21.8818 12.3032C22.1309 12.5523 22.2711 12.8899 22.2716 13.2422V13.5628H19.7469V12.6711C19.8545 12.4451 20.0238 12.254 20.2352 12.12C20.4466 11.9859 20.6916 11.9143 20.9419 11.9134H20.9428ZM15.2556 1.01248C15.1539 1.60788 14.8451 2.14818 14.3836 2.53795C13.9222 2.92771 13.3378 3.14186 12.7338 3.14257H12.5102C11.9062 3.14187 11.3218 2.92773 10.8603 2.53797C10.3988 2.14821 10.0899 1.6079 9.98815 1.01248H15.2556ZM6.50819 21.0993V7.47643C6.50823 7.39529 6.48874 7.31534 6.45135 7.24333C6.41396 7.17132 6.35978 7.10938 6.29339 7.06274C6.227 7.0161 6.15035 6.98614 6.06993 6.97538C5.98951 6.96463 5.90769 6.9734 5.83137 7.00095L2.96092 8.03365L1.16648 4.4754L5.88655 1.58183L8.98146 1.09076C9.10385 1.93986 9.52778 2.71654 10.1757 3.27878C10.8237 3.84101 11.6524 4.15124 12.5102 4.15274H12.7338C13.5917 4.15129 14.4204 3.84108 15.0683 3.27882C15.7162 2.71657 16.14 1.93986 16.2623 1.09076L19.3575 1.58183L24.077 4.4754L22.282 8.03365L19.4127 7.00095C19.3364 6.9734 19.2546 6.96463 19.1741 6.97538C19.0937 6.98614 19.0171 7.0161 18.9507 7.06274C18.8843 7.10938 18.8301 7.17132 18.7927 7.24333C18.7553 7.31534 18.7358 7.39529 18.7359 7.47643V12.4686C18.6476 12.7171 18.6022 12.9788 18.6016 13.2425V13.5628H15.6681C15.5361 13.5629 15.4092 13.6146 15.3148 13.7069C15.2203 13.7992 15.1657 13.9248 15.1626 14.0568L15 21.0993H6.50819ZM25.558 25.571C25.4291 25.7038 25.2748 25.8093 25.1042 25.8812C24.9336 25.953 24.7503 25.9898 24.5652 25.9893H17.3204C17.1353 25.9894 16.9519 25.9525 16.7812 25.8807C16.6106 25.809 16.4559 25.7038 16.3265 25.5714C16.197 25.439 16.0953 25.2821 16.0274 25.1098C15.9595 24.9375 15.9267 24.7534 15.931 24.5683L15.9992 21.6245C15.9992 21.6216 15.9992 21.619 15.9992 21.6158L16.1609 14.5733H18.6004V15.5892C18.6004 15.7233 18.6537 15.8519 18.7485 15.9467C18.8433 16.0415 18.9718 16.0947 19.1059 16.0947C19.24 16.0947 19.3686 16.0415 19.4634 15.9467C19.5582 15.8519 19.6114 15.7233 19.6114 15.5892V14.5739H22.269V15.5898C22.269 15.7239 22.3223 15.8525 22.4171 15.9473C22.5119 16.0421 22.6404 16.0953 22.7745 16.0953C22.9086 16.0953 23.0372 16.0421 23.132 15.9473C23.2268 15.8525 23.28 15.7239 23.28 15.5898V14.5739H25.7183L25.9494 24.5686C25.9548 24.7534 25.9229 24.9374 25.8557 25.1096C25.7884 25.2818 25.6872 25.4387 25.558 25.571Z" fill="#CBFA11"/>
<path d="M23.958 23.5635H22.1471C22.013 23.5635 21.8845 23.6167 21.7897 23.7115C21.6949 23.8063 21.6416 23.9349 21.6416 24.069C21.6416 24.2031 21.6949 24.3316 21.7897 24.4264C21.8845 24.5212 22.013 24.5745 22.1471 24.5745H23.958C24.0921 24.5745 24.2207 24.5212 24.3155 24.4264C24.4103 24.3316 24.4635 24.2031 24.4635 24.069C24.4635 23.9349 24.4103 23.8063 24.3155 23.7115C24.2207 23.6167 24.0921 23.5635 23.958 23.5635Z" fill="#CBFA11"/>
</svg>
