<svg width="29" height="32" viewBox="0 0 29 32" fill="none" xmlns="http://www.w3.org/2000/svg">
<path fill-rule="evenodd" clip-rule="evenodd" d="M14.8153 0.202875C14.3469 -0.0676251 13.7693 -0.0676251 13.3009 0.202875L0.757813 7.44113C0.28875 7.71163 0 8.21157 0 8.75326V23.2409C0 23.7821 0.28875 24.282 0.757313 24.553L13.3003 31.797C13.7693 32.0677 14.3468 32.0677 14.8158 31.797L27.3559 24.553C27.8243 24.2819 28.1131 23.782 28.1131 23.2408V8.7527C28.1131 8.21151 27.8243 7.71163 27.3554 7.44107L14.8153 0.202875Z" fill="#0A3101"/>
<path d="M27.3803 7.44109L14.8022 0.20283C14.6781 0.131143 14.5452 0.0798301 14.4085 0.0461426L0.311523 24.161C0.432461 24.3401 0.550149 24.4612 0.708711 24.553L13.3082 31.797C13.6651 32.003 14.0892 32.0512 14.4784 31.9437L27.7176 7.70059C27.6171 7.60071 27.504 7.51246 27.3803 7.44109Z" fill="#1E620F"/>
<path d="M27.3872 24.5531C27.7527 24.3416 28.0115 23.9711 28.084 23.5366L14.4083 0.0463135C14.0483 -0.025374 13.5984 0.0159385 13.2744 0.203001L0.780762 7.3977L14.2775 31.9855C14.4701 31.9592 14.6587 31.8969 14.8314 31.7972L27.3872 24.5531Z" fill="#539E43"/>
</svg>
