<svg width="32" height="32" viewBox="0 0 32 32" fill="none" xmlns="http://www.w3.org/2000/svg">
<path d="M16.4999 6.25V0.5C16.4999 0.223875 16.2761 0 16 0C15.7238 0 15.5 0.223875 15.5 0.5V6.25C15.5 6.52612 15.7238 6.75 16 6.75C16.2761 6.75 16.4999 6.52612 16.4999 6.25Z" fill="#CBFA11"/>
<path d="M15.5 25.75V31.5C15.5 31.7761 15.7238 32 16 32C16.2761 32 16.4999 31.7761 16.4999 31.5V25.75C16.4999 25.4739 16.2761 25.25 16 25.25C15.7238 25.25 15.5 25.4739 15.5 25.75Z" fill="#CBFA11"/>
<path d="M31.5 15.5H25.75C25.4739 15.5 25.25 15.7239 25.25 16C25.25 16.2761 25.4739 16.5 25.75 16.5H31.5C31.7761 16.5 32 16.2761 32 16C32 15.7239 31.7761 15.5 31.5 15.5Z" fill="#CBFA11"/>
<path d="M6.75 16C6.75 15.7239 6.52612 15.5 6.25 15.5H0.5C0.223875 15.5 0 15.7239 0 16C0 16.2761 0.223875 16.5 0.5 16.5H6.25C6.52612 16.5 6.75 16.2761 6.75 16Z" fill="#CBFA11"/>
<path d="M14.7442 4.80769C14.7015 4.53488 14.4459 4.34825 14.173 4.39081C11.7067 4.77606 9.46542 5.91725 7.6916 7.69106C5.91779 9.46488 4.7766 11.7061 4.39142 14.1724C4.3571 14.3922 4.48148 14.6107 4.68185 14.7034C4.97529 14.8393 5.32985 14.6438 5.37942 14.3267C6.10242 9.69775 9.69829 6.10188 14.3273 5.37888C14.6002 5.33625 14.7868 5.0805 14.7442 4.80769Z" fill="#CBFA11"/>
<path d="M4.80769 17.256C4.53482 17.2986 4.34825 17.5543 4.39082 17.8272C4.776 20.2935 5.91719 22.5347 7.691 24.3086C9.46482 26.0824 11.706 27.2236 14.1723 27.6087C14.4393 27.6504 14.7014 27.4609 14.7435 27.1919C14.7861 26.9191 14.5995 26.6633 14.3266 26.6207C9.69769 25.8977 6.10188 22.3019 5.37888 17.6729C5.33625 17.4 5.08069 17.2137 4.80769 17.256Z" fill="#CBFA11"/>
<path d="M17.7495 27.6143C17.7753 27.6147 17.8013 27.6129 17.8272 27.6088C20.2935 27.2237 22.5347 26.0825 24.3085 24.3087C26.0824 22.5348 27.2236 20.2937 27.6088 17.8273C27.6514 17.5545 27.4647 17.2987 27.1919 17.2561C26.9189 17.2133 26.6633 17.4002 26.6207 17.673C25.8978 22.302 22.3019 25.8978 17.6729 26.6208C17.4001 26.6634 17.2135 26.9192 17.256 27.192C17.2931 27.4296 17.5133 27.6108 17.7495 27.6143Z" fill="#CBFA11"/>
<path d="M27.1144 14.7454C27.1193 14.7455 27.1243 14.7455 27.1293 14.7455C27.4236 14.7434 27.6541 14.4624 27.6089 14.1728C27.2237 11.7064 26.0826 9.46511 24.3087 7.69123C22.5349 5.91736 20.2936 4.77611 17.8273 4.39086C17.5543 4.34811 17.2986 4.53486 17.2561 4.80773C17.2134 5.08055 17.4001 5.3363 17.6729 5.37892C22.3021 6.10192 25.8979 9.69798 26.6208 14.3271C26.658 14.5652 26.8774 14.74 27.1144 14.7454Z" fill="#CBFA11"/>
<path d="M14.1888 1.36025C10.9489 1.757 7.88796 3.25213 5.56978 5.57031C3.25159 7.8885 1.7564 10.9494 1.35971 14.1894C1.3109 14.5879 1.8199 14.8891 2.1489 14.6551C2.25996 14.5761 2.33578 14.4458 2.35228 14.3109C3.1204 8.03825 8.03771 3.12094 14.3103 2.35282C14.5845 2.31925 14.7794 2.06981 14.7458 1.79575C14.7123 1.52163 14.4627 1.32644 14.1888 1.36025Z" fill="#CBFA11"/>
<path d="M14.1892 30.6399C14.3658 30.6616 14.5491 30.5822 14.6541 30.4383C14.8753 30.1349 14.6815 29.6928 14.3108 29.6474C8.0382 28.8793 3.12083 23.9619 2.35277 17.6893C2.31914 17.4152 2.06914 17.2199 1.7957 17.2538C1.52158 17.2874 1.32664 17.5368 1.3602 17.8109C1.75695 21.0508 3.25208 24.1118 5.57027 26.4299C7.88833 28.748 10.9493 30.2432 14.1892 30.6399Z" fill="#CBFA11"/>
<path d="M30.2045 17.2538C29.9294 17.22 29.6809 17.4152 29.6474 17.6893C28.8793 23.9619 23.9619 28.8792 17.6893 29.6474C17.4273 29.6794 17.2351 29.9189 17.2531 30.1804C17.2576 30.2451 17.2742 30.3089 17.3032 30.3669C17.3956 30.5519 17.6056 30.6652 17.8109 30.64C21.0508 30.2432 24.1117 28.7481 26.4299 26.4299C28.7481 24.1118 30.2433 21.0508 30.64 17.8109C30.6735 17.5367 30.4786 17.2873 30.2045 17.2538Z" fill="#CBFA11"/>
<path d="M30.1429 14.7505C30.4125 14.7505 30.6398 14.5278 30.6436 14.2581C30.6439 14.2352 30.6426 14.2123 30.6399 14.1897C30.2432 10.9497 28.7481 7.88865 26.4299 5.57041C24.1118 3.25216 21.0508 1.7569 17.8108 1.36015C17.5359 1.32684 17.2873 1.52159 17.2538 1.79572C17.2202 2.06978 17.4152 2.31922 17.6893 2.35278C23.9621 3.1209 28.8794 8.0384 29.6474 14.3112C29.6783 14.5647 29.8939 14.7505 30.1429 14.7505Z" fill="#CBFA11"/>
<path d="M13.5 17.25C13.5 18.6285 14.6215 19.75 16 19.75C17.3785 19.75 18.5 18.6285 18.5 17.25C18.5 15.8715 17.3785 14.75 16 14.75C14.6215 14.75 13.5 15.8715 13.5 17.25ZM16 15.75C16.8271 15.75 17.5 16.4229 17.5 17.25C17.5 18.0771 16.8271 18.75 16 18.75C15.1729 18.75 14.5 18.0771 14.5 17.25C14.5 16.4229 15.1729 15.75 16 15.75Z" fill="#CBFA11"/>
<path d="M18.75 23V24.5C18.75 24.7761 18.9739 25 19.25 25C19.5261 25 19.75 24.7761 19.75 24.5V23C19.75 21.6215 18.6285 20.5 17.25 20.5H14.75C13.3715 20.5 12.25 21.6215 12.25 23V24.5C12.25 24.7761 12.4739 25 12.75 25C13.0261 25 13.25 24.7761 13.25 24.5V23C13.25 22.1729 13.9229 21.5 14.75 21.5H17.25C18.0771 21.5 18.75 22.1729 18.75 23Z" fill="#CBFA11"/>
<path d="M23 11C23 9.6215 21.8785 8.5 20.5 8.5C19.1215 8.5 18 9.6215 18 11C18 12.3785 19.1215 13.5 20.5 13.5C21.8785 13.5 23 12.3785 23 11ZM19 11C19 10.1729 19.6729 9.5 20.5 9.5C21.3271 9.5 22 10.1729 22 11C22 11.8271 21.3271 12.5 20.5 12.5C19.6729 12.5 19 11.8271 19 11Z" fill="#CBFA11"/>
<path d="M21.75 14.25H19.25C18.9739 14.25 18.75 14.4739 18.75 14.75C18.75 15.0261 18.9739 15.25 19.25 15.25H21.75C22.5771 15.25 23.25 15.9229 23.25 16.75V18.25C23.25 18.5261 23.4739 18.75 23.75 18.75C24.0261 18.75 24.25 18.5261 24.25 18.25V16.75C24.25 15.3715 23.1285 14.25 21.75 14.25Z" fill="#CBFA11"/>
<path d="M9 11C9 12.3785 10.1215 13.5 11.5 13.5C12.8785 13.5 14 12.3785 14 11C14 9.6215 12.8785 8.5 11.5 8.5C10.1215 8.5 9 9.6215 9 11ZM13 11C13 11.8271 12.3271 12.5 11.5 12.5C10.6729 12.5 10 11.8271 10 11C10 10.1729 10.6729 9.5 11.5 9.5C12.3271 9.5 13 10.1729 13 11Z" fill="#CBFA11"/>
<path d="M8.25 18.75C8.52613 18.75 8.75 18.5261 8.75 18.25V16.75C8.75 15.9229 9.42287 15.25 10.25 15.25H12.75C13.0261 15.25 13.25 15.0261 13.25 14.75C13.25 14.4739 13.0261 14.25 12.75 14.25H10.25C8.8715 14.25 7.75 15.3715 7.75 16.75V18.25C7.75 18.5261 7.97381 18.75 8.25 18.75Z" fill="#CBFA11"/>
</svg>
