<svg width="32" height="32" viewBox="0 0 32 32" fill="none" xmlns="http://www.w3.org/2000/svg">
<path d="M31.9624 2.38886C31.8931 1.11774 30.8822 0.106929 29.611 0.0375547C27.0462 -0.10257 22.0272 0.0337423 17.228 2.51605C14.7814 3.78154 12.1939 5.9271 10.129 8.40259C10.1035 8.43309 10.0788 8.46377 10.0535 8.49434L5.36731 8.85633C4.59594 8.91596 3.90888 9.32027 3.48225 9.96552L0.28514 14.8013C-0.0384218 15.2906 -0.0898591 15.9031 0.147453 16.4395C0.384827 16.976 0.872575 17.3499 1.45226 17.4397L5.40043 18.0512C5.3865 18.1279 5.3725 18.2046 5.35968 18.2814C5.22825 19.0676 5.48875 19.876 6.05662 20.4438L11.5561 25.9433C12.0269 26.4141 12.6631 26.6737 13.315 26.6737C13.4492 26.6737 13.5842 26.6626 13.7186 26.6402C13.7953 26.6274 13.872 26.6134 13.9488 26.5995L14.5603 30.5477C14.6501 31.1274 15.024 31.6152 15.5603 31.8525C15.7835 31.9513 16.0197 32 16.2548 32C16.585 31.9999 16.9129 31.9038 17.1986 31.7149L22.0344 28.5177C22.6797 28.091 23.0839 27.404 23.1434 26.6326L23.5054 21.9465C23.536 21.9212 23.5667 21.8965 23.5972 21.871C26.0728 19.8061 28.2184 17.2186 29.4838 14.772C31.9663 9.97258 32.1023 4.95354 31.9624 2.38886ZM21.0003 26.9536L16.3746 30.0119L15.7786 26.1641C17.7336 25.5893 19.6676 24.6687 21.51 23.4353L21.2742 26.4881C21.2595 26.6786 21.1596 26.8483 21.0003 26.9536ZM12.8819 24.6175L7.38236 19.118C7.24205 18.9776 7.17718 18.7804 7.20899 18.5905C7.37249 17.6128 7.62655 16.6821 7.94105 15.8054L16.1928 24.0571C15.1398 24.4343 14.1966 24.6593 13.4094 24.7909C13.2192 24.8225 13.0222 24.7578 12.8819 24.6175ZM5.51175 10.7258L8.56448 10.49C7.33111 12.3324 6.41049 14.2663 5.83568 16.2213L1.98795 15.6254L5.04631 10.9996C5.15168 10.8403 5.32137 10.7405 5.51175 10.7258ZM22.3964 20.4311C20.8818 21.6944 19.4116 22.6082 18.0565 23.2693L8.73023 13.9431C9.59636 12.1741 10.6534 10.701 11.5688 9.60364C13.4797 7.31272 15.8564 5.33641 18.0894 4.18141C22.4941 1.90311 27.1347 1.78042 29.509 1.90967C29.8232 1.9268 30.0732 2.17673 30.0903 2.49105C30.2197 4.86529 30.0968 9.5059 27.8185 13.9106C26.6635 16.1436 24.6872 18.5202 22.3964 20.4311Z" fill="#CBFA11"/>
<path d="M21.9198 14.7648C23.1199 14.7647 24.3205 14.3078 25.2342 13.3941C26.1196 12.5088 26.6071 11.3317 26.6071 10.0797C26.6071 8.82768 26.1195 7.65055 25.2342 6.76524C23.4066 4.93756 20.4328 4.93769 18.6054 6.76524C17.72 7.65055 17.2324 8.82768 17.2324 10.0797C17.2324 11.3317 17.72 12.5088 18.6054 13.3941C19.5192 14.308 20.7192 14.7649 21.9198 14.7648ZM19.931 8.09099C20.4793 7.54268 21.1995 7.26856 21.9197 7.26856C22.6399 7.26856 23.3601 7.54268 23.9083 8.09099C24.4395 8.62218 24.732 9.32842 24.732 10.0796C24.732 10.8308 24.4395 11.5371 23.9083 12.0683C22.8118 13.1648 21.0275 13.1648 19.931 12.0683C19.3998 11.5371 19.1072 10.8309 19.1072 10.0797C19.1072 9.32849 19.3999 8.62218 19.931 8.09099Z" fill="#CBFA11"/>
<path d="M0.956997 26.3714C1.19693 26.3714 1.43687 26.2799 1.61987 26.0967L4.68067 23.0359C5.04679 22.6698 5.04679 22.0763 4.68067 21.7101C4.31461 21.344 3.72099 21.344 3.35486 21.7101L0.294124 24.7709C-0.0719997 25.1371 -0.0719997 25.7306 0.294124 26.0967C0.477123 26.2798 0.71706 26.3714 0.956997 26.3714Z" fill="#CBFA11"/>
<path d="M7.485 24.5148C7.11894 24.1487 6.52532 24.1487 6.1592 24.5148L0.274593 30.3995C-0.0915309 30.7656 -0.0915309 31.3592 0.274593 31.7253C0.457655 31.9084 0.697529 31.9999 0.937465 31.9999C1.1774 31.9999 1.41734 31.9084 1.60034 31.7252L7.48494 25.8406C7.85113 25.4745 7.85113 24.881 7.485 24.5148Z" fill="#CBFA11"/>
<path d="M8.9643 27.3195L5.9035 30.3803C5.53738 30.7464 5.53738 31.34 5.9035 31.7061C6.08656 31.8892 6.3265 31.9807 6.56637 31.9807C6.80625 31.9807 7.04624 31.8892 7.22924 31.7061L10.29 28.6453C10.6562 28.2792 10.6562 27.6856 10.29 27.3195C9.92398 26.9534 9.33036 26.9534 8.9643 27.3195Z" fill="#CBFA11"/>
</svg>
