<svg width="20" height="21" viewBox="0 0 20 21" fill="none" xmlns="http://www.w3.org/2000/svg">
<path opacity="0.8" d="M19.2661 0.734844C18.9673 0.43241 18.5956 0.212155 18.1868 0.0953567C17.778 -0.0214411 17.346 -0.0308327 16.9325 0.0680894L3.59741 2.87679C2.82946 2.98211 2.10616 3.29975 1.50897 3.79393C0.911784 4.2881 0.464426 4.9392 0.217278 5.67388C-0.0298694 6.40857 -0.0669906 7.19767 0.110095 7.95231C0.287181 8.70695 0.67144 9.39717 1.2196 9.94523L2.65145 11.3763C2.72895 11.4537 2.79041 11.5457 2.83231 11.647C2.87422 11.7482 2.89574 11.8567 2.89565 11.9663V14.6067C2.89749 14.9779 2.98295 15.344 3.14569 15.6777L3.13902 15.6835L3.16069 15.7052C3.4049 16.1962 3.80376 16.5933 4.29584 16.8353L4.31751 16.857L4.32334 16.8503C4.65702 17.013 5.02308 17.0985 5.39432 17.1003H8.03467C8.25557 17.1002 8.46751 17.1877 8.62391 17.3437L10.0549 18.7747C10.4388 19.1628 10.8956 19.4711 11.3991 19.6818C11.9026 19.8925 12.4428 20.0014 12.9887 20.0024C13.4435 20.0018 13.8953 19.9275 14.3263 19.7824C15.0543 19.5433 15.701 19.1056 16.1934 18.5186C16.6859 17.9316 17.0045 17.2187 17.1134 16.4603L19.9262 3.09599C20.0303 2.67897 20.0242 2.24206 19.9084 1.82812C19.7927 1.41419 19.5714 1.03744 19.2661 0.734844ZM3.83161 10.1994L2.39892 8.76841C2.06531 8.44283 1.83149 8.02885 1.7249 7.57505C1.61832 7.12124 1.64339 6.64645 1.79717 6.2064C1.94627 5.75494 2.2219 5.35581 2.59128 5.05647C2.96065 4.75713 3.40823 4.57017 3.88078 4.51784L17.0834 1.73831L4.56087 14.2625V11.9663C4.56214 11.6382 4.49833 11.3131 4.37316 11.0099C4.24798 10.7066 4.06392 10.4311 3.83161 10.1994ZM15.4756 16.1752C15.4117 16.6356 15.2206 17.069 14.924 17.4267C14.6274 17.7845 14.2369 18.0526 13.7964 18.2008C13.3559 18.349 12.8828 18.3715 12.4302 18.2657C11.9776 18.1599 11.5635 17.9301 11.2343 17.6021L9.80073 16.1685C9.56934 15.9359 9.29412 15.7514 8.99098 15.6258C8.68784 15.5002 8.3628 15.436 8.03467 15.4368H5.73853L18.2627 2.9168L15.4756 16.1752Z" fill="white"/>
</svg>
