<svg width="27" height="27" viewBox="0 0 27 27" fill="none" xmlns="http://www.w3.org/2000/svg">
<path d="M15.3198 11.0303H21.4479C21.7864 11.0303 22.0607 10.7559 22.0607 10.4175C22.0607 10.0791 21.7863 9.80469 21.4479 9.80469H15.3198C14.9814 9.80469 14.707 10.0791 14.707 10.4175C14.707 10.7559 14.9814 11.0303 15.3198 11.0303Z" fill="#CBFA11"/>
<path d="M15.3198 13.4814H17.771C18.1095 13.4814 18.3838 13.2071 18.3838 12.8686C18.3838 12.5302 18.1094 12.2559 17.771 12.2559H15.3198C14.9814 12.2559 14.707 12.5302 14.707 12.8686C14.707 13.2071 14.9814 13.4814 15.3198 13.4814Z" fill="#CBFA11"/>
<path d="M15.3198 8.57909H18.9966C19.3351 8.57909 19.6094 8.30471 19.6094 7.9663C19.6094 7.62784 19.335 7.35352 18.9966 7.35352H15.3198C14.9814 7.35352 14.707 7.62789 14.707 7.9663C14.707 8.30471 14.9814 8.57909 15.3198 8.57909Z" fill="#CBFA11"/>
<path d="M25.7378 1.22562H14.7073C14.7073 0.548748 14.1586 0 13.4818 0C12.8049 0 12.2561 0.548748 12.2561 1.22562H1.22562C0.548748 1.22562 0 1.77437 0 2.45125V3.67687C0 4.35375 0.548748 4.9025 1.22562 4.9025V19.6098C1.22562 20.2867 1.77437 20.8355 2.45125 20.8355H12.8689V22.4226L9.36979 25.9217C9.11274 26.1419 9.08278 26.5287 9.30296 26.7858C9.52309 27.0428 9.90995 27.0728 10.167 26.8526C10.191 26.8321 10.2133 26.8097 10.2338 26.7858L13.4817 23.5379L16.7234 26.7796C16.9436 27.0367 17.3304 27.0666 17.5875 26.8465C17.8445 26.6263 17.8745 26.2395 17.6543 25.9824C17.6338 25.9585 17.6114 25.9361 17.5875 25.9156L14.0945 22.4226V20.8355H24.5122C25.189 20.8355 25.7378 20.2867 25.7378 19.6098V4.90244C26.4147 4.90244 26.9634 4.3537 26.9634 3.67682V2.4512C26.9634 1.77432 26.4147 1.22562 25.7378 1.22562ZM24.5122 19.6098H2.45125V4.90244H24.5122V19.6098ZM25.7378 3.67682H1.22562V2.4512H25.7378V3.67682Z" fill="#CBFA11"/>
<path d="M15.3198 15.9326H21.4479C21.7864 15.9326 22.0607 15.6582 22.0607 15.3198C22.0607 14.9814 21.7863 14.707 21.4479 14.707H15.3198C14.9814 14.707 14.707 14.9814 14.707 15.3198C14.707 15.6582 14.9814 15.9326 15.3198 15.9326Z" fill="#CBFA11"/>
<path d="M6.12797 15.9328H11.0304C11.7073 15.9328 12.256 15.384 12.256 14.7072V8.57914C12.256 7.90226 11.7073 7.35352 11.0304 7.35352H6.12797C5.45109 7.35352 4.90234 7.90226 4.90234 8.57914V14.7072C4.90234 15.3841 5.45109 15.9328 6.12797 15.9328ZM6.12797 8.57914H11.0304V14.7072H6.12797V8.57914Z" fill="#CBFA11"/>
</svg>
