<svg width="32" height="32" viewBox="0 0 32 32" fill="none" xmlns="http://www.w3.org/2000/svg">
<path d="M27.9265 19.8604C28.3298 18.6155 28.5347 17.3171 28.5347 15.9941C28.5347 14.676 28.3313 13.3823 27.9304 12.1414C28.812 11.8103 29.6135 11.2803 30.2791 10.5754C31.4292 9.35791 32.0361 7.76514 31.9883 6.09106C31.8892 2.63477 28.9971 -0.0959473 25.5403 0.00268555C23.866 0.0505371 22.3108 0.747559 21.1606 1.96533C20.5798 2.58032 20.1379 3.29102 19.8486 4.05957C18.6074 3.65894 17.3137 3.45557 15.9951 3.45557C14.6758 3.45557 13.3811 3.65942 12.1392 4.06055C11.2434 1.69019 8.95093 0 6.27075 0C2.81299 0 0 2.81299 0 6.27051C0 8.95044 1.69043 11.2427 4.06079 12.1382C3.65942 13.3804 3.45581 14.675 3.45581 15.9941C3.45581 17.3171 3.66064 18.6155 4.06396 19.8604C1.69189 20.7551 0 23.0483 0 25.7295C0 26.6733 0.20459 27.5808 0.608154 28.4265C0.719727 28.6602 0.999512 28.7593 1.23315 28.6477C1.46655 28.5361 1.56567 28.2563 1.45435 28.0227C1.11133 27.304 0.9375 26.5325 0.9375 25.7295C0.9375 22.7891 3.33008 20.3967 6.27075 20.3967C9.21167 20.3967 11.6042 22.7891 11.6042 25.7295C11.6042 28.6702 9.21167 31.0625 6.27075 31.0625C4.92944 31.0625 3.64746 30.5627 2.66113 29.6553C2.47046 29.48 2.17383 29.4924 1.99878 29.6829C1.82349 29.8735 1.83569 30.1699 2.02637 30.3452C3.18628 31.4124 4.6936 32 6.27075 32C8.95483 32 11.2502 30.3047 12.1431 27.929C13.3835 28.3293 14.677 28.5327 15.9951 28.5327C17.3135 28.5327 18.6072 28.3293 19.8477 27.9292C20.7405 30.3049 23.0359 32 25.72 32C29.1777 32 31.9907 29.187 31.9907 25.7295C31.9907 23.0483 30.2988 20.7549 27.9265 19.8604ZM21.8423 2.60889C22.8203 1.57324 24.1433 0.980469 25.5674 0.939697C25.6191 0.938232 25.6704 0.9375 25.7222 0.9375C28.5928 0.9375 30.9685 3.23022 31.051 6.11768C31.0918 7.5415 30.5757 8.896 29.5977 9.93188C28.6196 10.9675 27.2966 11.5603 25.8726 11.6011C25.8208 11.6025 25.7693 11.6033 25.7178 11.6033C22.8472 11.6033 20.4714 9.31055 20.3889 6.4231C20.3479 4.99927 20.8643 3.64453 21.8423 2.60889ZM19.5847 27.0288C18.4297 27.4043 17.2244 27.5952 15.9951 27.5952C14.7664 27.5952 13.561 27.4043 12.406 27.0288C12.4946 26.6094 12.5417 26.1748 12.5417 25.7295C12.5417 22.272 9.72852 19.4592 6.27075 19.4592C5.82275 19.4592 5.38574 19.5068 4.96411 19.5964C4.58545 18.4373 4.39331 17.2275 4.39331 15.9941C4.39331 14.7646 4.58447 13.5588 4.96069 12.4026C5.3833 12.4929 5.82153 12.5408 6.27075 12.5408C7.34497 12.5408 8.40479 12.2644 9.33618 11.7417C9.56177 11.615 9.64209 11.3293 9.51538 11.1035C9.38867 10.8777 9.10303 10.7976 8.8772 10.9243C8.08569 11.3684 7.18433 11.6033 6.27075 11.6033C3.32983 11.6033 0.9375 9.21094 0.9375 6.27026C0.9375 3.32983 3.33008 0.9375 6.27075 0.9375C9.21167 0.9375 11.6042 3.32983 11.6042 6.27051C11.6042 7.50073 11.1753 8.70093 10.3965 9.65039C10.2322 9.85034 10.2615 10.1458 10.4617 10.3101C10.6616 10.4741 10.957 10.4451 11.1213 10.2449C12.0371 9.12842 12.5417 7.7168 12.5417 6.27026C12.5417 5.82129 12.4937 5.38306 12.4036 4.96045C13.5596 4.58423 14.7656 4.39307 15.9951 4.39307C17.2244 4.39307 18.4299 4.58398 19.5854 4.95972C19.4832 5.4436 19.4373 5.94287 19.4517 6.44995C19.5491 9.84521 22.342 12.541 25.7175 12.5408C25.7778 12.5408 25.8386 12.54 25.8994 12.5381C26.2837 12.5271 26.6616 12.4814 27.03 12.4036C27.406 13.5593 27.5972 14.7651 27.5972 15.9941C27.5972 17.2275 27.4048 18.4373 27.0264 19.5964C26.6047 19.5066 26.1677 19.4592 25.72 19.4592C22.2622 19.4592 19.4492 22.272 19.4492 25.7295C19.4492 26.175 19.4961 26.6096 19.5847 27.0288ZM25.72 31.0625C22.7791 31.0625 20.3867 28.6702 20.3867 25.7297C20.3867 22.7891 22.7791 20.3967 25.72 20.3967C28.6609 20.3967 31.0532 22.7891 31.0532 25.7297C31.0532 28.6702 28.6609 31.0625 25.72 31.0625Z" fill="#CBFA11"/>
<path d="M9.46203 3.50314C9.30041 3.39327 9.08777 3.39498 8.9281 3.50778C8.76843 3.62032 8.59753 3.71432 8.41784 3.78878C7.7738 3.28487 6.84045 3.29073 6.20105 3.84664C5.86877 4.1357 5.66101 4.53536 5.61267 4.967C4.92492 4.86471 4.30334 4.48605 3.89563 3.90548C3.79846 3.7673 3.6344 3.69235 3.46667 3.70846C3.29846 3.72482 3.15222 3.83028 3.08362 3.98458C3.07019 4.01486 2.75476 4.73556 2.79504 5.61764C2.8258 6.29269 3.06726 7.16281 3.94787 7.83468C3.63073 7.93698 3.29577 7.98434 2.96203 7.97091C2.74475 7.96237 2.55066 8.10372 2.49206 8.31271C2.43347 8.52169 2.526 8.74362 2.7157 8.84908C3.45105 9.25753 4.23889 9.46212 5.00866 9.46212C5.74817 9.46212 6.47082 9.27316 7.11389 8.89498C7.92029 8.42062 8.50622 7.6943 8.82434 6.80734C8.83435 6.78488 8.84265 6.76144 8.84924 6.73727C9.01281 6.25558 9.09851 5.72799 9.09851 5.16842C9.09851 5.14401 9.09778 5.11935 9.0968 5.09493C9.36438 4.7795 9.55529 4.40572 9.65393 4.00167C9.69983 3.81173 9.62365 3.613 9.46203 3.50314ZM8.1466 5.02218C8.15588 5.07101 8.16076 5.12154 8.16076 5.16988C8.16076 5.62936 8.0924 6.05489 7.96228 6.43942C7.9552 6.45699 7.94934 6.4753 7.94446 6.4941C7.70105 7.17526 7.25793 7.72238 6.63855 8.08688C6.07165 8.42062 5.42102 8.56271 4.75793 8.51461C4.90979 8.43942 5.05652 8.35397 5.1969 8.25875C5.33752 8.16305 5.41565 7.99874 5.40051 7.82906C5.38537 7.65939 5.27942 7.51144 5.1239 7.44235C4.24865 7.05343 3.78064 6.43478 3.73303 5.60397C3.72326 5.4338 3.73181 5.27047 3.75012 5.12081C4.39489 5.65963 5.22082 5.95358 6.08288 5.93136C6.33703 5.92477 6.53967 5.717 6.53967 5.46285V5.17843C6.53967 5.17648 6.53967 5.17428 6.53967 5.17208C6.5365 4.93502 6.63708 4.70968 6.81628 4.55416C7.15124 4.2629 7.66052 4.2983 7.95178 4.63326C8.01037 4.7004 8.08508 4.74801 8.16662 4.77316C8.13806 4.85177 8.13049 4.93746 8.1466 5.02218Z" fill="#CBFA11"/>
<path d="M24.1777 6.63989H24.8423V9.43506C24.8423 9.69385 25.0522 9.90381 25.311 9.90381C25.5701 9.90381 25.7798 9.69385 25.7798 9.43506V6.63989H26.5037C26.7625 6.63989 26.9724 6.42993 26.9724 6.17114C26.9724 5.91235 26.7625 5.70239 26.5037 5.70239H25.7798V4.39087C25.7798 3.94067 26.1462 3.57422 26.5967 3.57422H27.2036C27.4624 3.57422 27.6724 3.36426 27.6724 3.10547C27.6724 2.84644 27.4624 2.63672 27.2036 2.63672H26.5967C25.6294 2.63672 24.8423 3.42358 24.8423 4.39087V5.70239H24.1777C23.9189 5.70239 23.709 5.91235 23.709 6.17114C23.709 6.42993 23.9189 6.63989 24.1777 6.63989Z" fill="#CBFA11"/>
<path d="M5.20752 28.1541C5.31909 28.1541 5.43066 28.1253 5.53003 28.0679L8.7207 26.2249C8.91968 26.1102 9.04321 25.8961 9.04321 25.6663C9.04321 25.4368 8.91968 25.2227 8.7207 25.108L5.53003 23.265C5.3313 23.15 5.08423 23.15 4.88525 23.265C4.68628 23.3797 4.5625 23.5938 4.5625 23.8235V27.5093C4.5625 27.7391 4.68628 27.9532 4.88525 28.0679C4.98462 28.1255 5.09595 28.1541 5.20752 28.1541ZM5.5 24.3304L7.81348 25.6666L5.5 27.0027V24.3304Z" fill="#CBFA11"/>
<path d="M27.7573 22.4102H23.6836C22.9761 22.4102 22.4004 22.9858 22.4004 23.6936V27.7666C22.4004 28.4744 22.9761 29.05 23.6836 29.05H27.7573C28.4648 29.05 29.0405 28.4744 29.0405 27.7666V23.6936C29.0405 22.9858 28.4648 22.4102 27.7573 22.4102ZM28.103 27.7666C28.103 27.9575 27.948 28.1125 27.7573 28.1125H23.6836C23.4929 28.1125 23.3379 27.9575 23.3379 27.7666V23.6936C23.3379 23.5029 23.4929 23.3477 23.6836 23.3477H27.7573C27.948 23.3477 28.103 23.5029 28.103 23.6936V27.7666Z" fill="#CBFA11"/>
<path d="M25.7197 24.3125C24.9385 24.3125 24.3027 24.9482 24.3027 25.7295C24.3027 26.5107 24.9385 27.1462 25.7197 27.1462C26.501 27.1462 27.1367 26.5107 27.1367 25.7295C27.1367 24.9482 26.501 24.3125 25.7197 24.3125ZM25.7197 26.2087C25.4553 26.2087 25.2402 25.9937 25.2402 25.7295C25.2402 25.4651 25.4553 25.25 25.7197 25.25C25.9841 25.25 26.1992 25.4651 26.1992 25.7295C26.1992 25.9937 25.9841 26.2087 25.7197 26.2087Z" fill="#CBFA11"/>
<path d="M19.3887 11.1309C19.1296 11.1309 18.9199 11.3408 18.9199 11.5996V11.8098C18.2593 12.1992 17.5647 12.5354 16.8506 12.8105C16.2788 13.0308 15.6882 13.2139 15.0908 13.3572C14.999 13.2866 14.8848 13.2439 14.7603 13.2439H12.614C12.0955 13.2439 11.6738 13.6658 11.6738 14.1841V16.6458C11.6738 17.1643 12.0955 17.5859 12.614 17.5859H13.043L13.2056 20.7114C13.2185 20.9617 13.4255 21.1558 13.6733 21.1558C13.6814 21.1558 13.6897 21.1555 13.698 21.155C13.9565 21.1416 14.1553 20.9211 14.1418 20.6626L13.9817 17.5859H14.7603C14.8845 17.5859 14.999 17.5435 15.0906 17.4729C15.4709 17.5647 15.8494 17.6726 16.2192 17.7954C16.4651 17.8767 16.7302 17.7437 16.8118 17.498C16.8933 17.2522 16.76 16.9868 16.5144 16.9055C16.1172 16.7737 15.7109 16.6577 15.3022 16.5593V14.271C15.9424 14.1177 16.575 13.9211 17.1875 13.6853C17.7798 13.457 18.3599 13.1897 18.9197 12.887V17.9441C18.7136 17.8328 18.5054 17.7266 18.2957 17.6257C18.0623 17.5134 17.7822 17.6116 17.6702 17.845C17.5579 18.0784 17.656 18.3584 17.8894 18.4707C18.2385 18.6387 18.5837 18.8237 18.9197 19.021V19.2302C18.9197 19.4893 19.1296 19.699 19.3884 19.699C19.6472 19.699 19.8572 19.4893 19.8572 19.2302V11.5996C19.8574 11.3408 19.6475 11.1309 19.3887 11.1309ZM14.365 16.6482L12.6113 16.6458L12.614 14.1814H14.365V16.6482Z" fill="#CBFA11"/>
</svg>
