<svg width="32" height="24" viewBox="0 0 32 24" fill="none" xmlns="http://www.w3.org/2000/svg">
<path d="M3.2 21.3333H15.4667C15.7615 21.3333 16 21.0948 16 20.8C16 20.5052 15.7615 20.2667 15.4667 20.2667H3.2C2.02344 20.2667 1.06667 19.3099 1.06667 18.1333V5.33333H26.6667V8C26.6734 8.69844 27.7243 8.70179 27.7333 7.99997V3.2C27.7333 1.43542 26.2979 0 24.5333 0H3.2C1.43542 0 0 1.43542 0 3.2V18.1333C0 19.8979 1.43542 21.3333 3.2 21.3333ZM1.06667 3.2C1.06667 2.0237 2.02344 1.06667 3.2 1.06667H24.5333C25.7099 1.06667 26.6667 2.0237 26.6667 3.2V4.26667H1.06667V3.2Z" fill="#737373"/>
<path d="M4.26662 2.13336H3.19995C2.49907 2.14508 2.49881 3.18831 3.19998 3.20003H4.26662C4.96736 3.18834 4.96785 2.14508 4.26662 2.13336Z" fill="#737373"/>
<path d="M6.93336 2.13336H5.8667C5.16582 2.14508 5.16556 3.18831 5.86673 3.20003H6.93336C7.63411 3.18834 7.6346 2.14508 6.93336 2.13336Z" fill="#737373"/>
<path d="M9.59999 2.13336H8.53332C7.83244 2.14508 7.83218 3.18831 8.53335 3.20003H9.59999C10.3007 3.18834 10.3012 2.14508 9.59999 2.13336Z" fill="#737373"/>
<path d="M7.46663 6.93335H2.66666C1.96705 6.94468 1.96448 7.98817 2.66666 8.00002H7.46666C8.16627 7.98869 8.16885 6.94517 7.46663 6.93335Z" fill="#737373"/>
<path d="M2.6667 10.1333H13.8667C14.5642 10.1226 14.5706 9.07869 13.8667 9.06665H2.6667C1.96839 9.07756 1.96345 10.1213 2.6667 10.1333Z" fill="#737373"/>
<path d="M14.4 11.7333C14.4 11.4386 14.1614 11.2 13.8666 11.2H2.66663C2.37184 11.2 2.1333 11.4386 2.1333 11.7333C2.1333 12.0281 2.37184 12.2667 2.66663 12.2667H13.8666C14.1614 12.2667 14.4 12.0281 14.4 11.7333Z" fill="#737373"/>
<path d="M6.24369 14.0229C6.03536 13.8146 5.69786 13.8146 5.48952 14.0229L3.88952 15.6229C3.68119 15.8312 3.68119 16.1687 3.88952 16.3771L5.48952 17.9771C5.98435 18.4676 6.73507 17.7185 6.24366 17.2229C6.24369 17.2229 5.02077 16 5.02077 16L6.24369 14.7771C6.45202 14.5687 6.45202 14.2312 6.24369 14.0229Z" fill="#737373"/>
<path d="M10.2895 17.9771C10.4979 18.1854 10.8354 18.1854 11.0437 17.9771L12.6437 16.3771C12.852 16.1687 12.852 15.8312 12.6437 15.6229L11.0437 14.0229C10.5489 13.5325 9.79814 14.2812 10.2896 14.7771C10.2895 14.7771 11.5125 16 11.5125 16L10.2895 17.2229C10.0812 17.4312 10.0812 17.7687 10.2895 17.9771Z" fill="#737373"/>
<path d="M6.71668 19.1542C6.97951 19.2725 7.30096 19.1547 7.42085 18.8833L9.55418 14.0833C9.67345 13.8141 9.55262 13.499 9.28335 13.3792C9.0146 13.2594 8.69898 13.3812 8.57919 13.65L6.44585 18.45C6.32658 18.7193 6.44741 19.0344 6.71668 19.1542Z" fill="#737373"/>
<path d="M22.2437 17.7563L21.0208 16.5334L22.2437 15.3105C22.7345 14.8164 21.985 14.0645 21.4895 14.5563C21.4895 14.5563 19.8895 16.1563 19.8895 16.1563C19.6812 16.3646 19.6812 16.7021 19.8895 16.9105L21.4895 18.5105C21.9844 19.0009 22.7351 18.252 22.2437 17.7563Z" fill="#737373"/>
<path d="M27.0438 14.5562C26.5485 14.0652 25.7985 14.8152 26.2896 15.3104C26.2896 15.3104 27.5125 16.5333 27.5125 16.5333L26.2896 17.7562C25.7988 18.251 26.5483 19.0018 27.0438 18.5104C29.3911 16.0768 29.3818 16.9847 27.0438 14.5562Z" fill="#737373"/>
<path d="M25.2834 13.9125C25.0146 13.7937 24.6995 13.9146 24.5792 14.1833L22.4459 18.9833C22.3266 19.2526 22.4474 19.5677 22.7167 19.6875C22.9795 19.8058 23.301 19.688 23.4208 19.4166L25.5542 14.6166C25.6735 14.3474 25.5526 14.0323 25.2834 13.9125Z" fill="#737373"/>
<path d="M28.8 9.06665H19.7333C17.9687 9.06665 16.5333 10.5021 16.5333 12.2667V20.8C16.5333 22.5646 17.9687 24 19.7333 24H28.8C30.5646 24 32 22.5646 32 20.8V12.2667C32 10.5021 30.5646 9.06665 28.8 9.06665ZM30.9333 20.8C30.9333 21.9765 29.9766 22.9333 28.8 22.9333H19.7333C18.5568 22.9333 17.6 21.9765 17.6 20.8V12.2667C17.6 11.0901 18.5568 10.1333 19.7333 10.1333H28.8C29.9766 10.1333 30.9333 11.0901 30.9333 12.2667V20.8Z" fill="#737373"/>
</svg>
