<svg width="143" height="104" viewBox="0 0 143 104" fill="none" xmlns="http://www.w3.org/2000/svg">
<path d="M2.29275 35.9383V28.226L7.27234 23.3071H23.4256V17.5381L20.3893 14.5625H10.0658L7.02943 17.5381V20.0279H2.53566V16.2628L8.12251 10.676H22.2718L27.8587 16.2628V40.9179H23.5471V35.5739L17.9602 40.9179H7.27234L2.29275 35.9383ZM17.0493 37.0314L23.4256 30.898V27.1937H9.21559L6.78653 29.562V34.663L9.21559 37.0314H17.0493Z" fill="#CBFA11"/>
<path d="M34.5253 36.7277L53.2899 14.5625V14.441H35.1326V10.676H58.4517V14.8661L39.6871 37.0314V37.1528H58.4517V40.9179H34.5253V36.7277Z" fill="#CBFA11"/>
<path d="M67.8255 35.9383V28.226L72.805 23.3071H88.9584V17.5381L85.922 14.5625H75.5985L72.5621 17.5381V20.0279H68.0684V16.2628L73.6552 10.676H87.8045L93.3914 16.2628V40.9179H89.0798V35.5739L83.4929 40.9179H72.805L67.8255 35.9383ZM82.582 37.0314L88.9584 30.898V27.1937H74.7483L72.3192 29.562V34.663L74.7483 37.0314H82.582Z" fill="white"/>
<path d="M102.183 10.676H106.556V16.0807L111.96 10.676H119.794V14.6839H113.114L106.677 21.121V40.9179H102.183V10.676Z" fill="white"/>
<path d="M128.282 35.331V14.6232H122.816V10.676H128.403V0.838257H132.776V10.676H142.249V14.6232H132.776V33.9343L135.812 36.9707H142.249V40.9179H133.869L128.282 35.331Z" fill="white"/>
<path d="M5.93635 98.2266V77.5187H0.470947V73.5715H6.0578V63.7338H10.4301V73.5715H19.9035V77.5187H10.4301V96.8298L13.4665 99.8662H19.9035V103.813H11.5232L5.93635 98.2266Z" fill="white"/>
<path d="M25.3689 98.2266V79.1584L30.9558 73.5715H46.1982L51.8457 79.1584V90.0285H29.8627V96.8298L32.899 99.8055H44.2549L47.2912 96.8298V94.5222H51.785V98.2266L46.1982 103.813H30.9558L25.3689 98.2266ZM47.352 86.1419V80.5551L44.3156 77.5795H32.899L29.8627 80.5551V86.1419H47.352Z" fill="white"/>
<path d="M59.4091 98.2266V79.1584L64.9959 73.5715H79.5703L85.1572 79.1584V82.8627H80.6634V80.5551L77.6271 77.5795H66.9392L63.9028 80.5551V96.8298L66.9392 99.8055H77.6271L80.6634 96.8298V94.5222H85.1572V98.2266L79.5703 103.813H64.9959L59.4091 98.2266Z" fill="white"/>
<path d="M92.4553 60.4545H96.9491V79.8871L103.265 73.5715H112.677L118.264 79.1584V103.813H113.77V80.5551L110.734 77.5795H104.479L96.9491 85.1096V103.813H92.4553V60.4545Z" fill="white"/>
</svg>
