<svg width="32" height="24" viewBox="0 0 32 24" fill="none" xmlns="http://www.w3.org/2000/svg">
<path d="M3.2 21.3333H15.4667C15.7615 21.3333 16 21.0948 16 20.8C16 20.5052 15.7615 20.2667 15.4667 20.2667H3.2C2.02344 20.2667 1.06667 19.3099 1.06667 18.1333V5.33333H26.6667V8C26.6734 8.69844 27.7243 8.70179 27.7333 7.99997V3.2C27.7333 1.43542 26.2979 0 24.5333 0H3.2C1.43542 0 0 1.43542 0 3.2V18.1333C0 19.8979 1.43542 21.3333 3.2 21.3333ZM1.06667 3.2C1.06667 2.0237 2.02344 1.06667 3.2 1.06667H24.5333C25.7099 1.06667 26.6667 2.0237 26.6667 3.2V4.26667H1.06667V3.2Z" fill="#CBFA11"/>
<path d="M4.26625 2.1333H3.19958C2.4987 2.14502 2.49844 3.18825 3.19961 3.19997H4.26625C4.967 3.18828 4.96749 2.14502 4.26625 2.1333Z" fill="#CBFA11"/>
<path d="M6.93324 2.1333H5.86657C5.16569 2.14502 5.16543 3.18825 5.86661 3.19997H6.93324C7.63399 3.18828 7.63448 2.14502 6.93324 2.1333Z" fill="#CBFA11"/>
<path d="M9.60023 2.1333H8.53357C7.83269 2.14502 7.83242 3.18825 8.5336 3.19997H9.60023C10.301 3.18828 10.3015 2.14502 9.60023 2.1333Z" fill="#CBFA11"/>
<path d="M7.46627 6.93311H2.6663C1.96669 6.94443 1.96412 7.98792 2.6663 7.99977H7.4663C8.16591 7.98844 8.16848 6.94492 7.46627 6.93311Z" fill="#CBFA11"/>
<path d="M2.66621 10.1336H13.8662C14.5637 10.1229 14.5702 9.07894 13.8662 9.06689H2.66621C1.9679 9.0778 1.96296 10.1216 2.66621 10.1336Z" fill="#CBFA11"/>
<path d="M14.4005 11.7335C14.4005 11.4387 14.1619 11.2002 13.8671 11.2002H2.66712C2.37233 11.2002 2.13379 11.4387 2.13379 11.7335C2.13379 12.0283 2.37233 12.2669 2.66712 12.2669H13.8671C14.1619 12.2669 14.4005 12.0283 14.4005 11.7335Z" fill="#CBFA11"/>
<path d="M6.24381 14.0229C6.03548 13.8146 5.69798 13.8146 5.48965 14.0229L3.88965 15.6229C3.68132 15.8313 3.68132 16.1688 3.88965 16.3771L5.48965 17.9771C5.98447 18.4677 6.73519 17.7186 6.24378 17.2229C6.24381 17.2229 5.02089 16 5.02089 16L6.24381 14.7771C6.45214 14.5688 6.45214 14.2313 6.24381 14.0229Z" fill="#CBFA11"/>
<path d="M10.29 17.9773C10.4984 18.1856 10.8359 18.1856 11.0442 17.9773L12.6442 16.3773C12.8525 16.169 12.8525 15.8315 12.6442 15.6231L11.0442 14.0231C10.5494 13.5328 9.79862 14.2815 10.2901 14.7773C10.29 14.7773 11.5129 16.0002 11.5129 16.0002L10.29 17.2231C10.0817 17.4315 10.0817 17.769 10.29 17.9773Z" fill="#CBFA11"/>
<path d="M6.7162 19.1541C6.97902 19.2724 7.30047 19.1547 7.42036 18.8833L9.55369 14.0833C9.67296 13.814 9.55213 13.4989 9.28286 13.3791C9.01411 13.2593 8.69849 13.3812 8.5787 13.6499L6.44536 18.4499C6.32609 18.7192 6.44693 19.0343 6.7162 19.1541Z" fill="#CBFA11"/>
<path d="M22.2438 17.7562L21.0209 16.5333L22.2438 15.3104C22.7346 14.8164 21.9851 14.0644 21.4896 14.5563C21.4896 14.5562 19.8896 16.1562 19.8896 16.1562C19.6813 16.3646 19.6813 16.7021 19.8896 16.9104L21.4896 18.5104C21.9845 19.0008 22.7352 18.252 22.2438 17.7562Z" fill="#CBFA11"/>
<path d="M27.0441 14.556C26.5488 14.065 25.7989 14.815 26.29 15.3102C26.29 15.3102 27.5129 16.5331 27.5129 16.5331L26.29 17.756C25.7992 18.2508 26.5487 19.0016 27.0442 18.5102C29.3915 16.0767 29.3822 16.9846 27.0441 14.556Z" fill="#CBFA11"/>
<path d="M25.2829 13.9123C25.0141 13.7936 24.699 13.9144 24.5787 14.1832L22.4454 18.9832C22.3261 19.2524 22.4469 19.5676 22.7162 19.6873C22.979 19.8057 23.3005 19.6879 23.4204 19.4165L25.5537 14.6165C25.673 14.3472 25.5521 14.0321 25.2829 13.9123Z" fill="#CBFA11"/>
<path d="M28.7999 9.06689H19.7332C17.9686 9.06689 16.5332 10.5023 16.5332 12.2669V20.8002C16.5332 22.5648 17.9686 24.0002 19.7332 24.0002H28.7999C30.5645 24.0002 31.9999 22.5648 31.9999 20.8002V12.2669C31.9999 10.5023 30.5645 9.06689 28.7999 9.06689ZM30.9332 20.8002C30.9332 21.9768 29.9764 22.9336 28.7999 22.9336H19.7332C18.5566 22.9336 17.5999 21.9768 17.5999 20.8002V12.2669C17.5999 11.0903 18.5566 10.1336 19.7332 10.1336H28.7999C29.9764 10.1336 30.9332 11.0903 30.9332 12.2669V20.8002Z" fill="#CBFA11"/>
</svg>
