<svg width="32" height="23" viewBox="0 0 32 23" fill="none" xmlns="http://www.w3.org/2000/svg">
<path d="M31.696 8.672C31.6 8.608 30.8 7.984 29.072 7.984C28.624 7.984 28.176 8.032 27.728 8.112C27.392 5.872 25.52 4.736 25.44 4.688L24.976 4.416L24.688 4.848C24.304 5.424 24 6.08 23.872 6.752C23.552 8.032 23.744 9.248 24.4 10.288C23.616 10.736 22.336 10.848 22.064 10.848H0.992C0.448 10.848 0 11.296 0 11.856C0 13.696 0.288 15.536 0.928 17.264C1.648 19.168 2.736 20.576 4.128 21.44C5.696 22.4 8.272 22.944 11.2 22.944C12.464 22.944 13.776 22.832 15.072 22.592C16.864 22.272 18.592 21.648 20.176 20.736C21.4879 19.9858 22.6621 19.0173 23.648 17.872C25.328 16 26.32 13.872 27.04 12.032H27.344C29.168 12.032 30.304 11.296 30.928 10.672C31.344 10.288 31.648 9.824 31.872 9.28L32 8.896L31.696 8.672ZM2.96 10.256H5.776C5.904 10.256 6.032 10.144 6.032 10V7.472C6.032 7.344 5.92 7.216 5.776 7.216H2.96C2.816 7.216 2.704 7.328 2.704 7.472V10C2.72 10.144 2.816 10.256 2.96 10.256ZM6.848 10.256H9.664C9.792 10.256 9.92 10.144 9.92 10V7.472C9.92 7.344 9.808 7.216 9.664 7.216H6.848C6.704 7.216 6.592 7.328 6.592 7.472V10C6.608 10.144 6.704 10.256 6.848 10.256ZM10.8 10.256H13.6C13.76 10.256 13.872 10.144 13.872 10V7.472C13.872 7.344 13.776 7.216 13.6 7.216H10.8C10.672 7.216 10.56 7.328 10.56 7.472V10C10.56 10.144 10.656 10.256 10.8 10.256ZM14.704 10.256H17.536C17.664 10.256 17.776 10.144 17.776 10V7.472C17.776 7.344 17.68 7.216 17.536 7.216H14.704C14.576 7.216 14.464 7.328 14.464 7.472V10C14.464 10.144 14.576 10.256 14.704 10.256ZM6.848 6.672H9.664C9.792 6.672 9.92 6.528 9.92 6.384V3.872C9.92 3.728 9.808 3.616 9.664 3.616H6.848C6.704 3.616 6.592 3.712 6.592 3.872V6.384C6.608 6.528 6.704 6.672 6.848 6.672ZM10.8 6.672H13.6C13.76 6.672 13.872 6.528 13.872 6.384V3.872C13.872 3.728 13.776 3.616 13.6 3.616H10.8C10.672 3.616 10.56 3.712 10.56 3.872V6.384C10.56 6.528 10.656 6.672 10.8 6.672ZM14.704 6.672H17.536C17.664 6.672 17.776 6.528 17.776 6.384V3.872C17.776 3.728 17.664 3.616 17.536 3.616H14.704C14.576 3.616 14.464 3.712 14.464 3.872V6.384C14.464 6.528 14.576 6.672 14.704 6.672ZM14.704 3.024H17.536C17.664 3.024 17.776 2.912 17.776 2.768V0.272C17.776 0.112 17.664 0 17.536 0H14.704C14.576 0 14.464 0.0960001 14.464 0.272V2.768C14.464 2.896 14.576 3.024 14.704 3.024ZM18.64 10.256H21.456C21.6 10.256 21.712 10.144 21.712 10V7.472C21.712 7.344 21.6 7.216 21.456 7.216H18.64C18.512 7.216 18.4 7.328 18.4 7.472V10C18.4 10.144 18.512 10.256 18.64 10.256Z" fill="#2396ED"/>
</svg>
