<svg width="32" height="31" viewBox="0 0 32 31" fill="none" xmlns="http://www.w3.org/2000/svg">
<path fill-rule="evenodd" clip-rule="evenodd" d="M15.9913 24.7253C10.8176 24.7253 6.58105 20.5076 6.58105 15.3151C6.58105 10.1225 10.8176 5.90479 15.9913 5.90479C21.1839 5.90479 25.4016 10.1225 25.4016 15.3151C25.4016 20.5076 21.1839 24.7253 15.9913 24.7253ZM15.9913 6.65461C11.23 6.65461 7.33088 10.5537 7.33088 15.3151C7.33088 20.0952 11.23 23.9755 15.9913 23.9755C20.7715 23.9755 24.6518 20.0952 24.6518 15.3151C24.6518 10.5537 20.7715 6.65461 15.9913 6.65461Z" fill="#CBFA11"/>
<path fill-rule="evenodd" clip-rule="evenodd" d="M18.1661 30.6303H13.8358C13.161 30.6303 12.6361 30.1241 12.5236 29.3743L12.2237 27.556C11.0615 27.2561 9.93675 26.7874 8.887 26.1688C5.98143 28.2683 6.52505 28.1746 3.45078 25.0816C2.98214 24.6129 2.9634 23.8819 3.41329 23.2633L4.50053 21.7636C3.88193 20.7326 3.41329 19.6079 3.11336 18.4269C-0.448299 17.8645 0.0203403 18.1832 0.0203403 13.8155C0.0203403 13.1406 0.526471 12.6158 1.27629 12.5033L3.11336 12.2221C3.41329 11.0411 3.86318 9.91641 4.50053 8.86666C2.38228 5.96109 2.49476 6.50471 5.56903 3.43044C6.03767 2.9618 6.76875 2.94305 7.38735 3.39295L8.887 4.48019C9.93675 3.86159 11.0615 3.39295 12.2237 3.09302L12.5236 1.2747C12.6361 0.50613 13.161 0 13.8358 0H18.1661C18.8409 0 19.3658 0.50613 19.4782 1.25595L19.7782 3.09302C20.9404 3.39295 22.0651 3.86159 23.1149 4.48019C26.0205 2.36194 25.4768 2.47442 28.5511 5.54869C29.0197 6.03607 29.0385 6.74841 28.5886 7.36701L27.5014 8.86666C28.12 9.91641 28.5886 11.0411 28.8885 12.2034C32.4314 12.7657 31.9815 12.4658 31.9815 16.8335C31.9815 17.4896 31.4754 18.0145 30.7256 18.1457L28.8885 18.4269C28.5886 19.6079 28.12 20.7139 27.5014 21.7636C29.6196 24.6692 29.5071 24.1256 26.4329 27.2186C25.9455 27.6872 25.2331 27.706 24.6145 27.2561L23.1149 26.1688C22.0651 26.7874 20.9404 27.2561 19.7782 27.556L19.4782 29.3743C19.3658 30.1241 18.8409 30.6303 18.1661 30.6303ZM8.86825 25.344C9.13069 25.344 10.4616 26.375 12.6361 26.8812C12.7861 26.9186 12.8986 27.0311 12.9173 27.1811L13.2547 29.2618C13.2922 29.543 13.4797 29.8804 13.8171 29.8804H18.1661C18.5222 29.8804 18.6909 29.543 18.7472 29.2618L19.0658 27.1811C19.0846 27.0311 19.1971 26.9186 19.347 26.8812C20.6217 26.5812 21.8214 26.0938 22.9274 25.4003C23.0587 25.3253 23.2274 25.3253 23.3398 25.419L25.0457 26.6562C25.2894 26.8249 25.6455 26.9374 25.8892 26.6937L28.0262 24.5567C28.2699 24.313 28.1574 23.9381 27.9887 23.7132L26.7515 22.0073C26.6578 21.8948 26.6578 21.7261 26.7328 21.5949C27.4264 20.4889 27.9138 19.2892 28.2137 18.0145C28.2512 17.8645 28.3636 17.7521 28.5324 17.7333L30.5944 17.3959C30.8943 17.3584 31.2317 17.1709 31.2317 16.8335V13.8155C31.2317 13.4593 30.8943 13.2906 30.5944 13.2344L28.5324 12.9157C28.3636 12.897 28.2512 12.7845 28.2137 12.6345C27.9138 11.3598 27.4264 10.1601 26.7328 9.05411C26.6578 8.92289 26.6578 8.75418 26.7515 8.64171L27.9887 6.93586C28.1574 6.69217 28.2699 6.336 28.0262 6.09231L25.8892 3.95532C25.6455 3.71162 25.2894 3.8241 25.0457 3.99281L23.3398 5.23001C23.2274 5.32374 23.0587 5.32374 22.9274 5.24876C21.8214 4.55517 20.6217 4.04904 19.347 3.76786C19.1971 3.73037 19.0846 3.59915 19.0658 3.44919L18.7472 1.38717C18.6909 1.08724 18.5222 0.749823 18.1661 0.749823H13.8358C13.4797 0.749823 13.311 1.08724 13.2547 1.38717L12.936 3.44919C12.8986 3.59915 12.7861 3.73037 12.6361 3.76786C11.3802 4.04904 10.1804 4.55517 9.07445 5.24876C8.94323 5.32374 8.77452 5.32374 8.6433 5.23001L6.9562 3.99281C6.71251 3.8241 6.3376 3.71162 6.09391 3.95532L3.97566 6.09231C3.71322 6.336 3.84444 6.69217 4.01315 6.93586L5.25036 8.64171C5.32534 8.75418 5.34408 8.92289 5.25036 9.05411C4.57552 10.1601 4.06938 11.3598 3.76946 12.6345C3.75071 12.7845 3.61949 12.897 3.46953 12.9157L1.38877 13.2344C1.10758 13.2906 0.770163 13.4593 0.770163 13.8155V16.8335C0.770163 17.1709 1.10758 17.3584 1.38877 17.3959L3.46953 17.7333C3.61949 17.7521 3.73196 17.8645 3.76946 18.0145C4.06938 19.2892 4.57552 20.4889 5.25036 21.5949C5.34408 21.7261 5.34408 21.8761 5.25036 22.0073L4.01315 23.7132C3.84444 23.9381 3.73196 24.313 3.97566 24.5567L6.09391 26.6937C6.3376 26.9374 6.71251 26.8249 6.93746 26.6375C7.23739 26.4313 8.62456 25.344 8.86825 25.344Z" fill="#CBFA11"/>
<path fill-rule="evenodd" clip-rule="evenodd" d="M13.0112 18.6141H10.0307C9.8807 18.6141 9.74948 18.5391 9.67449 18.4079L9.11213 17.1707H7.08761C6.58148 17.1707 6.58148 16.4209 7.08761 16.4209H9.35582C9.48704 16.4209 9.637 16.5146 9.69324 16.6271L10.2556 17.8643H13.0112C13.4986 17.8643 13.4986 18.6141 13.0112 18.6141Z" fill="#CBFA11"/>
<path fill-rule="evenodd" clip-rule="evenodd" d="M14.3978 20.0205C13.4231 20.0205 12.6357 19.2331 12.6357 18.2396C12.6357 17.2649 13.4231 16.4775 14.3978 16.4775C15.3726 16.4775 16.1787 17.2649 16.1787 18.2396C16.1787 19.2331 15.3726 20.0205 14.3978 20.0205ZM14.3978 17.2274C13.0481 17.2274 13.0481 19.2706 14.3978 19.2706C15.7475 19.2706 15.7475 17.2274 14.3978 17.2274Z" fill="#CBFA11"/>
<path fill-rule="evenodd" clip-rule="evenodd" d="M24.914 14.2281H22.852C22.702 14.2281 22.5708 14.1344 22.5146 14.0031L21.9334 12.7659H19.1966C18.7092 12.7659 18.7092 12.0161 19.1966 12.0161H22.1771C22.3271 12.0161 22.4583 12.1098 22.5146 12.2411L23.0957 13.4783H24.914C25.4014 13.4783 25.4014 14.2281 24.914 14.2281Z" fill="#CBFA11"/>
<path fill-rule="evenodd" clip-rule="evenodd" d="M17.7914 14.1718C16.8166 14.1718 16.0293 13.3658 16.0293 12.391C16.0293 11.4162 16.8166 10.6289 17.7914 10.6289C18.7849 10.6289 19.5722 11.4162 19.5722 12.391C19.5722 13.3658 18.7849 14.1718 17.7914 14.1718ZM17.7914 11.3787C16.4604 11.3787 16.4604 13.422 17.7914 13.422C19.1411 13.422 19.1411 11.3787 17.7914 11.3787Z" fill="#CBFA11"/>
<path fill-rule="evenodd" clip-rule="evenodd" d="M13.0673 12.6906C12.8611 12.6906 12.6924 12.5407 12.6924 12.3157V9.3539C12.6924 9.20394 12.7861 9.07272 12.9173 8.99774L14.1545 8.43537V6.41085C14.1545 5.90472 14.9044 5.90472 14.9044 6.41085V8.67906C14.9044 8.81028 14.8106 8.9415 14.6794 9.01648L13.4422 9.57885V12.3157C13.4422 12.5219 13.2735 12.6906 13.0673 12.6906Z" fill="#CBFA11"/>
<path fill-rule="evenodd" clip-rule="evenodd" d="M13.0668 15.5026C12.092 15.5026 11.3047 14.6965 11.3047 13.7217C11.3047 12.747 12.092 11.9409 13.0668 11.9409C14.0415 11.9409 14.8476 12.747 14.8476 13.7217C14.8476 14.6965 14.0415 15.5026 13.0668 15.5026ZM13.0668 12.6907C11.7171 12.6907 11.7171 14.7528 13.0668 14.7528C14.4165 14.7528 14.4165 12.6907 13.0668 12.6907Z" fill="#CBFA11"/>
<path fill-rule="evenodd" clip-rule="evenodd" d="M17.4726 24.6131C17.2664 24.6131 17.0977 24.4444 17.0977 24.2382V22.1762C17.0977 22.0262 17.1726 21.895 17.3039 21.8388L18.5411 21.2577V18.5208C18.5411 18.0334 19.2909 18.0334 19.2909 18.5208V21.5014C19.2909 21.6513 19.2159 21.7825 19.0847 21.8388L17.8475 22.4011V24.2382C17.8475 24.4444 17.6788 24.6131 17.4726 24.6131Z" fill="#CBFA11"/>
<path fill-rule="evenodd" clip-rule="evenodd" d="M18.9154 18.8955C17.9406 18.8955 17.1533 18.0894 17.1533 17.1146C17.1533 16.1399 17.9406 15.3525 18.9154 15.3525C19.9089 15.3525 20.6962 16.1399 20.6962 17.1146C20.6962 18.0894 19.9089 18.8955 18.9154 18.8955ZM18.9154 16.1024C17.5657 16.1024 17.5657 18.1456 18.9154 18.1456C20.2651 18.1456 20.2651 16.1024 18.9154 16.1024Z" fill="#CBFA11"/>
</svg>
