<svg width="32" height="32" viewBox="0 0 32 32" fill="none" xmlns="http://www.w3.org/2000/svg">
<path d="M24.5 0H7.5C3.35786 0 0 3.35786 0 7.5V24.5C0 28.6421 3.35786 32 7.5 32H24.5C28.6421 32 32 28.6421 32 24.5V7.5C32 3.35786 28.6421 0 24.5 0Z" fill="#242938"/>
<mask id="mask0_497_4072" style="mask-type:luminance" maskUnits="userSpaceOnUse" x="7" y="3" width="18" height="26">
<path d="M7.625 3.5H24.295V28.5H7.625V3.5Z" fill="white"/>
</mask>
<g mask="url(#mask0_497_4072)">
<path d="M11.7937 28.5004C14.0937 28.5004 15.9603 26.6337 15.9603 24.3337V20.167H11.7937C9.4937 20.167 7.62695 22.0337 7.62695 24.3337C7.62695 26.6337 9.4937 28.5004 11.7937 28.5004Z" fill="#0ACF83"/>
<path d="M7.62695 15.9996C7.62695 13.6996 9.4937 11.833 11.7937 11.833H15.9603V20.1663H11.7937C9.4937 20.1663 7.62695 18.2996 7.62695 15.9996Z" fill="#A259FF"/>
<path d="M7.62695 7.66663C7.62695 5.36663 9.4937 3.5 11.7937 3.5H15.9603V11.8334H11.7937C9.4937 11.8334 7.62695 9.96663 7.62695 7.66663Z" fill="#F24E1E"/>
<path d="M15.9609 3.5H20.1276C22.4276 3.5 24.2943 5.36663 24.2943 7.66663C24.2943 9.96663 22.4276 11.8334 20.1276 11.8334H15.9609V3.5Z" fill="#FF7262"/>
<path d="M24.2943 15.9996C24.2943 18.2996 22.4276 20.1663 20.1276 20.1663C17.8276 20.1663 15.9609 18.2996 15.9609 15.9996C15.9609 13.6996 17.8276 11.833 20.1276 11.833C22.4276 11.833 24.2943 13.6996 24.2943 15.9996Z" fill="#1ABCFE"/>
</g>
</svg>
