<svg width="37" height="14" viewBox="0 0 37 14" fill="none" xmlns="http://www.w3.org/2000/svg">
<path d="M0 0H2.72V5.86H8.64V0H11.36V14H8.64V8.18H2.72V14H0V0Z" fill="#CBFA11"/>
<path d="M13.7648 11.7V2.3L16.0648 0H22.9048L25.1648 2.26V4.4H22.4448V3.26L21.5048 2.32H17.5048L16.4848 3.34V10.66L17.5048 11.68H21.5048L22.4448 10.74V9.6H25.1648V11.74L22.9048 14H16.0648L13.7648 11.7Z" fill="#CBFA11"/>
<path d="M26.1703 11.58V8.98H28.8103V10.66L29.8303 11.68H32.4903L33.4503 10.74V0H36.1703V11.66L33.8303 14H28.5703L26.1703 11.58Z" fill="#CBFA11"/>
</svg>
