<svg width="20" height="32" viewBox="0 0 20 32" fill="none" xmlns="http://www.w3.org/2000/svg">
<path fill-rule="evenodd" clip-rule="evenodd" d="M9.41175 4.07843C9.41175 6.11054 7.92555 7.79552 5.98081 8.10575L5.98081 10.7059C7.23411 10.8576 8.35345 11.444 9.18358 12.3098L11.476 10.9344C11.3577 10.5525 11.2939 10.1466 11.2939 9.72589C11.2939 7.47344 13.1199 5.64746 15.3724 5.64746C17.6248 5.64746 19.4508 7.47344 19.4508 9.72589C19.4508 11.9783 17.6248 13.8043 15.3724 13.8043C14.1106 13.8043 12.9827 13.2313 12.2346 12.3314L10.1026 13.6106C10.4635 14.3294 10.6667 15.1411 10.6667 16.0003C10.6667 16.6795 10.5397 17.329 10.3082 17.9265L12.4654 18.7862C13.2052 18.0345 14.2343 17.5684 15.3724 17.5684C17.6248 17.5684 19.4508 19.3943 19.4508 21.6468C19.4508 23.8992 17.6248 25.7252 15.3724 25.7252C13.1199 25.7252 11.2939 23.8992 11.2939 21.6468C11.2939 21.1157 11.3954 20.6084 11.5801 20.1431L9.50954 19.3179C8.65901 20.3871 7.4065 21.1223 5.9806 21.2948V23.8939C7.92544 24.204 9.41175 25.889 9.41175 27.9212C9.41175 30.1737 7.58577 31.9996 5.33331 31.9996C3.08086 31.9996 1.25488 30.1737 1.25488 27.9212C1.25488 25.9926 2.59353 24.3767 4.39236 23.9519V21.2509C1.89562 20.8065 0 18.6248 0 16.0003C0 13.3758 1.89573 11.1941 4.39258 10.7497V8.04783C2.59364 7.62311 1.25488 6.00711 1.25488 4.07843C1.25488 1.82598 3.08086 0 5.33331 0C7.58577 0 9.41175 1.82598 9.41175 4.07843ZM5.33331 6.56863C6.70861 6.56863 7.82351 5.45373 7.82351 4.07843C7.82351 2.70313 6.70861 1.58824 5.33331 1.58824C3.95802 1.58824 2.84312 2.70313 2.84312 4.07843C2.84312 5.45373 3.95802 6.56863 5.33331 6.56863ZM9.07843 16.0003C9.07843 18.0687 7.40169 19.7454 5.33333 19.7454C3.26497 19.7454 1.58824 18.0687 1.58824 16.0003C1.58824 13.932 3.26497 12.2552 5.33333 12.2552C7.40169 12.2552 9.07843 13.932 9.07843 16.0003ZM7.82351 27.9212C7.82351 29.2965 6.70861 30.4114 5.33331 30.4114C3.95802 30.4114 2.84312 29.2965 2.84312 27.9212C2.84312 26.5459 3.95802 25.431 5.33331 25.431C6.70861 25.431 7.82351 26.5459 7.82351 27.9212ZM15.3724 12.2161C16.7477 12.2161 17.8626 11.1012 17.8626 9.72589C17.8626 8.35059 16.7477 7.2357 15.3724 7.2357C13.9971 7.2357 12.8822 8.35059 12.8822 9.72589C12.8822 11.1012 13.9971 12.2161 15.3724 12.2161ZM17.8626 21.6468C17.8626 23.0221 16.7477 24.137 15.3724 24.137C13.9971 24.137 12.8822 23.0221 12.8822 21.6468C12.8822 20.2715 13.9971 19.1566 15.3724 19.1566C16.7477 19.1566 17.8626 20.2715 17.8626 21.6468Z" fill="#CBFA11"/>
</svg>
