<svg width="32" height="32" viewBox="0 0 32 32" fill="none" xmlns="http://www.w3.org/2000/svg">
<path d="M1.86933 0C0.833333 0 0 0.833333 0 1.86933V30.1307C0 31.1667 0.833333 32 1.86933 32H30.1307C31.1667 32 32 31.1667 32 30.1307V1.86933C32 0.833333 31.1667 0 30.1307 0H1.86933ZM5.712 7.28667H9.76267V24.7107H5.712V23.396H8.196V8.6H5.712V7.28667ZM22.2373 7.28667H26.288V8.6H23.804V23.3973H26.288V24.712H22.2373V7.28667ZM11.7627 12.02H13.5627C13.7067 12.608 13.8747 13.2387 14.0667 13.9107C14.2707 14.5707 14.48 15.2307 14.696 15.8907C14.924 16.5387 15.152 17.168 15.38 17.78C15.608 18.3933 15.824 18.9387 16.028 19.4187C16.232 18.9387 16.448 18.392 16.676 17.78C16.904 17.168 17.1267 16.5387 17.3427 15.8907C17.5693 15.2307 17.78 14.5707 17.972 13.9107C18.176 13.2387 18.3507 12.608 18.4947 12.02H20.2227C19.7687 13.7306 19.2157 15.4135 18.5667 17.06C18.0054 18.5185 17.3989 19.9592 16.748 21.38H15.236C14.584 19.9573 13.9718 18.5168 13.4 17.06C12.7624 15.4112 12.2158 13.7287 11.7627 12.02Z" fill="#F15200"/>
</svg>
