<svg width="33" height="32" viewBox="0 0 33 32" fill="none" xmlns="http://www.w3.org/2000/svg">
<path d="M30.0272 24.7498C28.2536 24.7056 26.8789 24.883 25.726 25.3707C25.3934 25.5036 24.8612 25.5038 24.8168 25.9251C24.9942 26.1025 25.0164 26.3907 25.1716 26.6345C25.438 27.0779 25.9032 27.6766 26.3245 27.9871C26.7901 28.3418 27.2559 28.6964 27.7434 29.0069C28.6082 29.5391 29.5839 29.8494 30.4264 30.3815C30.9143 30.6917 31.4018 31.0911 31.8896 31.4236C32.1335 31.6007 32.2886 31.8893 32.5992 32V31.9336C32.4438 31.7339 32.3995 31.4458 32.2444 31.224C32.0229 31.0023 31.8009 30.8027 31.5792 30.581C30.9362 29.7165 30.1381 28.9625 29.2734 28.3418C28.564 27.854 27.0118 27.1889 26.7237 26.3684C26.7237 26.3684 26.7014 26.3464 26.6793 26.3242C27.167 26.2799 27.7434 26.1025 28.2092 25.9694C28.963 25.7697 29.6503 25.8142 30.4264 25.6146C30.781 25.5259 31.1358 25.4151 31.4905 25.3042V25.1048C31.0916 24.7056 30.8033 24.1736 30.382 23.7966C29.2513 22.8208 28.0095 21.8676 26.7237 21.0695C26.0363 20.626 25.1493 20.3377 24.4177 19.9609C24.1519 19.8277 23.7083 19.7613 23.5532 19.5396C23.1539 19.0519 22.9322 18.4089 22.644 17.8324C22.0012 16.6128 21.3802 15.2605 20.8259 13.9746C20.427 13.1098 20.1831 12.2451 19.6953 11.447C17.4116 7.67783 14.9283 5.39416 11.1149 3.1547C10.2945 2.68917 9.31893 2.4896 8.27688 2.24582C7.72278 2.22352 7.1683 2.17929 6.61407 2.15699C6.25929 2.00177 5.9045 1.58059 5.59407 1.38103C4.33053 0.582761 1.07106 -1.14644 0.139879 1.13724C-0.458821 2.5783 1.02684 3.99719 1.53659 4.72906C1.91381 5.23894 2.40138 5.81534 2.66747 6.39186C2.82269 6.76857 2.86691 7.16795 3.02213 7.56696C3.37704 8.54224 3.7094 9.6289 4.17518 10.538C4.4191 11.0036 4.68506 11.4913 4.99549 11.9126C5.17289 12.1564 5.4832 12.2674 5.54985 12.6664C5.23954 13.1098 5.21724 13.7751 5.03971 14.3293C4.24158 16.8347 4.55214 19.9387 5.68276 21.7789C6.03742 22.333 6.88004 23.5528 8.01079 23.087C9.00862 22.688 8.78688 21.4242 9.07489 20.3157C9.14167 20.0493 9.09732 19.8722 9.23023 19.6948V19.7393C9.54067 20.3599 9.85098 20.9587 10.1392 21.5795C10.8266 22.6657 12.0238 23.7966 13.0215 24.5505C13.5538 24.9494 13.975 25.6368 14.6402 25.8807V25.8141H14.5957C14.4627 25.6145 14.2631 25.5259 14.0858 25.3706C13.6868 24.9717 13.2432 24.4839 12.9329 24.0404C12.0019 22.7986 11.1813 21.4241 10.4497 20.0051C10.095 19.318 9.78446 18.564 9.49632 17.8768C9.36315 17.6104 9.36315 17.2115 9.14154 17.0786C8.80893 17.5663 8.32123 17.9876 8.07731 18.5862C7.65626 19.5396 7.61178 20.7147 7.45656 21.934C7.36787 21.9564 7.41209 21.934 7.36774 21.9786C6.65842 21.8009 6.41451 21.0695 6.14829 20.4486C5.48307 18.8745 5.3722 16.3469 5.94885 14.5289C6.10407 14.0632 6.76929 12.6 6.5032 12.1565C6.37016 11.7352 5.92655 11.4913 5.68276 11.1588C5.39463 10.7375 5.08406 10.2056 4.88462 9.73977C4.35245 8.49815 4.08636 7.12348 3.50996 5.88186C3.24387 5.30533 2.77847 4.70689 2.40138 4.17471C1.9802 3.57613 1.51455 3.1547 1.18193 2.44526C1.07119 2.20147 0.915845 1.80234 1.09324 1.53625C1.13759 1.35885 1.22615 1.29246 1.40367 1.24811C1.69194 1.00407 2.51238 1.31451 2.80039 1.44755C3.62083 1.77991 4.3081 2.0906 4.99549 2.55613C5.3058 2.77787 5.63842 3.19918 6.03742 3.31005H6.50308C7.21265 3.46514 8.01066 3.35439 8.67588 3.55383C9.85111 3.93067 10.9152 4.48502 11.8687 5.08372C14.7732 6.92391 17.1675 9.5402 18.7862 12.6664C19.0523 13.1761 19.1631 13.642 19.407 14.1739C19.8728 15.2605 20.4492 16.3691 20.9146 17.4333C21.3802 18.4752 21.8236 19.5396 22.4888 20.4044C22.8214 20.8698 24.1516 21.1138 24.7503 21.3577C25.1938 21.5572 25.8812 21.7347 26.2802 21.9785C27.034 22.4439 27.7878 22.9763 28.4973 23.486C28.8521 23.7521 29.9606 24.3065 30.0272 24.7498Z" fill="#00758F"/>
</svg>
