<svg width="29" height="32" viewBox="0 0 29 32" fill="none" xmlns="http://www.w3.org/2000/svg">
<path d="M13.9519 0H14.0261C14.4069 0.181348 14.7777 0.382795 15.1371 0.60349L27.5475 7.7425C27.7076 7.82793 27.8382 7.95947 27.9226 8.12007C28.007 8.28067 28.0412 8.46291 28.0207 8.64317C28.0116 13.6597 28.0207 18.675 28.015 23.6893C27.9612 23.9286 27.8149 24.1369 27.6081 24.2688C23.2092 26.8016 18.8099 29.3329 14.4102 31.8627C14.3036 31.9439 14.175 31.9914 14.0412 31.9989C13.9074 32.0065 13.7743 31.9737 13.6593 31.905C9.25499 29.3798 4.85492 26.85 0.459047 24.3156C0.316183 24.2481 0.196522 24.1397 0.115157 24.0043C0.0337925 23.8688 -0.0056317 23.7123 0.00185704 23.5544V8.50944C-0.00892254 8.35228 0.0274051 8.19547 0.106197 8.05906C0.184989 7.92265 0.302666 7.81284 0.444188 7.74365C4.57566 5.36778 8.70713 2.9904 12.8386 0.611491C13.2066 0.401184 13.5678 0.178304 13.9519 0Z" fill="#019639"/>
<path d="M5.7446 9.75881V22.1704C5.73932 22.3995 5.77976 22.6274 5.86356 22.8407C5.94736 23.054 6.07283 23.2485 6.23265 23.4128C6.53899 23.7154 6.93982 23.9038 7.36829 23.9467C7.79676 23.9895 8.22697 23.8842 8.58717 23.6482C8.82828 23.4844 9.02567 23.2641 9.16213 23.0065C9.29859 22.7489 9.36999 22.4619 9.37011 22.1704C9.37011 19.1758 9.3644 16.1812 9.37011 13.1866C12.1003 16.4555 14.8362 19.7198 17.5778 22.9796C17.9587 23.3655 18.4304 23.6495 18.9496 23.8057C19.4688 23.9618 20.019 23.9851 20.5495 23.8734C20.9242 23.7996 21.2653 23.6075 21.5226 23.3255C21.78 23.0434 21.9401 22.6862 21.9794 22.3064C21.9855 18.0842 21.9855 13.8625 21.9794 9.64109C21.94 9.19048 21.7332 8.77098 21.3998 8.46537C21.0663 8.15976 20.6304 7.99023 20.1781 7.99023C19.7257 7.99023 19.2898 8.15976 18.9564 8.46537C18.6229 8.77098 18.4161 9.19048 18.3767 9.64109C18.3767 12.6837 18.3585 15.7228 18.3767 18.7643C15.6953 15.6028 13.0471 12.4139 10.3759 9.24105C10.0238 8.78949 9.55756 8.44001 9.02535 8.22866C8.49314 8.0173 7.91419 7.95171 7.34819 8.03864C6.91942 8.08637 6.52193 8.28611 6.22775 8.60168C5.93357 8.91724 5.76217 9.32775 5.7446 9.75881Z" fill="white"/>
</svg>
