<svg width="29" height="32" viewBox="0 0 29 32" fill="none" xmlns="http://www.w3.org/2000/svg">
<path fill-rule="evenodd" clip-rule="evenodd" d="M14.8153 0.202875C14.3469 -0.0676251 13.7693 -0.0676251 13.3009 0.202875L0.757813 7.44113C0.28875 7.71163 0 8.21157 0 8.75326V23.2409C0 23.7821 0.28875 24.282 0.757313 24.553L13.3003 31.797C13.7693 32.0677 14.3468 32.0677 14.8158 31.797L27.3559 24.553C27.8243 24.2819 28.1131 23.782 28.1131 23.2408V8.7527C28.1131 8.21151 27.8243 7.71163 27.3554 7.44107L14.8153 0.202875Z" fill="#0A3101"/>
<path d="M27.3803 7.44084L14.8022 0.202586C14.6781 0.130899 14.5452 0.079586 14.4085 0.0458984L0.311523 24.1608C0.432461 24.3399 0.550149 24.461 0.708711 24.5527L13.3082 31.7968C13.6651 32.0028 14.0892 32.051 14.4784 31.9434L27.7176 7.70034C27.6171 7.60047 27.504 7.51222 27.3803 7.44084Z" fill="#1E620F"/>
<path d="M27.3877 24.5527C27.7532 24.3412 28.012 23.9707 28.0845 23.5361L14.4088 0.0458252C14.0488 -0.0258623 13.5989 0.0154502 13.2749 0.202513L0.78125 7.39721L14.2779 31.985C14.4706 31.9587 14.6592 31.8964 14.8319 31.7967L27.3877 24.5527Z" fill="#539E43"/>
</svg>
