<svg width="32" height="31" viewBox="0 0 32 31" fill="none" xmlns="http://www.w3.org/2000/svg">
<path d="M22.1726 21.2166C23.3535 21.0944 24.2494 20.0764 24.2086 18.8546C24.168 17.633 23.1499 16.6556 21.9282 16.6556H21.8469C20.5844 16.6964 19.6071 17.7551 19.6479 19.0175C19.6886 19.6284 19.9329 20.1577 20.2994 20.5242C18.9149 23.2527 16.7974 25.2481 13.6211 26.9177C11.4629 28.058 9.22325 28.4652 6.98362 28.1802C5.15112 27.9359 3.72587 27.1215 2.82987 25.7775C1.52687 23.7821 1.40475 21.6237 2.50425 19.4655C3.278 17.918 4.4995 16.7777 5.27325 16.2076C5.11037 15.6782 4.866 14.7824 4.74387 14.1309C-1.16075 18.4067 -0.549876 24.1894 1.24187 26.9177C2.58562 28.954 5.314 30.2164 8.32737 30.2164C9.14175 30.2164 9.95612 30.1349 10.7706 29.9314C15.983 28.9132 19.933 25.8182 22.1726 21.2166ZM29.3396 16.167C26.2447 12.5426 21.684 10.5472 16.4716 10.5472H15.8201C15.4536 9.81425 14.6799 9.3255 13.8247 9.3255H13.7432C12.481 9.36625 11.5037 10.425 11.5444 11.6875C11.5851 12.9091 12.6031 13.8865 13.8247 13.8865H13.9061C14.802 13.8457 15.5757 13.2756 15.9015 12.5019H16.6345C19.7294 12.5019 22.6612 13.3977 25.3082 15.1489C27.3442 16.4927 28.8102 18.2439 29.6246 20.3614C30.3169 22.0717 30.2761 23.7414 29.5431 25.1667C28.403 27.325 26.4891 28.506 23.9644 28.506C22.3355 28.506 20.7881 28.0172 19.9736 27.6507C19.5257 28.058 18.7112 28.7095 18.1411 29.1169C19.8922 29.9312 21.684 30.3792 23.3942 30.3792C27.3035 30.3792 30.1947 28.2209 31.2942 26.0626C32.4751 23.7006 32.3936 19.6284 29.3396 16.167ZM8.65312 21.9087C8.69387 23.1305 9.71187 24.1077 10.9335 24.1077H11.015C12.2774 24.0671 13.2546 23.0082 13.2139 21.7459C13.1732 20.5241 12.1551 19.5469 10.9335 19.5469H10.8521C10.7706 19.5469 10.6484 19.5469 10.5671 19.5875C8.8975 16.8184 8.20525 13.805 8.44962 10.5471C8.61237 8.10375 9.42687 5.98612 10.8521 4.235C12.033 2.72825 14.3134 1.99525 15.8609 1.95462C20.1772 1.87312 22.0096 7.2485 22.1319 9.40687C22.6612 9.529 23.5571 9.81412 24.168 10.0177C23.6792 3.42075 19.6071 0 15.698 0C12.033 0 8.65312 2.647 7.30925 6.55637C5.43612 11.7689 6.65775 16.7777 8.93812 20.7279C8.73462 21.0129 8.61237 21.4607 8.65312 21.9087Z" fill="#764ABC"/>
</svg>
