<svg width="32" height="15" viewBox="0 0 32 15" fill="none" xmlns="http://www.w3.org/2000/svg">
<path d="M0 10.3073V8.56623H2.33308V9.59348L2.90764 10.168H6.51173L7.10371 9.57607V7.55639L6.52914 6.98183H1.91521L0.0348221 5.10144V1.88039L1.91521 0H7.4171L9.2975 1.88039V3.63891H6.96442V2.59425L6.38985 2.01968H2.94247L2.3679 2.59425V4.38758L2.94247 4.96215H7.55639L9.43678 6.84254V10.2725L7.52157 12.1877H1.88039L0 10.3073Z" fill="#CBFA11"/>
<path d="M21.8111 13.1627L20.3486 14.6253L17.8937 12.1877H13.1753L11.173 10.1855V2.00227L13.1753 0H19.4432L21.4455 2.00227V10.1855L20.1571 11.4739L21.8111 13.1627ZM18.1896 10.168L19.0776 9.28009V2.90764L18.1896 2.01968H14.4289L13.5409 2.90764V9.28009L14.4289 10.168H18.1896Z" fill="#CBFA11"/>
<path d="M23.5382 0H25.9061V10.1855H32V12.1877H23.5382V0Z" fill="#CBFA11"/>
</svg>
