<svg width="32" height="32" viewBox="0 0 32 32" fill="none" xmlns="http://www.w3.org/2000/svg">
<path d="M3.125 0H28.875C30.6009 0 32 1.39912 32 3.125V28.875C32 30.6009 30.6009 32 28.875 32H3.125C1.39912 32 0 30.6009 0 28.875V3.125C0 1.39912 1.39912 0 3.125 0Z" fill="#AAAAAA"/>
<path d="M3.125 0H28.875C30.6009 0 32 1.39912 32 3.125V28.875C32 30.6009 30.6009 32 28.875 32H3.125C1.39912 32 0 30.6009 0 28.875V3.125C0 1.39912 1.39912 0 3.125 0Z" fill="#4A3AFF"/>
<path fill-rule="evenodd" clip-rule="evenodd" d="M19.8087 25.464V28.5928C20.3173 28.8536 20.9189 29.0491 21.6134 29.1794C22.3079 29.3098 23.0398 29.375 23.8093 29.375C25.1355 29.375 26.5873 29.1853 27.7219 28.451C28.8509 27.7203 29.375 26.5048 29.375 25.1903C29.375 24.2129 29.0718 23.2725 28.3871 22.5602C27.3602 21.492 25.9173 21.0588 24.6211 20.4237C23.9718 20.1056 23.0757 19.6118 23.0757 18.7762C23.0757 18.5611 23.1311 18.3672 23.242 18.1945C23.6877 17.4999 24.6778 17.3585 25.4331 17.3585C26.2904 17.3585 27.1949 17.5504 27.9909 17.906C28.2681 18.0299 28.524 18.1733 28.7588 18.3363V15.4128C28.2828 15.2303 27.7627 15.095 27.1986 15.007C26.6346 14.919 25.9873 14.875 25.257 14.875C24.5136 14.875 23.8093 14.9549 23.1442 15.1146C22.4791 15.2742 21.8938 15.5236 21.3884 15.8625C20.883 16.2015 20.4836 16.6333 20.1902 17.1581C19.8967 17.6827 19.75 18.3101 19.75 19.0402C19.75 19.9723 20.019 20.7676 20.557 21.4259C21.0949 22.0842 21.9117 22.6416 23.0072 23.0979C23.7442 23.3993 24.5106 23.6967 25.1738 24.1441C25.6335 24.4541 26.0492 24.8864 26.0492 25.4737C26.0492 25.9001 25.8083 26.2615 25.4575 26.4858C24.9386 26.8175 24.274 26.8915 23.6723 26.8915C22.9941 26.8915 22.3225 26.7726 21.6573 26.5346C20.9922 26.2967 20.376 25.9399 19.8087 25.464ZM14.5487 17.7551H18.5625V15.1875H7.375V17.7551H11.3691V29.1875H14.5487V17.7551Z" fill="white"/>
</svg>
