<svg width="24" height="17" viewBox="0 0 24 17" fill="none" xmlns="http://www.w3.org/2000/svg">
<path d="M17.802 4.866C17.802 4.866 15.856 10.969 15.697 11.473C15.207 7.64807 14.7123 3.82373 14.213 0C10.897 0 9.124 2.36 8.187 4.851L5.622 11.488C5.607 11.012 5.262 4.923 5.262 4.923C5.058 1.871 2.262 0.013 0 0.013L2.739 16.613C6.213 16.598 8.086 14.252 9.067 11.761C9.067 11.761 11.157 6.363 11.243 6.118C11.258 6.348 12.743 16.612 12.743 16.612C16.231 16.612 18.105 14.41 19.113 12.006L24 0.0139999C20.555 0.0139999 18.739 2.36 17.802 4.865V4.866Z" fill="#4353FF"/>
</svg>
